<?xml version="1.0" encoding="UTF-8"?>
<!DOCTYPE svg PUBLIC "-//W3C//DTD SVG 1.1//EN" "http://www.w3.org/Graphics/SVG/1.1/DTD/svg11.dtd">
<svg xmlns="http://www.w3.org/2000/svg" version="1.1" width="500px" height="500px" style="shape-rendering:geometricPrecision; text-rendering:geometricPrecision; image-rendering:optimizeQuality; fill-rule:evenodd; clip-rule:evenodd" xmlns:xlink="http://www.w3.org/1999/xlink">
<g><path style="opacity:1" fill="#03212c" d="M 239.5,95.5 C 244.701,96.8442 249.701,98.6775 254.5,101C 252.893,103.515 250.56,104.849 247.5,105C 248.167,105.667 248.833,106.333 249.5,107C 252.833,107.333 256.167,107.667 259.5,108C 257.246,109.651 254.912,109.818 252.5,108.5C 251.692,108.808 251.025,109.308 250.5,110C 254.821,110.499 259.154,110.666 263.5,110.5C 261.167,111.167 258.833,111.833 256.5,112.5C 253.713,113.477 250.713,113.81 247.5,113.5C 247.265,112.903 246.765,112.57 246,112.5C 241.619,114.194 237.119,114.694 232.5,114C 231.182,113.306 230.349,112.473 230,111.5C 228.044,111.661 226.044,111.994 224,112.5C 223.667,111.833 223.333,111.167 223,110.5C 219.194,111.657 215.361,112.823 211.5,114C 211.957,114.414 212.291,114.914 212.5,115.5C 211.787,117.776 211.287,120.109 211,122.5C 209.708,123.791 208.542,123.791 207.5,122.5C 207.175,120.868 206.175,119.868 204.5,119.5C 199.657,121.277 198.491,119.944 201,115.5C 201.669,118.028 202.502,118.028 203.5,115.5C 202.691,113.929 202.357,112.262 202.5,110.5C 213.766,103.039 226.099,98.0394 239.5,95.5 Z"/></g>
<g><path style="opacity:1" fill="#05222d" d="M 291.5,93.5 C 289.429,94.8086 286.929,95.4752 284,95.5C 281.111,95.453 278.278,95.1196 275.5,94.5C 274.5,94.8333 273.833,95.5 273.5,96.5C 276.168,97.7378 278.834,97.7378 281.5,96.5C 283.875,98.265 286.542,99.4317 289.5,100C 288.216,101.297 288.383,102.464 290,103.5C 291.333,100.833 292.667,100.833 294,103.5C 294.204,99.1628 296.037,98.6628 299.5,102C 296.956,103.563 296.956,105.063 299.5,106.5C 298.009,107.244 296.509,107.91 295,108.5C 289.801,106.303 284.635,106.303 279.5,108.5C 276.654,107.377 273.988,107.877 271.5,110C 268.854,110.497 266.187,110.664 263.5,110.5C 259.154,110.666 254.821,110.499 250.5,110C 251.025,109.308 251.692,108.808 252.5,108.5C 254.912,109.818 257.246,109.651 259.5,108C 256.167,107.667 252.833,107.333 249.5,107C 248.833,106.333 248.167,105.667 247.5,105C 250.56,104.849 252.893,103.515 254.5,101C 249.701,98.6775 244.701,96.8442 239.5,95.5C 243.264,94.1682 247.264,93.3349 251.5,93C 264.866,92.2219 278.199,92.3886 291.5,93.5 Z"/></g>
<g><path style="opacity:1" fill="#05232e" d="M 291.5,93.5 C 316.346,98.2583 338.68,108.425 358.5,124C 361.704,127.036 364.704,130.203 367.5,133.5C 366.064,133.755 364.564,134.088 363,134.5C 362.692,133.692 362.192,133.025 361.5,132.5C 360.167,133.833 358.833,135.167 357.5,136.5C 357.568,135.15 357.568,133.816 357.5,132.5C 358.325,131.614 359.325,131.281 360.5,131.5C 360.649,130.448 360.483,129.448 360,128.5C 357.745,127.958 355.912,126.791 354.5,125C 352.167,124.333 349.833,124.333 347.5,125C 349.194,128.604 348.527,131.937 345.5,135C 341.728,135.611 341.728,136.611 345.5,138C 344.944,138.383 344.611,138.883 344.5,139.5C 343.167,138.5 341.833,137.5 340.5,136.5C 315.758,117.817 287.758,109.817 256.5,112.5C 258.833,111.833 261.167,111.167 263.5,110.5C 266.187,110.664 268.854,110.497 271.5,110C 273.988,107.877 276.654,107.377 279.5,108.5C 284.635,106.303 289.801,106.303 295,108.5C 296.509,107.91 298.009,107.244 299.5,106.5C 296.956,105.063 296.956,103.563 299.5,102C 296.037,98.6628 294.204,99.1628 294,103.5C 292.667,100.833 291.333,100.833 290,103.5C 288.383,102.464 288.216,101.297 289.5,100C 286.542,99.4317 283.875,98.265 281.5,96.5C 278.834,97.7378 276.168,97.7378 273.5,96.5C 273.833,95.5 274.5,94.8333 275.5,94.5C 278.278,95.1196 281.111,95.453 284,95.5C 286.929,95.4752 289.429,94.8086 291.5,93.5 Z"/></g>
<g><path style="opacity:1" fill="#022931" d="M 247.5,113.5 C 236.885,115.986 226.885,119.986 217.5,125.5C 216.833,125.5 216.5,125.833 216.5,126.5C 207.176,130.836 198.842,136.67 191.5,144C 184.883,150.772 178.883,157.939 173.5,165.5C 173.54,162.119 174.873,159.452 177.5,157.5C 181.791,151.541 186.791,146.207 192.5,141.5C 191.359,140.575 191.359,139.741 192.5,139C 195.167,137 197.833,135 200.5,133C 201.448,132.517 202.448,132.351 203.5,132.5C 203.775,127.78 202.941,127.446 201,131.5C 198.834,129.879 196.334,129.045 193.5,129C 194.665,127.916 195.998,127.083 197.5,126.5C 198.891,127.645 200.224,127.645 201.5,126.5C 202.035,124.339 202.868,122.339 204,120.5C 204.915,121.328 205.581,122.328 206,123.5C 206.383,122.944 206.883,122.611 207.5,122.5C 208.542,123.791 209.708,123.791 211,122.5C 211.287,120.109 211.787,117.776 212.5,115.5C 212.291,114.914 211.957,114.414 211.5,114C 215.361,112.823 219.194,111.657 223,110.5C 223.333,111.167 223.667,111.833 224,112.5C 226.044,111.994 228.044,111.661 230,111.5C 230.349,112.473 231.182,113.306 232.5,114C 237.119,114.694 241.619,114.194 246,112.5C 246.765,112.57 247.265,112.903 247.5,113.5 Z"/></g>
<g><path style="opacity:1" fill="#06222c" d="M 202.5,110.5 C 202.357,112.262 202.691,113.929 203.5,115.5C 202.502,118.028 201.669,118.028 201,115.5C 198.491,119.944 199.657,121.277 204.5,119.5C 206.175,119.868 207.175,120.868 207.5,122.5C 206.883,122.611 206.383,122.944 206,123.5C 205.581,122.328 204.915,121.328 204,120.5C 202.868,122.339 202.035,124.339 201.5,126.5C 200.224,127.645 198.891,127.645 197.5,126.5C 195.998,127.083 194.665,127.916 193.5,129C 196.334,129.045 198.834,129.879 201,131.5C 202.941,127.446 203.775,127.78 203.5,132.5C 202.448,132.351 201.448,132.517 200.5,133C 197.833,135 195.167,137 192.5,139C 191.359,139.741 191.359,140.575 192.5,141.5C 186.791,146.207 181.791,151.541 177.5,157.5C 176.414,157.38 175.747,156.713 175.5,155.5C 176.337,153.195 176.504,150.862 176,148.5C 177.659,147.183 178.826,145.517 179.5,143.5C 180.729,142.719 182.062,142.219 183.5,142C 182.391,140.187 183.058,139.354 185.5,139.5C 185.5,137.833 185.5,136.167 185.5,134.5C 180.569,134.342 179.903,133.175 183.5,131C 182.07,129.56 180.403,129.226 178.5,130C 179.833,131 179.833,132 178.5,133C 175.872,134.626 173.539,136.626 171.5,139C 170.207,139.49 168.873,139.657 167.5,139.5C 177.467,127.697 189.134,118.03 202.5,110.5 Z"/></g>
<g><path style="opacity:1" fill="#32e0de" d="M 256.5,112.5 C 287.758,109.817 315.758,117.817 340.5,136.5C 339.883,136.611 339.383,136.944 339,137.5C 335.757,133.76 332.423,133.76 329,137.5C 326.965,136.164 324.965,134.83 323,133.5C 322.308,134.025 321.808,134.692 321.5,135.5C 322.326,136.451 322.492,137.451 322,138.5C 321.333,137.167 320.667,137.167 320,138.5C 319.517,137.552 319.351,136.552 319.5,135.5C 316.956,135.896 314.789,135.229 313,133.5C 312.781,134.938 312.281,136.271 311.5,137.5C 311.167,137.333 310.833,137.167 310.5,137C 310.833,136 311.167,135 311.5,134C 310.167,133.667 308.833,133.333 307.5,133C 309.221,132.261 310.887,131.427 312.5,130.5C 312,129.5 311.5,128.5 311,127.5C 308.65,126.439 305.984,125.106 303,123.5C 299.858,124.77 297.525,123.77 296,120.5C 292.658,121.117 288.992,121.784 285,122.5C 283.301,122.613 282.134,121.947 281.5,120.5C 283.292,119.691 285.292,119.191 287.5,119C 284.911,117.803 282.244,116.803 279.5,116C 279.833,115.667 280.167,115.333 280.5,115C 270.483,114.168 260.483,114.334 250.5,115.5C 253.159,116.159 254.826,117.826 255.5,120.5C 252.634,121.208 249.8,121.875 247,122.5C 246.15,121.576 245.15,121.576 244,122.5C 242.779,121.728 241.779,120.728 241,119.5C 238.169,121.766 235.003,122.1 231.5,120.5C 227.256,123.286 222.59,124.952 217.5,125.5C 226.885,119.986 236.885,115.986 247.5,113.5C 250.713,113.81 253.713,113.477 256.5,112.5 Z"/></g>
<g><path style="opacity:1" fill="#28e7e1" d="M 281.5,120.5 C 282.134,121.947 283.301,122.613 285,122.5C 288.992,121.784 292.658,121.117 296,120.5C 297.525,123.77 299.858,124.77 303,123.5C 305.984,125.106 308.65,126.439 311,127.5C 311.5,128.5 312,129.5 312.5,130.5C 310.887,131.427 309.221,132.261 307.5,133C 308.833,133.333 310.167,133.667 311.5,134C 311.167,135 310.833,136 310.5,137C 310.833,137.167 311.167,137.333 311.5,137.5C 312.281,136.271 312.781,134.938 313,133.5C 314.789,135.229 316.956,135.896 319.5,135.5C 319.351,136.552 319.517,137.552 320,138.5C 320.667,137.167 321.333,137.167 322,138.5C 322.492,137.451 322.326,136.451 321.5,135.5C 321.808,134.692 322.308,134.025 323,133.5C 324.965,134.83 326.965,136.164 329,137.5C 332.423,133.76 335.757,133.76 339,137.5C 339.383,136.944 339.883,136.611 340.5,136.5C 340.751,138.17 341.418,139.67 342.5,141C 340.881,141.236 339.881,142.069 339.5,143.5C 336.629,142.014 335.295,143.014 335.5,146.5C 334.178,146.33 333.011,146.663 332,147.5C 331.313,145.432 331.48,143.432 332.5,141.5C 331.372,140.738 330.205,140.071 329,139.5C 326.215,142.487 322.715,143.821 318.5,143.5C 318.719,147.527 317.552,148.194 315,145.5C 314.586,145.957 314.086,146.291 313.5,146.5C 311.278,145.222 308.944,144.222 306.5,143.5C 305.287,143.747 304.62,144.414 304.5,145.5C 301.769,144.305 299.102,143.805 296.5,144C 299.182,141.683 299.015,139.516 296,137.5C 295.517,138.448 295.351,139.448 295.5,140.5C 293.508,140.328 291.842,140.995 290.5,142.5C 288.618,140.758 287.118,138.758 286,136.5C 285.586,136.957 285.086,137.291 284.5,137.5C 283.646,136.478 282.646,135.645 281.5,135C 282.711,134.107 282.711,133.274 281.5,132.5C 280.914,132.709 280.414,133.043 280,133.5C 278.584,130.805 276.584,130.139 274,131.5C 273.292,130.619 272.458,129.953 271.5,129.5C 272.648,126.487 272.814,123.487 272,120.5C 275.068,121.307 278.235,121.307 281.5,120.5 Z"/></g>
<g><path style="opacity:1" fill="#2ae6e0" d="M 281.5,120.5 C 278.235,121.307 275.068,121.307 272,120.5C 272.814,123.487 272.648,126.487 271.5,129.5C 271.657,130.873 271.49,132.207 271,133.5C 268.679,136.212 266.345,136.545 264,134.5C 261.333,135.833 258.667,135.833 256,134.5C 255.517,135.448 255.351,136.448 255.5,137.5C 257.199,137.34 258.866,137.506 260.5,138C 260.64,139.069 260.64,140.236 260.5,141.5C 254.134,143.008 247.801,144.675 241.5,146.5C 240.287,146.747 239.62,147.414 239.5,148.5C 231.913,151.961 224.58,155.961 217.5,160.5C 216.5,160.5 215.5,160.5 214.5,160.5C 213.375,158.179 213.208,155.846 214,153.5C 211.503,153.451 209.503,154.784 208,157.5C 207.309,155.109 206.309,155.109 205,157.5C 202.834,155.879 200.334,155.045 197.5,155C 198.308,154.692 198.975,154.192 199.5,153.5C 198.5,152.833 197.5,152.167 196.5,151.5C 197.025,150.808 197.692,150.308 198.5,150C 198.167,147.667 197.833,145.333 197.5,143C 202.287,137.608 207.954,133.274 214.5,130C 214.167,129.667 213.833,129.333 213.5,129C 215.119,128.764 216.119,127.931 216.5,126.5C 216.5,125.833 216.833,125.5 217.5,125.5C 222.59,124.952 227.256,123.286 231.5,120.5C 235.003,122.1 238.169,121.766 241,119.5C 241.779,120.728 242.779,121.728 244,122.5C 245.15,121.576 246.15,121.576 247,122.5C 249.8,121.875 252.634,121.208 255.5,120.5C 254.826,117.826 253.159,116.159 250.5,115.5C 260.483,114.334 270.483,114.168 280.5,115C 280.167,115.333 279.833,115.667 279.5,116C 282.244,116.803 284.911,117.803 287.5,119C 285.292,119.191 283.292,119.691 281.5,120.5 Z"/></g>
<g><path style="opacity:1" fill="#31e1de" d="M 271.5,129.5 C 272.458,129.953 273.292,130.619 274,131.5C 276.584,130.139 278.584,130.805 280,133.5C 280.414,133.043 280.914,132.709 281.5,132.5C 282.711,133.274 282.711,134.107 281.5,135C 282.646,135.645 283.646,136.478 284.5,137.5C 285.086,137.291 285.586,136.957 286,136.5C 287.118,138.758 288.618,140.758 290.5,142.5C 291.842,140.995 293.508,140.328 295.5,140.5C 295.351,139.448 295.517,138.448 296,137.5C 299.015,139.516 299.182,141.683 296.5,144C 299.102,143.805 301.769,144.305 304.5,145.5C 307.072,148.444 310.406,149.778 314.5,149.5C 314.281,150.675 314.614,151.675 315.5,152.5C 317.894,154.068 320.394,155.401 323,156.5C 323.655,158.628 324.489,160.628 325.5,162.5C 314.977,154.74 303.31,149.406 290.5,146.5C 273.387,141.977 256.387,142.643 239.5,148.5C 239.62,147.414 240.287,146.747 241.5,146.5C 247.801,144.675 254.134,143.008 260.5,141.5C 260.64,140.236 260.64,139.069 260.5,138C 258.866,137.506 257.199,137.34 255.5,137.5C 255.351,136.448 255.517,135.448 256,134.5C 258.667,135.833 261.333,135.833 264,134.5C 266.345,136.545 268.679,136.212 271,133.5C 271.49,132.207 271.657,130.873 271.5,129.5 Z"/></g>
<g><path style="opacity:1" fill="#03202b" d="M 367.5,133.5 C 370.5,135.833 373.167,138.5 375.5,141.5C 377.617,146.636 380.951,150.969 385.5,154.5C 385.023,155.478 384.357,156.311 383.5,157C 384.674,159.515 384.341,162.015 382.5,164.5C 379.246,165.783 376.079,166.449 373,166.5C 372.503,164.19 372.337,161.857 372.5,159.5C 373.833,159.5 375.167,159.5 376.5,159.5C 376.719,158.325 376.386,157.325 375.5,156.5C 374.304,156.846 374.304,157.346 375.5,158C 373.866,158.494 372.199,158.66 370.5,158.5C 371.426,161.87 371.759,165.203 371.5,168.5C 368.679,169.971 366.179,169.637 364,167.5C 363.51,168.793 363.343,170.127 363.5,171.5C 361.394,171.321 359.728,170.321 358.5,168.5C 360.745,166.413 363.412,165.079 366.5,164.5C 364.438,162.908 364.105,161.075 365.5,159C 364.437,157.812 363.103,157.312 361.5,157.5C 360.946,153.945 358.946,151.612 355.5,150.5C 351.5,147.167 347.833,143.5 344.5,139.5C 344.611,138.883 344.944,138.383 345.5,138C 341.728,136.611 341.728,135.611 345.5,135C 348.527,131.937 349.194,128.604 347.5,125C 349.833,124.333 352.167,124.333 354.5,125C 355.912,126.791 357.745,127.958 360,128.5C 360.483,129.448 360.649,130.448 360.5,131.5C 359.325,131.281 358.325,131.614 357.5,132.5C 357.568,133.816 357.568,135.15 357.5,136.5C 358.833,135.167 360.167,133.833 361.5,132.5C 362.192,133.025 362.692,133.692 363,134.5C 364.564,134.088 366.064,133.755 367.5,133.5 Z"/></g>
<g><path style="opacity:1" fill="#32e1de" d="M 340.5,136.5 C 341.833,137.5 343.167,138.5 344.5,139.5C 347.833,143.5 351.5,147.167 355.5,150.5C 356.458,151.962 357.624,153.295 359,154.5C 359.667,155.5 359.667,156.5 359,157.5C 352.667,163.833 346.333,170.167 340,176.5C 336.298,172.63 332.464,168.963 328.5,165.5C 327.694,164.272 326.694,163.272 325.5,162.5C 330.089,161.931 333.922,163.265 337,166.5C 337.494,168.134 337.66,169.801 337.5,171.5C 340.77,171.321 342.437,169.488 342.5,166C 342.122,164.365 341.456,162.865 340.5,161.5C 338.93,161.694 337.43,161.694 336,161.5C 335.833,161.167 335.667,160.833 335.5,160.5C 336.5,159.833 337.5,159.167 338.5,158.5C 335.851,154.425 337.185,152.425 342.5,152.5C 341.486,149.493 340.486,146.493 339.5,143.5C 339.881,142.069 340.881,141.236 342.5,141C 341.418,139.67 340.751,138.17 340.5,136.5 Z"/></g>
<g><path style="opacity:1" fill="#27e8e1" d="M 339.5,143.5 C 340.486,146.493 341.486,149.493 342.5,152.5C 337.185,152.425 335.851,154.425 338.5,158.5C 337.5,159.167 336.5,159.833 335.5,160.5C 335.667,160.833 335.833,161.167 336,161.5C 337.43,161.694 338.93,161.694 340.5,161.5C 341.456,162.865 342.122,164.365 342.5,166C 342.437,169.488 340.77,171.321 337.5,171.5C 337.66,169.801 337.494,168.134 337,166.5C 333.922,163.265 330.089,161.931 325.5,162.5C 324.489,160.628 323.655,158.628 323,156.5C 320.394,155.401 317.894,154.068 315.5,152.5C 314.614,151.675 314.281,150.675 314.5,149.5C 310.406,149.778 307.072,148.444 304.5,145.5C 304.62,144.414 305.287,143.747 306.5,143.5C 308.944,144.222 311.278,145.222 313.5,146.5C 314.086,146.291 314.586,145.957 315,145.5C 317.552,148.194 318.719,147.527 318.5,143.5C 322.715,143.821 326.215,142.487 329,139.5C 330.205,140.071 331.372,140.738 332.5,141.5C 331.48,143.432 331.313,145.432 332,147.5C 333.011,146.663 334.178,146.33 335.5,146.5C 335.295,143.014 336.629,142.014 339.5,143.5 Z"/></g>
<g><path style="opacity:1" fill="#02262f" d="M 290.5,146.5 C 282.891,145.35 275.224,144.683 267.5,144.5C 262.632,144.202 259.965,144.536 259.5,145.5C 259.5,146.5 259.5,147.5 259.5,148.5C 257.516,148.383 255.85,149.05 254.5,150.5C 256.201,150.19 257.868,150.69 259.5,152C 258.5,152.333 257.5,152.667 256.5,153C 258.167,153.333 259.833,153.667 261.5,154C 260.833,154.333 260.167,154.667 259.5,155C 260.833,155.667 260.833,156.333 259.5,157C 260.167,157.333 260.833,157.667 261.5,158C 259.512,158.18 257.512,158.014 255.5,157.5C 255.5,156.167 255.5,154.833 255.5,153.5C 251.894,153.789 248.394,153.456 245,152.5C 243.731,153.905 243.231,155.571 243.5,157.5C 241.419,156.28 239.419,155.614 237.5,155.5C 235.309,157.353 232.975,157.687 230.5,156.5C 228.491,158.795 226.325,160.128 224,160.5C 222.951,159.483 221.784,159.316 220.5,160C 219.13,161.441 218.13,163.108 217.5,165C 215.779,165.739 214.113,166.573 212.5,167.5C 215.081,168.903 218.081,170.236 221.5,171.5C 218.938,173.97 216.105,173.97 213,171.5C 213.263,172.951 213.096,174.284 212.5,175.5C 210.329,175.273 208.162,174.94 206,174.5C 205.261,176.221 204.427,177.887 203.5,179.5C 202.139,179.788 200.806,180.121 199.5,180.5C 203.388,174.27 208.055,168.604 213.5,163.5C 215.404,163.262 216.738,162.262 217.5,160.5C 224.58,155.961 231.913,151.961 239.5,148.5C 256.387,142.643 273.387,141.977 290.5,146.5 Z"/></g>
<g><path style="opacity:1" fill="#01202b" d="M 290.5,146.5 C 289.791,147.404 288.791,147.737 287.5,147.5C 287.5,148.5 287.5,149.5 287.5,150.5C 294.538,149.733 299.871,152.233 303.5,158C 303.167,158.333 302.833,158.667 302.5,159C 296.144,159.128 289.81,158.628 283.5,157.5C 279.716,157.907 276.049,158.741 272.5,160C 273.624,160.249 274.624,160.749 275.5,161.5C 273.236,162.038 270.903,161.704 268.5,160.5C 267.522,160.977 266.689,161.643 266,162.5C 264.984,161.366 264.317,161.699 264,163.5C 261.46,162.457 259.126,161.791 257,161.5C 254.838,163.496 252.338,164.83 249.5,165.5C 247.623,164.375 245.79,164.709 244,166.5C 240.608,165.3 236.775,165.3 232.5,166.5C 231.749,165.624 231.249,164.624 231,163.5C 228.023,166.381 226.689,169.714 227,173.5C 225.556,171.845 223.722,171.178 221.5,171.5C 218.081,170.236 215.081,168.903 212.5,167.5C 214.113,166.573 215.779,165.739 217.5,165C 218.13,163.108 219.13,161.441 220.5,160C 221.784,159.316 222.951,159.483 224,160.5C 226.325,160.128 228.491,158.795 230.5,156.5C 232.975,157.687 235.309,157.353 237.5,155.5C 239.419,155.614 241.419,156.28 243.5,157.5C 243.231,155.571 243.731,153.905 245,152.5C 248.394,153.456 251.894,153.789 255.5,153.5C 255.5,154.833 255.5,156.167 255.5,157.5C 257.512,158.014 259.512,158.18 261.5,158C 260.833,157.667 260.167,157.333 259.5,157C 260.833,156.333 260.833,155.667 259.5,155C 260.167,154.667 260.833,154.333 261.5,154C 259.833,153.667 258.167,153.333 256.5,153C 257.5,152.667 258.5,152.333 259.5,152C 257.868,150.69 256.201,150.19 254.5,150.5C 255.85,149.05 257.516,148.383 259.5,148.5C 259.5,147.5 259.5,146.5 259.5,145.5C 259.965,144.536 262.632,144.202 267.5,144.5C 275.224,144.683 282.891,145.35 290.5,146.5 Z"/></g>
<g><path style="opacity:1" fill="#30e3df" d="M 216.5,126.5 C 216.119,127.931 215.119,128.764 213.5,129C 213.833,129.333 214.167,129.667 214.5,130C 207.954,133.274 202.287,137.608 197.5,143C 197.833,145.333 198.167,147.667 198.5,150C 197.692,150.308 197.025,150.808 196.5,151.5C 197.5,152.167 198.5,152.833 199.5,153.5C 198.975,154.192 198.308,154.692 197.5,155C 200.334,155.045 202.834,155.879 205,157.5C 206.309,155.109 207.309,155.109 208,157.5C 209.503,154.784 211.503,153.451 214,153.5C 213.208,155.846 213.375,158.179 214.5,160.5C 215.5,160.5 216.5,160.5 217.5,160.5C 216.738,162.262 215.404,163.262 213.5,163.5C 213.649,162.448 213.483,161.448 213,160.5C 211.247,161.627 209.413,162.627 207.5,163.5C 207.167,162.167 206.833,160.833 206.5,159.5C 203.778,161.325 203.111,163.658 204.5,166.5C 203.406,168.836 202.073,168.836 200.5,166.5C 199.305,168.297 197.638,169.297 195.5,169.5C 196.088,165.994 197.922,163.327 201,161.5C 198.84,156.203 195.173,155.203 190,158.5C 189.692,157.692 189.192,157.025 188.5,156.5C 188.891,157.718 188.224,158.552 186.5,159C 187.337,160.011 187.67,161.178 187.5,162.5C 185.5,162.5 183.5,162.5 181.5,162.5C 181.719,161.325 181.386,160.325 180.5,159.5C 178.309,160.881 176.976,162.881 176.5,165.5C 175.583,166.127 174.583,166.461 173.5,166.5C 173.5,166.167 173.5,165.833 173.5,165.5C 178.883,157.939 184.883,150.772 191.5,144C 198.842,136.67 207.176,130.836 216.5,126.5 Z"/></g>
<g><path style="opacity:1" fill="#082630" d="M 290.5,146.5 C 303.31,149.406 314.977,154.74 325.5,162.5C 326.694,163.272 327.694,164.272 328.5,165.5C 326.774,165.815 325.107,165.981 323.5,166C 323.766,161.305 322.1,160.638 318.5,164C 314.704,164.924 311.038,165.258 307.5,165C 310.246,166.75 313.246,167.75 316.5,168C 314.173,169.815 311.673,169.982 309,168.5C 305.952,169.001 303.452,170.334 301.5,172.5C 282.11,163.988 262.443,163.322 242.5,170.5C 243.552,168.744 245.219,168.077 247.5,168.5C 247.285,166.821 247.952,165.821 249.5,165.5C 252.338,164.83 254.838,163.496 257,161.5C 259.126,161.791 261.46,162.457 264,163.5C 264.317,161.699 264.984,161.366 266,162.5C 266.689,161.643 267.522,160.977 268.5,160.5C 270.903,161.704 273.236,162.038 275.5,161.5C 274.624,160.749 273.624,160.249 272.5,160C 276.049,158.741 279.716,157.907 283.5,157.5C 289.81,158.628 296.144,159.128 302.5,159C 302.833,158.667 303.167,158.333 303.5,158C 299.871,152.233 294.538,149.733 287.5,150.5C 287.5,149.5 287.5,148.5 287.5,147.5C 288.791,147.737 289.791,147.404 290.5,146.5 Z"/></g>
<g><path style="opacity:1" fill="#09252f" d="M 375.5,141.5 C 382.098,146.087 386.765,152.087 389.5,159.5C 386.365,166.314 381.698,171.98 375.5,176.5C 374.127,176.343 372.793,176.51 371.5,177C 370.167,177.667 370.167,178.333 371.5,179C 367.558,179.376 365.891,181.542 366.5,185.5C 359.671,193.162 352.338,200.329 344.5,207C 342.833,207.667 341.167,207.667 339.5,207C 335.99,203.657 332.657,200.157 329.5,196.5C 333.395,196.777 337.062,197.11 340.5,197.5C 342.915,197.281 343.915,195.948 343.5,193.5C 348.723,193.795 349.723,191.962 346.5,188C 347.635,187.251 348.635,187.417 349.5,188.5C 348.185,189.895 348.519,190.895 350.5,191.5C 352.286,189.979 354.119,189.646 356,190.5C 357.507,188.992 359.173,187.659 361,186.5C 359.162,183.121 356.995,179.787 354.5,176.5C 355,176.167 355.5,175.833 356,175.5C 358.257,176.711 360.424,178.044 362.5,179.5C 365.191,176.982 368.191,174.815 371.5,173C 369.087,172.516 366.754,172.85 364.5,174C 364.833,174.333 365.167,174.667 365.5,175C 364.128,175.402 362.795,175.902 361.5,176.5C 360.092,174.856 358.258,173.522 356,172.5C 353.205,173.185 350.372,173.685 347.5,174C 345.084,174.661 343.418,176.161 342.5,178.5C 341.311,179.429 339.978,179.762 338.5,179.5C 337.238,176.929 335.905,176.929 334.5,179.5C 332.679,177.757 330.679,176.257 328.5,175C 329.685,173.647 331.019,172.48 332.5,171.5C 331.653,170.155 330.487,169.155 329,168.5C 328.517,167.552 328.351,166.552 328.5,165.5C 332.464,168.963 336.298,172.63 340,176.5C 346.333,170.167 352.667,163.833 359,157.5C 359.667,156.5 359.667,155.5 359,154.5C 357.624,153.295 356.458,151.962 355.5,150.5C 358.946,151.612 360.946,153.945 361.5,157.5C 363.103,157.312 364.437,157.812 365.5,159C 364.105,161.075 364.438,162.908 366.5,164.5C 363.412,165.079 360.745,166.413 358.5,168.5C 359.728,170.321 361.394,171.321 363.5,171.5C 363.343,170.127 363.51,168.793 364,167.5C 366.179,169.637 368.679,169.971 371.5,168.5C 371.759,165.203 371.426,161.87 370.5,158.5C 372.199,158.66 373.866,158.494 375.5,158C 374.304,157.346 374.304,156.846 375.5,156.5C 376.386,157.325 376.719,158.325 376.5,159.5C 375.167,159.5 373.833,159.5 372.5,159.5C 372.337,161.857 372.503,164.19 373,166.5C 376.079,166.449 379.246,165.783 382.5,164.5C 384.341,162.015 384.674,159.515 383.5,157C 384.357,156.311 385.023,155.478 385.5,154.5C 380.951,150.969 377.617,146.636 375.5,141.5 Z"/></g>
<g><path style="opacity:1" fill="#02212c" d="M 177.5,157.5 C 174.873,159.452 173.54,162.119 173.5,165.5C 173.5,165.833 173.5,166.167 173.5,166.5C 171.975,168.216 170.975,170.216 170.5,172.5C 169.167,173.833 167.833,175.167 166.5,176.5C 165.577,175.697 164.577,175.53 163.5,176C 163.833,176.333 164.167,176.667 164.5,177C 162.862,179.133 162.029,181.633 162,184.5C 161.105,181.439 159.271,181.272 156.5,184C 158,186.167 159.167,186 160,183.5C 160.49,184.793 160.657,186.127 160.5,187.5C 155.03,189.612 149.363,189.945 143.5,188.5C 143.291,187.914 142.957,187.414 142.5,187C 143.264,184.931 143.764,182.764 144,180.5C 144.667,179.167 145.667,178.167 147,177.5C 147.192,175.423 147.692,173.423 148.5,171.5C 153.192,166.794 155.858,161.127 156.5,154.5C 159.436,148.959 163.103,143.959 167.5,139.5C 168.873,139.657 170.207,139.49 171.5,139C 173.539,136.626 175.872,134.626 178.5,133C 179.833,132 179.833,131 178.5,130C 180.403,129.226 182.07,129.56 183.5,131C 179.903,133.175 180.569,134.342 185.5,134.5C 185.5,136.167 185.5,137.833 185.5,139.5C 183.058,139.354 182.391,140.187 183.5,142C 182.062,142.219 180.729,142.719 179.5,143.5C 178.826,145.517 177.659,147.183 176,148.5C 176.504,150.862 176.337,153.195 175.5,155.5C 175.747,156.713 176.414,157.38 177.5,157.5 Z"/></g>
<g><path style="opacity:1" fill="#2ce5e0" d="M 213.5,163.5 C 208.055,168.604 203.388,174.27 199.5,180.5C 195.901,186.034 192.568,191.701 189.5,197.5C 187.031,196.393 186.031,194.393 186.5,191.5C 185.5,191.5 184.5,191.5 183.5,191.5C 183.389,190.883 183.056,190.383 182.5,190C 184.057,187.212 185.057,184.212 185.5,181C 185.695,178.648 185.028,176.648 183.5,175C 184.667,173.167 186.167,171.667 188,170.5C 188.18,168.512 188.014,166.512 187.5,164.5C 186.127,164.343 184.793,164.51 183.5,165C 183.589,166.716 183.256,168.549 182.5,170.5C 180.659,171.23 178.825,171.897 177,172.5C 175.81,175.346 174.643,178.179 173.5,181C 174.867,184.077 175.367,187.244 175,190.5C 173.812,189.437 173.312,188.103 173.5,186.5C 172.167,186.5 170.833,186.5 169.5,186.5C 169.5,188.167 169.5,189.833 169.5,191.5C 168.167,191.5 166.833,191.5 165.5,191.5C 165.741,193.898 165.074,195.898 163.5,197.5C 164.652,193.835 164.819,190.169 164,186.5C 166.75,182.206 168.917,177.539 170.5,172.5C 170.975,170.216 171.975,168.216 173.5,166.5C 174.583,166.461 175.583,166.127 176.5,165.5C 176.976,162.881 178.309,160.881 180.5,159.5C 181.386,160.325 181.719,161.325 181.5,162.5C 183.5,162.5 185.5,162.5 187.5,162.5C 187.67,161.178 187.337,160.011 186.5,159C 188.224,158.552 188.891,157.718 188.5,156.5C 189.192,157.025 189.692,157.692 190,158.5C 195.173,155.203 198.84,156.203 201,161.5C 197.922,163.327 196.088,165.994 195.5,169.5C 197.638,169.297 199.305,168.297 200.5,166.5C 202.073,168.836 203.406,168.836 204.5,166.5C 203.111,163.658 203.778,161.325 206.5,159.5C 206.833,160.833 207.167,162.167 207.5,163.5C 209.413,162.627 211.247,161.627 213,160.5C 213.483,161.448 213.649,162.448 213.5,163.5 Z"/></g>
<g><path style="opacity:1" fill="#28e8e0" d="M 183.5,191.5 C 181.3,193.262 180.133,195.596 180,198.5C 178.229,196.416 176.896,194.082 176,191.5C 175.782,194.426 175.282,197.26 174.5,200C 176.211,201.133 176.711,202.633 176,204.5C 174.768,201.77 173.935,201.937 173.5,205C 173.594,207.954 174.094,208.121 175,205.5C 175.383,206.056 175.883,206.389 176.5,206.5C 177.686,208.194 177.519,209.861 176,211.5C 172.055,210.968 168.722,209.302 166,206.5C 165.599,203.301 164.766,200.301 163.5,197.5C 165.074,195.898 165.741,193.898 165.5,191.5C 166.833,191.5 168.167,191.5 169.5,191.5C 169.5,189.833 169.5,188.167 169.5,186.5C 170.833,186.5 172.167,186.5 173.5,186.5C 173.312,188.103 173.812,189.437 175,190.5C 175.367,187.244 174.867,184.077 173.5,181C 174.643,178.179 175.81,175.346 177,172.5C 178.825,171.897 180.659,171.23 182.5,170.5C 183.256,168.549 183.589,166.716 183.5,165C 184.793,164.51 186.127,164.343 187.5,164.5C 188.014,166.512 188.18,168.512 188,170.5C 186.167,171.667 184.667,173.167 183.5,175C 185.028,176.648 185.695,178.648 185.5,181C 185.057,184.212 184.057,187.212 182.5,190C 183.056,190.383 183.389,190.883 183.5,191.5 Z"/></g>
<g><path style="opacity:1" fill="#05222d" d="M 249.5,165.5 C 247.952,165.821 247.285,166.821 247.5,168.5C 245.219,168.077 243.552,168.744 242.5,170.5C 222.259,181.756 209.592,198.756 204.5,221.5C 197.833,221.5 191.167,221.5 184.5,221.5C 184.906,213.213 186.573,205.213 189.5,197.5C 192.568,191.701 195.901,186.034 199.5,180.5C 200.806,180.121 202.139,179.788 203.5,179.5C 204.427,177.887 205.261,176.221 206,174.5C 208.162,174.94 210.329,175.273 212.5,175.5C 213.096,174.284 213.263,172.951 213,171.5C 216.105,173.97 218.938,173.97 221.5,171.5C 223.722,171.178 225.556,171.845 227,173.5C 226.689,169.714 228.023,166.381 231,163.5C 231.249,164.624 231.749,165.624 232.5,166.5C 236.775,165.3 240.608,165.3 244,166.5C 245.79,164.709 247.623,164.375 249.5,165.5 Z"/></g>
<g><path style="opacity:1" fill="#05222d" d="M 328.5,165.5 C 328.351,166.552 328.517,167.552 329,168.5C 330.487,169.155 331.653,170.155 332.5,171.5C 331.019,172.48 329.685,173.647 328.5,175C 330.679,176.257 332.679,177.757 334.5,179.5C 335.905,176.929 337.238,176.929 338.5,179.5C 335.825,181.376 336.158,182.876 339.5,184C 336.167,184.333 332.833,184.667 329.5,185C 332.877,185.452 336.211,186.118 339.5,187C 338.742,188.364 339.242,189.531 341,190.5C 342.385,189.449 343.385,188.116 344,186.5C 344.667,188.167 344.667,189.833 344,191.5C 341.583,192.352 339.083,193.019 336.5,193.5C 335.353,193.182 334.519,192.516 334,191.5C 332.887,192.711 331.72,192.711 330.5,191.5C 328.054,192.983 328.388,194.149 331.5,195C 330.584,195.278 329.918,195.778 329.5,196.5C 321.664,186.657 312.33,178.657 301.5,172.5C 303.452,170.334 305.952,169.001 309,168.5C 311.673,169.982 314.173,169.815 316.5,168C 313.246,167.75 310.246,166.75 307.5,165C 311.038,165.258 314.704,164.924 318.5,164C 322.1,160.638 323.766,161.305 323.5,166C 325.107,165.981 326.774,165.815 328.5,165.5 Z"/></g>
<g><path style="opacity:1" fill="#011f2b" d="M 329.5,196.5 C 329.918,195.778 330.584,195.278 331.5,195C 328.388,194.149 328.054,192.983 330.5,191.5C 331.72,192.711 332.887,192.711 334,191.5C 334.519,192.516 335.353,193.182 336.5,193.5C 339.083,193.019 341.583,192.352 344,191.5C 344.667,189.833 344.667,188.167 344,186.5C 343.385,188.116 342.385,189.449 341,190.5C 339.242,189.531 338.742,188.364 339.5,187C 336.211,186.118 332.877,185.452 329.5,185C 332.833,184.667 336.167,184.333 339.5,184C 336.158,182.876 335.825,181.376 338.5,179.5C 339.978,179.762 341.311,179.429 342.5,178.5C 343.418,176.161 345.084,174.661 347.5,174C 350.372,173.685 353.205,173.185 356,172.5C 358.258,173.522 360.092,174.856 361.5,176.5C 362.795,175.902 364.128,175.402 365.5,175C 365.167,174.667 364.833,174.333 364.5,174C 366.754,172.85 369.087,172.516 371.5,173C 368.191,174.815 365.191,176.982 362.5,179.5C 360.424,178.044 358.257,176.711 356,175.5C 355.5,175.833 355,176.167 354.5,176.5C 356.995,179.787 359.162,183.121 361,186.5C 359.173,187.659 357.507,188.992 356,190.5C 354.119,189.646 352.286,189.979 350.5,191.5C 348.519,190.895 348.185,189.895 349.5,188.5C 348.635,187.417 347.635,187.251 346.5,188C 349.723,191.962 348.723,193.795 343.5,193.5C 343.915,195.948 342.915,197.281 340.5,197.5C 337.062,197.11 333.395,196.777 329.5,196.5 Z"/></g>
<g><path style="opacity:1" fill="#394b50" d="M 375.5,176.5 C 372.833,179.833 369.833,182.833 366.5,185.5C 365.891,181.542 367.558,179.376 371.5,179C 370.167,178.333 370.167,177.667 371.5,177C 372.793,176.51 374.127,176.343 375.5,176.5 Z"/></g>
<g><path style="opacity:1" fill="#45dddb" d="M 170.5,172.5 C 168.917,177.539 166.75,182.206 164,186.5C 164.819,190.169 164.652,193.835 163.5,197.5C 161.715,197.926 160.715,199.092 160.5,201C 161.763,202.991 163.097,204.991 164.5,207C 162.457,207.93 160.624,208.43 159,208.5C 158.262,212.71 158.428,216.876 159.5,221C 158.129,223.319 157.462,225.819 157.5,228.5C 158.822,228.67 159.989,228.337 161,227.5C 161.333,228.833 161.667,230.167 162,231.5C 167.748,226.178 174.581,223.178 182.5,222.5C 182.665,219.15 182.498,215.817 182,212.5C 180.334,213.34 180.167,212.84 181.5,211C 179.845,209.556 179.178,207.722 179.5,205.5C 178.209,205.263 177.209,205.596 176.5,206.5C 175.883,206.389 175.383,206.056 175,205.5C 174.094,208.121 173.594,207.954 173.5,205C 173.935,201.937 174.768,201.77 176,204.5C 176.711,202.633 176.211,201.133 174.5,200C 175.282,197.26 175.782,194.426 176,191.5C 176.896,194.082 178.229,196.416 180,198.5C 180.133,195.596 181.3,193.262 183.5,191.5C 184.5,191.5 185.5,191.5 186.5,191.5C 186.031,194.393 187.031,196.393 189.5,197.5C 186.573,205.213 184.906,213.213 184.5,221.5C 191.167,221.5 197.833,221.5 204.5,221.5C 184.924,219.946 168.258,226.28 154.5,240.5C 154.268,228.8 154.768,217.134 156,205.5C 158.618,195.477 162.118,185.81 166.5,176.5C 167.833,175.167 169.167,173.833 170.5,172.5 Z"/></g>
<g><path style="opacity:1" fill="#08252f" d="M 156.5,154.5 C 155.858,161.127 153.192,166.794 148.5,171.5C 147.692,173.423 147.192,175.423 147,177.5C 145.667,178.167 144.667,179.167 144,180.5C 143.764,182.764 143.264,184.931 142.5,187C 142.957,187.414 143.291,187.914 143.5,188.5C 149.363,189.945 155.03,189.612 160.5,187.5C 160.657,186.127 160.49,184.793 160,183.5C 159.167,186 158,186.167 156.5,184C 159.271,181.272 161.105,181.439 162,184.5C 162.029,181.633 162.862,179.133 164.5,177C 164.167,176.667 163.833,176.333 163.5,176C 164.577,175.53 165.577,175.697 166.5,176.5C 162.118,185.81 158.618,195.477 156,205.5C 154.768,217.134 154.268,228.8 154.5,240.5C 150.878,246.08 148.044,252.08 146,258.5C 142.781,259.793 139.781,261.46 137,263.5C 134.632,255.023 133.465,246.357 133.5,237.5C 134.222,237.918 134.722,238.584 135,239.5C 135.333,239.167 135.667,238.833 136,238.5C 136.552,241.047 137.886,243.047 140,244.5C 140.333,243.167 140.667,241.833 141,240.5C 142.673,243.929 145.173,244.929 148.5,243.5C 148.98,240.995 149.98,238.662 151.5,236.5C 148.972,235.483 148.972,234.316 151.5,233C 150.28,231.475 149.613,229.641 149.5,227.5C 150.244,218.8 150.91,209.966 151.5,201C 150.07,199.56 148.403,199.226 146.5,200C 146.5,201.667 146.5,203.333 146.5,205C 145.975,205.692 145.308,206.192 144.5,206.5C 143.138,204.988 142.804,203.488 143.5,202C 142.5,201.667 141.5,201.333 140.5,201C 141.34,199.334 140.84,199.167 139,200.5C 138.545,203.781 137.711,206.948 136.5,210C 136.517,214.154 136.683,218.32 137,222.5C 135.806,224.623 135.14,226.957 135,229.5C 134.817,226.635 134.317,223.969 133.5,221.5C 134.616,196.817 142.282,174.483 156.5,154.5 Z"/></g>
<g><path style="opacity:1" fill="#01202c" d="M 133.5,237.5 C 133.5,232.167 133.5,226.833 133.5,221.5C 134.317,223.969 134.817,226.635 135,229.5C 135.14,226.957 135.806,224.623 137,222.5C 136.683,218.32 136.517,214.154 136.5,210C 137.711,206.948 138.545,203.781 139,200.5C 140.84,199.167 141.34,199.334 140.5,201C 141.5,201.333 142.5,201.667 143.5,202C 142.804,203.488 143.138,204.988 144.5,206.5C 145.308,206.192 145.975,205.692 146.5,205C 146.5,203.333 146.5,201.667 146.5,200C 148.403,199.226 150.07,199.56 151.5,201C 150.91,209.966 150.244,218.8 149.5,227.5C 149.613,229.641 150.28,231.475 151.5,233C 148.972,234.316 148.972,235.483 151.5,236.5C 149.98,238.662 148.98,240.995 148.5,243.5C 145.173,244.929 142.673,243.929 141,240.5C 140.667,241.833 140.333,243.167 140,244.5C 137.886,243.047 136.552,241.047 136,238.5C 135.667,238.833 135.333,239.167 135,239.5C 134.722,238.584 134.222,237.918 133.5,237.5 Z"/></g>
<g><path style="opacity:1" fill="#2be7e0" d="M 163.5,197.5 C 164.766,200.301 165.599,203.301 166,206.5C 168.722,209.302 172.055,210.968 176,211.5C 177.519,209.861 177.686,208.194 176.5,206.5C 177.209,205.596 178.209,205.263 179.5,205.5C 179.178,207.722 179.845,209.556 181.5,211C 180.167,212.84 180.334,213.34 182,212.5C 182.498,215.817 182.665,219.15 182.5,222.5C 174.581,223.178 167.748,226.178 162,231.5C 161.667,230.167 161.333,228.833 161,227.5C 159.989,228.337 158.822,228.67 157.5,228.5C 157.462,225.819 158.129,223.319 159.5,221C 158.428,216.876 158.262,212.71 159,208.5C 160.624,208.43 162.457,207.93 164.5,207C 163.097,204.991 161.763,202.991 160.5,201C 160.715,199.092 161.715,197.926 163.5,197.5 Z"/></g>
<g><path style="opacity:1" fill="#142b34" d="M 250.5,237.5 C 246.917,237.908 243.583,239.075 240.5,241C 241.252,241.671 241.586,242.504 241.5,243.5C 238.443,242.367 235.443,241.367 232.5,240.5C 234.199,240.66 235.866,240.494 237.5,240C 236.359,239.259 236.359,238.425 237.5,237.5C 236.069,232.858 234.069,228.524 231.5,224.5C 229.561,226.122 229.228,227.956 230.5,230C 229.167,231 227.833,232 226.5,233C 212.92,231.779 199.253,231.279 185.5,231.5C 198.66,230.669 211.994,230.169 225.5,230C 228.375,225.083 231.375,220.249 234.5,215.5C 230.053,204.807 233.387,198.14 244.5,195.5C 256.594,197.603 260.094,204.269 255,215.5C 251.562,218.154 247.729,220.154 243.5,221.5C 241.58,224.339 239.913,227.339 238.5,230.5C 242.495,232.831 246.495,235.165 250.5,237.5 Z"/></g>
<g><path style="opacity:1" fill="#01202c" d="M 248.5,201.5 C 249.306,202.868 250.306,204.201 251.5,205.5C 250.5,206.333 249.5,207.167 248.5,208C 250.085,208.085 251.418,208.251 252.5,208.5C 252.023,209.478 251.357,210.311 250.5,211C 252.807,211.354 253.141,212.354 251.5,214C 251.095,214.945 250.428,215.612 249.5,216C 247.343,216.078 245.343,216.245 243.5,216.5C 242.749,217.376 242.249,218.376 242,219.5C 241.346,218.304 240.846,218.304 240.5,219.5C 242.693,221.382 242.027,221.882 238.5,221C 237.833,219.667 236.833,218.667 235.5,218C 236.615,215.899 236.615,213.733 235.5,211.5C 236.743,209.309 237.576,206.976 238,204.5C 240.534,203.48 243.367,203.48 246.5,204.5C 247.919,203.995 248.585,202.995 248.5,201.5 Z"/></g>
<g><path style="opacity:1" fill="#112a36" d="M 232.5,240.5 C 216.177,241.233 199.844,241.566 183.5,241.5C 182.503,241.53 181.836,241.03 181.5,240C 181.892,238.989 182.559,238.489 183.5,238.5C 183.306,236.737 183.306,234.903 183.5,233C 182.906,232.536 182.239,232.369 181.5,232.5C 182.568,231.566 183.901,231.232 185.5,231.5C 199.253,231.279 212.92,231.779 226.5,233C 227.833,232 229.167,231 230.5,230C 229.228,227.956 229.561,226.122 231.5,224.5C 234.069,228.524 236.069,232.858 237.5,237.5C 236.359,238.425 236.359,239.259 237.5,240C 235.866,240.494 234.199,240.66 232.5,240.5 Z"/></g>
<g><path style="opacity:1" fill="#0b252f" d="M 250.5,237.5 C 257.283,241.454 262.116,247.12 265,254.5C 266.562,258.014 267.395,261.681 267.5,265.5C 277.076,267.079 282.076,272.745 282.5,282.5C 282.076,292.255 277.076,297.921 267.5,299.5C 267.737,300.791 267.404,301.791 266.5,302.5C 265.82,297.003 268.154,293.836 273.5,293C 273.167,292.667 272.833,292.333 272.5,292C 275.006,290.484 275.84,288.318 275,285.5C 274.722,286.416 274.222,287.082 273.5,287.5C 273.802,284.941 273.468,282.607 272.5,280.5C 269.345,275.057 267.678,275.39 267.5,281.5C 266.833,283.5 266.167,285.5 265.5,287.5C 263.934,281.616 263.268,275.616 263.5,269.5C 262.325,269.719 261.325,269.386 260.5,268.5C 260.058,267.261 259.391,266.261 258.5,265.5C 257.583,260.999 255.583,256.999 252.5,253.5C 249.431,249.428 245.765,246.094 241.5,243.5C 241.586,242.504 241.252,241.671 240.5,241C 243.583,239.075 246.917,237.908 250.5,237.5 Z M 272.5,280.5 C 272.5,281.167 272.5,281.833 272.5,282.5C 270.836,283.223 269.169,282.89 267.5,281.5C 267.678,275.39 269.345,275.057 272.5,280.5 Z"/></g>
<g><path style="opacity:1" fill="#0f2833" d="M 181.5,232.5 C 182.239,232.369 182.906,232.536 183.5,233C 183.306,234.903 183.306,236.737 183.5,238.5C 182.559,238.489 181.892,238.989 181.5,240C 181.836,241.03 182.503,241.53 183.5,241.5C 173.128,245.54 166.128,252.873 162.5,263.5C 161.744,261.387 161.577,259.387 162,257.5C 161.085,258.328 160.419,259.328 160,260.5C 159.333,259.167 158.667,257.833 158,256.5C 157.568,259.072 156.068,260.406 153.5,260.5C 157.181,245.486 166.514,236.153 181.5,232.5 Z"/></g>
<g><path style="opacity:1" fill="#0a2430" d="M 236.5,249.5 C 236.703,251.044 237.37,252.378 238.5,253.5C 237.833,253.833 237.167,254.167 236.5,254.5C 236.833,255.167 237.167,255.833 237.5,256.5C 240.126,257.293 241.96,258.96 243,261.5C 243.667,260.167 244.333,260.167 245,261.5C 245.825,265.211 245.659,268.878 244.5,272.5C 243.465,268.402 241.465,265.069 238.5,262.5C 235.806,260.486 232.806,258.986 229.5,258C 216.504,257.5 203.504,257.333 190.5,257.5C 189.739,256.609 188.739,255.942 187.5,255.5C 185.028,256.992 182.361,257.658 179.5,257.5C 180.382,254.615 181.716,251.948 183.5,249.5C 184.766,248.91 186.099,248.41 187.5,248C 202.5,247.333 217.5,247.333 232.5,248C 233.901,248.41 235.234,248.91 236.5,249.5 Z"/></g>
<g><path style="opacity:1" fill="#ecc773" d="M 239.5,266.5 C 240.338,266.842 240.672,267.508 240.5,268.5C 240.826,276.684 240.492,284.684 239.5,292.5C 239.712,287.557 238.712,286.89 236.5,290.5C 234.677,291.747 232.677,292.414 230.5,292.5C 228.585,292.784 226.919,292.451 225.5,291.5C 227.857,291.663 230.19,291.497 232.5,291C 233.942,290.623 234.942,289.79 235.5,288.5C 235.5,288.167 235.5,287.833 235.5,287.5C 238.053,284.621 238.053,281.621 235.5,278.5C 236.583,278.539 237.583,278.873 238.5,279.5C 240.496,275.313 239.496,272.313 235.5,270.5C 233.273,265.409 229.273,262.909 223.5,263C 213.172,262.5 202.839,262.334 192.5,262.5C 189.622,264.351 186.622,266.018 183.5,267.5C 184.767,263.743 187.434,261.576 191.5,261C 204.89,260.076 218.223,260.409 231.5,262C 235.039,263.907 237.539,266.74 239,270.5C 239.49,269.207 239.657,267.873 239.5,266.5 Z"/></g>
<g><path style="opacity:1" fill="#05222d" d="M 370.5,280.5 C 370.769,282.429 370.269,284.095 369,285.5C 367.667,284.167 366.333,284.167 365,285.5C 364.516,287.193 365.016,288.527 366.5,289.5C 362.729,290.786 359.729,292.452 357.5,294.5C 358.374,296.969 359.708,299.135 361.5,301C 361.167,301.333 360.833,301.667 360.5,302C 361.793,302.49 363.127,302.657 364.5,302.5C 364.773,305.137 365.106,307.47 365.5,309.5C 363.587,310.051 361.587,310.218 359.5,310C 356.757,312.366 353.757,314.2 350.5,315.5C 353.626,312.2 356.626,308.7 359.5,305C 353.305,298.307 347.305,291.473 341.5,284.5C 339.466,283.875 337.466,283.541 335.5,283.5C 338.101,280.418 341.268,277.751 345,275.5C 347.438,276.966 349.605,276.632 351.5,274.5C 347.864,271.701 344.364,268.701 341,265.5C 338.268,267.244 338.101,269.411 340.5,272C 338.578,273.42 337.245,275.253 336.5,277.5C 335.686,275.234 335.186,272.9 335,270.5C 334.268,268.077 332.768,266.91 330.5,267C 331.5,268 332.5,269 333.5,270C 332.833,270.333 332.167,270.667 331.5,271C 332.257,272.512 333.257,273.846 334.5,275C 333.62,276.356 333.286,277.856 333.5,279.5C 331.738,279.357 330.071,279.691 328.5,280.5C 326.19,278.101 323.69,276.767 321,276.5C 318.855,280.152 315.689,281.818 311.5,281.5C 320.573,272.97 329.573,264.136 338.5,255C 340.833,254.333 343.167,254.333 345.5,255C 354.036,263.368 362.369,271.868 370.5,280.5 Z"/></g>
<g><path style="opacity:1" fill="#fabc40" d="M 192.5,262.5 C 202.839,262.334 213.172,262.5 223.5,263C 229.273,262.909 233.273,265.409 235.5,270.5C 239.496,272.313 240.496,275.313 238.5,279.5C 237.583,278.873 236.583,278.539 235.5,278.5C 231.899,275.509 227.899,274.843 223.5,276.5C 219.972,277.378 218.306,279.712 218.5,283.5C 218.716,285.384 219.383,287.051 220.5,288.5C 220,288.833 219.5,289.167 219,289.5C 214.02,289.055 209.187,288.055 204.5,286.5C 203.833,286.833 203.167,287.167 202.5,287.5C 201.386,286.277 201.219,284.944 202,283.5C 203.117,282.051 203.784,280.384 204,278.5C 204.654,279.696 205.154,279.696 205.5,278.5C 203.668,277.752 202.001,276.752 200.5,275.5C 199.808,276.025 199.308,276.692 199,277.5C 197.577,275.655 196.41,273.655 195.5,271.5C 194.452,272.383 193.285,273.05 192,273.5C 190.144,272.264 188.311,272.264 186.5,273.5C 185.637,271.229 185.637,268.895 186.5,266.5C 189.969,267.113 191.969,265.779 192.5,262.5 Z"/></g>
<g><path style="opacity:1" fill="#07242d" d="M 236.5,249.5 C 240.082,251.12 243.082,253.453 245.5,256.5C 247.172,259.022 248.672,261.688 250,264.5C 250.667,275.167 250.667,285.833 250,296.5C 248.193,302.453 244.693,307.119 239.5,310.5C 239.241,307.52 240.574,305.687 243.5,305C 240.833,304.333 240.833,303.667 243.5,303C 243.167,302.667 242.833,302.333 242.5,302C 244.787,299.952 244.954,297.785 243,295.5C 242.517,296.448 242.351,297.448 242.5,298.5C 241.5,298.5 240.5,298.5 239.5,298.5C 239.5,297.833 239.5,297.167 239.5,296.5C 240.268,295.737 240.768,294.737 241,293.5C 241.823,284.99 241.657,276.656 240.5,268.5C 240.672,267.508 240.338,266.842 239.5,266.5C 238.766,265.292 238.433,263.959 238.5,262.5C 241.465,265.069 243.465,268.402 244.5,272.5C 245.659,268.878 245.825,265.211 245,261.5C 244.333,260.167 243.667,260.167 243,261.5C 241.96,258.96 240.126,257.293 237.5,256.5C 237.167,255.833 236.833,255.167 236.5,254.5C 237.167,254.167 237.833,253.833 238.5,253.5C 237.37,252.378 236.703,251.044 236.5,249.5 Z"/></g>
<g><path style="opacity:1" fill="#ebd288" d="M 178.5,269.5 C 179.833,270.833 181.167,270.833 182.5,269.5C 182.315,271.196 181.481,272.529 180,273.5C 179.5,280.492 179.334,287.492 179.5,294.5C 178.507,286.35 178.174,278.017 178.5,269.5 Z"/></g>
<g><path style="opacity:1" fill="#efbb4d" d="M 192.5,262.5 C 191.969,265.779 189.969,267.113 186.5,266.5C 185.637,268.895 185.637,271.229 186.5,273.5C 188.311,272.264 190.144,272.264 192,273.5C 193.285,273.05 194.452,272.383 195.5,271.5C 196.41,273.655 197.577,275.655 199,277.5C 199.308,276.692 199.808,276.025 200.5,275.5C 202.001,276.752 203.668,277.752 205.5,278.5C 205.154,279.696 204.654,279.696 204,278.5C 203.784,280.384 203.117,282.051 202,283.5C 201.219,284.944 201.386,286.277 202.5,287.5C 203.167,287.167 203.833,286.833 204.5,286.5C 209.187,288.055 214.02,289.055 219,289.5C 219.5,289.167 220,288.833 220.5,288.5C 219.383,287.051 218.716,285.384 218.5,283.5C 218.306,279.712 219.972,277.378 223.5,276.5C 220.284,280.132 219.784,284.132 222,288.5C 222.816,289.823 223.983,290.489 225.5,290.5C 225.5,290.833 225.5,291.167 225.5,291.5C 226.919,292.451 228.585,292.784 230.5,292.5C 229.791,293.404 228.791,293.737 227.5,293.5C 227.762,294.978 227.429,296.311 226.5,297.5C 225.15,296.05 223.484,295.383 221.5,295.5C 221.762,294.022 221.429,292.689 220.5,291.5C 219.833,293.833 219.167,296.167 218.5,298.5C 217.264,297.754 215.93,297.421 214.5,297.5C 215.122,296.373 215.955,295.373 217,294.5C 217.667,293.167 217.667,291.833 217,290.5C 213.775,290.283 210.609,290.283 207.5,290.5C 207.5,289.833 207.167,289.5 206.5,289.5C 205.116,288.199 203.616,288.199 202,289.5C 201.505,291.473 201.338,293.473 201.5,295.5C 199.712,295.215 198.045,295.548 196.5,296.5C 194.364,298.949 192.697,301.616 191.5,304.5C 191.833,305.833 192.167,307.167 192.5,308.5C 191.833,308.167 191.167,307.833 190.5,307.5C 190.5,306.167 190.5,304.833 190.5,303.5C 184.729,303.061 181.062,300.061 179.5,294.5C 179.334,287.492 179.5,280.492 180,273.5C 181.481,272.529 182.315,271.196 182.5,269.5C 182.328,268.508 182.662,267.842 183.5,267.5C 186.622,266.018 189.622,264.351 192.5,262.5 Z"/></g>
<g><path style="opacity:1" fill="#20210b" d="M 235.5,278.5 C 238.053,281.621 238.053,284.621 235.5,287.5C 236.386,279.887 233.053,276.387 225.5,277C 221.686,281.461 221.686,285.961 225.5,290.5C 223.983,290.489 222.816,289.823 222,288.5C 219.784,284.132 220.284,280.132 223.5,276.5C 227.899,274.843 231.899,275.509 235.5,278.5 Z"/></g>
<g><path style="opacity:1" fill="#1d2719" d="M 196.5,288.5 C 195.972,284.788 195.138,281.121 194,277.5C 191.541,276.351 189.041,276.351 186.5,277.5C 193.2,273.676 197.534,275.676 199.5,283.5C 199.243,285.692 198.243,287.359 196.5,288.5 Z"/></g>
<g><path style="opacity:1" fill="#ad934f" d="M 240.5,268.5 C 241.657,276.656 241.823,284.99 241,293.5C 240.768,294.737 240.268,295.737 239.5,296.5C 239.5,295.167 239.5,293.833 239.5,292.5C 240.492,284.684 240.826,276.684 240.5,268.5 Z"/></g>
<g><path style="opacity:1" fill="#011f2a" d="M 335.5,283.5 C 332.753,283.187 330.086,283.52 327.5,284.5C 329.423,285.308 331.423,285.808 333.5,286C 330.833,286.667 330.833,287.333 333.5,288C 332.354,288.645 331.354,289.478 330.5,290.5C 329.554,290.013 328.554,289.68 327.5,289.5C 324.349,291.289 321.016,291.789 317.5,291C 317.957,290.586 318.291,290.086 318.5,289.5C 315.988,288.205 313.321,287.539 310.5,287.5C 310.833,285.5 311.167,283.5 311.5,281.5C 315.689,281.818 318.855,280.152 321,276.5C 323.69,276.767 326.19,278.101 328.5,280.5C 330.071,279.691 331.738,279.357 333.5,279.5C 333.286,277.856 333.62,276.356 334.5,275C 333.257,273.846 332.257,272.512 331.5,271C 332.167,270.667 332.833,270.333 333.5,270C 332.5,269 331.5,268 330.5,267C 332.768,266.91 334.268,268.077 335,270.5C 335.186,272.9 335.686,275.234 336.5,277.5C 337.245,275.253 338.578,273.42 340.5,272C 338.101,269.411 338.268,267.244 341,265.5C 344.364,268.701 347.864,271.701 351.5,274.5C 349.605,276.632 347.438,276.966 345,275.5C 341.268,277.751 338.101,280.418 335.5,283.5 Z"/></g>
<g><path style="opacity:0.943" fill="#242516" d="M 272.5,280.5 C 273.468,282.607 273.802,284.941 273.5,287.5C 272.089,288.908 270.423,289.908 268.5,290.5C 266.484,290.484 265.484,289.484 265.5,287.5C 266.167,285.5 266.833,283.5 267.5,281.5C 267.5,283.833 267.5,286.167 267.5,288.5C 271.009,288.192 272.676,286.192 272.5,282.5C 272.5,281.833 272.5,281.167 272.5,280.5 Z"/></g>
<g><path style="opacity:0.184" fill="#ca9f51" d="M 267.5,281.5 C 269.169,282.89 270.836,283.223 272.5,282.5C 272.676,286.192 271.009,288.192 267.5,288.5C 267.5,286.167 267.5,283.833 267.5,281.5 Z"/></g>
<g><path style="opacity:1" fill="#0b2027" d="M 196.5,288.5 C 196.5,288.833 196.5,289.167 196.5,289.5C 192.85,290.675 189.183,290.675 185.5,289.5C 181.307,284.991 181.64,280.991 186.5,277.5C 189.041,276.351 191.541,276.351 194,277.5C 195.138,281.121 195.972,284.788 196.5,288.5 Z"/></g>
<g><path style="opacity:1" fill="#051f29" d="M 235.5,287.5 C 235.5,287.833 235.5,288.167 235.5,288.5C 232.167,289.167 228.833,289.833 225.5,290.5C 221.686,285.961 221.686,281.461 225.5,277C 233.053,276.387 236.386,279.887 235.5,287.5 Z"/></g>
<g><path style="opacity:1" fill="#9cacb9" d="M 252.5,253.5 C 255.583,256.999 257.583,260.999 258.5,265.5C 258.938,277.576 258.438,289.576 257,301.5C 255.324,306.178 252.491,310.011 248.5,313C 244.791,312.539 241.791,311.706 239.5,310.5C 244.693,307.119 248.193,302.453 250,296.5C 250.667,285.833 250.667,275.167 250,264.5C 248.672,261.688 247.172,259.022 245.5,256.5C 248.096,255.945 250.429,254.945 252.5,253.5 Z"/></g>
<g><path style="opacity:1" fill="#262d16" d="M 235.5,288.5 C 234.942,289.79 233.942,290.623 232.5,291C 230.19,291.497 227.857,291.663 225.5,291.5C 225.5,291.167 225.5,290.833 225.5,290.5C 228.833,289.833 232.167,289.167 235.5,288.5 Z"/></g>
<g><path style="opacity:1" fill="#20260b" d="M 185.5,289.5 C 189.183,290.675 192.85,290.675 196.5,289.5C 192.833,292.167 189.167,292.167 185.5,289.5 Z"/></g>
<g><path style="opacity:1" fill="#2b2407" d="M 206.5,289.5 C 207.167,289.5 207.5,289.833 207.5,290.5C 206.5,290.5 205.5,290.5 204.5,290.5C 204.833,292.5 205.167,294.5 205.5,296.5C 202.59,295.027 201.923,292.86 203.5,290C 204.448,289.517 205.448,289.351 206.5,289.5 Z"/></g>
<g><path style="opacity:1" fill="#0f2936" d="M 183.5,311.5 C 182.548,312.452 181.548,313.452 180.5,314.5C 181.471,315.962 181.138,317.295 179.5,318.5C 174.912,319.823 174.578,319.323 178.5,317C 174.551,316.193 174.551,315.693 178.5,315.5C 178.5,314.167 178.5,312.833 178.5,311.5C 179.552,311.649 180.552,311.483 181.5,311C 177.973,308.638 174.973,305.804 172.5,302.5C 172.068,301.29 171.401,300.29 170.5,299.5C 169.91,298.234 169.41,296.901 169,295.5C 168.333,286.167 168.333,276.833 169,267.5C 169.379,264.97 170.213,262.637 171.5,260.5C 173.377,260.1 174.877,259.1 176,257.5C 177.5,258.5 179,259.5 180.5,260.5C 178.973,262.553 177.307,264.387 175.5,266C 176.133,276.483 176.8,286.983 177.5,297.5C 178.719,298.263 179.719,299.263 180.5,300.5C 181.708,304.122 182.708,307.789 183.5,311.5 Z"/></g>
<g><path style="opacity:1" fill="#151f1c" d="M 214.5,297.5 C 211.287,297.81 208.287,297.477 205.5,296.5C 205.167,294.5 204.833,292.5 204.5,290.5C 205.5,290.5 206.5,290.5 207.5,290.5C 210.609,290.283 213.775,290.283 217,290.5C 217.667,291.833 217.667,293.167 217,294.5C 215.955,295.373 215.122,296.373 214.5,297.5 Z"/></g>
<g><path style="opacity:1" fill="#cdaf5b" d="M 206.5,289.5 C 205.448,289.351 204.448,289.517 203.5,290C 201.923,292.86 202.59,295.027 205.5,296.5C 208.287,297.477 211.287,297.81 214.5,297.5C 214.389,298.117 214.056,298.617 213.5,299C 208.643,300.407 204.643,299.24 201.5,295.5C 201.338,293.473 201.505,291.473 202,289.5C 203.616,288.199 205.116,288.199 206.5,289.5 Z"/></g>
<g><path style="opacity:1" fill="#faba3f" d="M 239.5,292.5 C 239.5,293.833 239.5,295.167 239.5,296.5C 239.5,297.167 239.5,297.833 239.5,298.5C 236.67,301.433 233.337,303.433 229.5,304.5C 216.833,304.5 204.167,304.5 191.5,304.5C 192.697,301.616 194.364,298.949 196.5,296.5C 198.045,295.548 199.712,295.215 201.5,295.5C 204.643,299.24 208.643,300.407 213.5,299C 214.056,298.617 214.389,298.117 214.5,297.5C 215.93,297.421 217.264,297.754 218.5,298.5C 219.167,296.167 219.833,293.833 220.5,291.5C 221.429,292.689 221.762,294.022 221.5,295.5C 223.484,295.383 225.15,296.05 226.5,297.5C 227.429,296.311 227.762,294.978 227.5,293.5C 228.791,293.737 229.791,293.404 230.5,292.5C 232.677,292.414 234.677,291.747 236.5,290.5C 238.712,286.89 239.712,287.557 239.5,292.5 Z"/></g>
<g><path style="opacity:1" fill="#0d2730" d="M 370.5,280.5 C 377.536,286.369 383.703,293.036 389,300.5C 389.667,302.167 389.667,303.833 389,305.5C 383.545,312.956 377.378,319.79 370.5,326C 364.833,331 359.167,336 353.5,341C 351.922,342.094 350.255,342.928 348.5,343.5C 347.909,342.849 347.243,342.182 346.5,341.5C 348.396,340.534 350.396,340.201 352.5,340.5C 352.721,338.336 353.721,336.67 355.5,335.5C 359.836,331.481 363.503,326.815 366.5,321.5C 369.786,320.96 372.786,319.794 375.5,318C 374.01,315.8 374.343,313.966 376.5,312.5C 377.258,313.811 378.258,314.311 379.5,314C 380.573,312.687 381.24,311.187 381.5,309.5C 380.456,305.824 380.289,302.157 381,298.5C 379.27,298.491 377.437,298.158 375.5,297.5C 379.361,296.402 379.361,295.569 375.5,295C 376.696,294.346 376.696,293.846 375.5,293.5C 374.833,294.167 374.167,294.833 373.5,295.5C 372.842,293.563 372.509,291.73 372.5,290C 370.452,288.759 368.452,288.592 366.5,289.5C 365.016,288.527 364.516,287.193 365,285.5C 366.333,284.167 367.667,284.167 369,285.5C 370.269,284.095 370.769,282.429 370.5,280.5 Z"/></g>
<g><path style="opacity:1" fill="#0b2431" d="M 162.5,263.5 C 162.333,275.171 162.5,286.838 163,298.5C 163.41,299.901 163.91,301.234 164.5,302.5C 164.229,304.38 164.896,305.713 166.5,306.5C 167.415,308.754 168.748,310.754 170.5,312.5C 170.67,313.822 170.337,314.989 169.5,316C 170.744,316.456 171.577,315.956 172,314.5C 172.595,315.899 172.428,317.232 171.5,318.5C 173.475,319.749 173.809,321.249 172.5,323C 173.249,324.734 173.749,326.567 174,328.5C 174.294,323.441 175.461,323.274 177.5,328C 178.5,328.333 179.5,328.667 180.5,329C 178.924,329.44 177.59,330.273 176.5,331.5C 175.158,330.098 174.324,330.431 174,332.5C 173.617,331.944 173.117,331.611 172.5,331.5C 172.158,330.662 171.492,330.328 170.5,330.5C 169.778,330.082 169.278,329.416 169,328.5C 168.28,330.255 167.113,331.089 165.5,331C 165.366,329.455 165.7,327.788 166.5,326C 165.629,324.636 164.629,323.47 163.5,322.5C 163.611,321.883 163.944,321.383 164.5,321C 158.581,315.335 154.581,308.501 152.5,300.5C 136.485,294.443 133.152,284.276 142.5,270C 145.48,267.676 148.813,266.176 152.5,265.5C 152.216,263.585 152.549,261.919 153.5,260.5C 156.068,260.406 157.568,259.072 158,256.5C 158.667,257.833 159.333,259.167 160,260.5C 160.419,259.328 161.085,258.328 162,257.5C 161.577,259.387 161.744,261.387 162.5,263.5 Z M 152.5,281.5 C 150.901,281.768 149.568,281.434 148.5,280.5C 151.565,275.069 152.898,275.402 152.5,281.5 Z"/></g>
<g><path style="opacity:0.647" fill="#d0b367" d="M 148.5,280.5 C 149.568,281.434 150.901,281.768 152.5,281.5C 152.664,284.187 152.497,286.854 152,289.5C 150.667,288.167 149.333,286.833 148,285.5C 147.22,283.613 147.387,281.946 148.5,280.5 Z"/></g>
<g><path style="opacity:1" fill="#2ae7e0" d="M 331.5,329.5 C 325.554,333.306 319.221,336.306 312.5,338.5C 308.625,338.644 304.792,338.31 301,337.5C 297.993,338.979 294.826,339.646 291.5,339.5C 291.119,337.058 291.786,336.391 293.5,337.5C 294.281,336.263 295.281,335.263 296.5,334.5C 300.712,335.277 305.045,335.611 309.5,335.5C 309.519,333.94 309.852,332.44 310.5,331C 309.681,329.681 308.681,328.515 307.5,327.5C 306.549,328.326 305.549,328.492 304.5,328C 304.833,327.667 305.167,327.333 305.5,327C 304.598,324.798 303.598,322.632 302.5,320.5C 301.28,319.289 300.113,319.289 299,320.5C 298.383,319.551 298.549,318.718 299.5,318C 297.5,317.667 295.5,317.333 293.5,317C 293.043,316.586 292.709,316.086 292.5,315.5C 294.765,314.353 297.098,314.186 299.5,315C 301.675,316.181 303.842,317.348 306,318.5C 306.833,318.333 307.667,318.167 308.5,318C 307.335,316.916 306.002,316.083 304.5,315.5C 303.216,310.355 303.882,310.188 306.5,315C 317.76,316.218 318.427,314.218 308.5,309C 309.056,308.617 309.389,308.117 309.5,307.5C 312.875,307.218 316.042,306.218 319,304.5C 319.95,305.022 320.784,305.689 321.5,306.5C 322.418,304.161 324.084,302.661 326.5,302C 325.833,301.667 325.167,301.333 324.5,301C 327.501,301.094 329.501,299.761 330.5,297C 331.899,296.405 333.232,296.572 334.5,297.5C 335.524,296.147 336.857,295.48 338.5,295.5C 338.357,297.262 338.691,298.929 339.5,300.5C 338.273,301.59 337.44,302.924 337,304.5C 336.667,304.167 336.333,303.833 336,303.5C 335.546,305.536 334.713,307.37 333.5,309C 333.667,309.5 333.833,310 334,310.5C 335.473,308.315 337.473,306.649 340,305.5C 340.5,305.833 341,306.167 341.5,306.5C 337.586,308.765 336.919,311.598 339.5,315C 338.713,317.099 338.38,319.266 338.5,321.5C 335.402,321.413 335.068,321.913 337.5,323C 336.012,324.717 334.179,325.884 332,326.5C 331.517,327.448 331.351,328.448 331.5,329.5 Z"/></g>
<g><path style="opacity:1" fill="#32e0dc" d="M 341.5,284.5 C 347.305,291.473 353.305,298.307 359.5,305C 356.626,308.7 353.626,312.2 350.5,315.5C 350.167,315.5 349.833,315.5 349.5,315.5C 343.862,320.65 337.862,325.317 331.5,329.5C 331.351,328.448 331.517,327.448 332,326.5C 334.179,325.884 336.012,324.717 337.5,323C 335.068,321.913 335.402,321.413 338.5,321.5C 338.38,319.266 338.713,317.099 339.5,315C 336.919,311.598 337.586,308.765 341.5,306.5C 341,306.167 340.5,305.833 340,305.5C 337.473,306.649 335.473,308.315 334,310.5C 333.833,310 333.667,309.5 333.5,309C 334.713,307.37 335.546,305.536 336,303.5C 336.333,303.833 336.667,304.167 337,304.5C 337.44,302.924 338.273,301.59 339.5,300.5C 338.691,298.929 338.357,297.262 338.5,295.5C 336.857,295.48 335.524,296.147 334.5,297.5C 333.232,296.572 331.899,296.405 330.5,297C 329.501,299.761 327.501,301.094 324.5,301C 325.167,301.333 325.833,301.667 326.5,302C 324.084,302.661 322.418,304.161 321.5,306.5C 320.784,305.689 319.95,305.022 319,304.5C 316.042,306.218 312.875,307.218 309.5,307.5C 320.508,301.965 330.175,294.465 338.5,285C 339.448,284.517 340.448,284.351 341.5,284.5 Z"/></g>
<g><path style="opacity:0.761" fill="#dfe8ee" d="M 170.5,299.5 C 171.401,300.29 172.068,301.29 172.5,302.5C 170.537,303.82 168.537,305.154 166.5,306.5C 164.896,305.713 164.229,304.38 164.5,302.5C 167.089,302.539 169.089,301.539 170.5,299.5 Z"/></g>
<g><path style="opacity:1" fill="#e18e26" d="M 191.5,304.5 C 204.167,304.5 216.833,304.5 229.5,304.5C 229.975,307.313 228.975,309.313 226.5,310.5C 215.495,310.667 204.495,310.5 193.5,310C 192.944,309.617 192.611,309.117 192.5,308.5C 192.167,307.167 191.833,305.833 191.5,304.5 Z"/></g>
<g><path style="opacity:1" fill="#03222d" d="M 311.5,281.5 C 311.167,283.5 310.833,285.5 310.5,287.5C 313.321,287.539 315.988,288.205 318.5,289.5C 318.291,290.086 317.957,290.586 317.5,291C 321.016,291.789 324.349,291.289 327.5,289.5C 328.554,289.68 329.554,290.013 330.5,290.5C 331.354,289.478 332.354,288.645 333.5,288C 330.833,287.333 330.833,286.667 333.5,286C 331.423,285.808 329.423,285.308 327.5,284.5C 330.086,283.52 332.753,283.187 335.5,283.5C 337.466,283.541 339.466,283.875 341.5,284.5C 340.448,284.351 339.448,284.517 338.5,285C 330.175,294.465 320.508,301.965 309.5,307.5C 302.434,310.633 295.101,312.966 287.5,314.5C 282.83,315.072 278.163,315.739 273.5,316.5C 272.274,316.48 271.274,316.147 270.5,315.5C 271.562,312.484 272.729,309.484 274,306.5C 280.946,303.388 286.113,298.388 289.5,291.5C 297.392,289.217 304.726,285.884 311.5,281.5 Z"/></g>
<g><path style="opacity:1" fill="#1b2b28" d="M 183.5,249.5 C 181.716,251.948 180.382,254.615 179.5,257.5C 182.361,257.658 185.028,256.992 187.5,255.5C 188.739,255.942 189.739,256.609 190.5,257.5C 184.196,259.137 180.196,263.137 178.5,269.5C 178.174,278.017 178.507,286.35 179.5,294.5C 181.062,300.061 184.729,303.061 190.5,303.5C 190.5,304.833 190.5,306.167 190.5,307.5C 190.5,308.167 190.5,308.833 190.5,309.5C 188.248,309.084 186.748,307.751 186,305.5C 185.505,307.473 185.338,309.473 185.5,311.5C 184.833,311.5 184.167,311.5 183.5,311.5C 182.708,307.789 181.708,304.122 180.5,300.5C 179.719,299.263 178.719,298.263 177.5,297.5C 176.8,286.983 176.133,276.483 175.5,266C 177.307,264.387 178.973,262.553 180.5,260.5C 179,259.5 177.5,258.5 176,257.5C 174.877,259.1 173.377,260.1 171.5,260.5C 174.243,255.422 178.243,251.755 183.5,249.5 Z"/></g>
<g><path style="opacity:1" fill="#9bacb9" d="M 172.5,302.5 C 174.973,305.804 177.973,308.638 181.5,311C 180.552,311.483 179.552,311.649 178.5,311.5C 176.323,311.586 174.323,312.253 172.5,313.5C 171.817,313.137 171.15,312.804 170.5,312.5C 168.748,310.754 167.415,308.754 166.5,306.5C 168.537,305.154 170.537,303.82 172.5,302.5 Z"/></g>
<g><path style="opacity:1" fill="#01202b" d="M 355.5,335.5 C 350.898,333.942 346.398,332.275 342,330.5C 340.757,331.336 339.59,331.003 338.5,329.5C 338.977,328.522 339.643,327.689 340.5,327C 340.167,326.667 339.833,326.333 339.5,326C 342.692,324.906 345.358,323.073 347.5,320.5C 348.086,320.709 348.586,321.043 349,321.5C 349.495,319.527 349.662,317.527 349.5,315.5C 349.833,315.5 350.167,315.5 350.5,315.5C 353.757,314.2 356.757,312.366 359.5,310C 361.587,310.218 363.587,310.051 365.5,309.5C 365.106,307.47 364.773,305.137 364.5,302.5C 363.127,302.657 361.793,302.49 360.5,302C 360.833,301.667 361.167,301.333 361.5,301C 359.708,299.135 358.374,296.969 357.5,294.5C 359.729,292.452 362.729,290.786 366.5,289.5C 368.452,288.592 370.452,288.759 372.5,290C 372.509,291.73 372.842,293.563 373.5,295.5C 374.167,294.833 374.833,294.167 375.5,293.5C 376.696,293.846 376.696,294.346 375.5,295C 379.361,295.569 379.361,296.402 375.5,297.5C 377.437,298.158 379.27,298.491 381,298.5C 380.289,302.157 380.456,305.824 381.5,309.5C 381.24,311.187 380.573,312.687 379.5,314C 378.258,314.311 377.258,313.811 376.5,312.5C 374.343,313.966 374.01,315.8 375.5,318C 372.786,319.794 369.786,320.96 366.5,321.5C 363.503,326.815 359.836,331.481 355.5,335.5 Z"/></g>
<g><path style="opacity:1" fill="#101f1e" d="M 239.5,298.5 C 238.781,300.764 238.448,303.097 238.5,305.5C 236.139,305.326 233.806,304.993 231.5,304.5C 231.5,307.167 231.5,309.833 231.5,312.5C 226.605,314.082 221.771,314.748 217,314.5C 215.933,313.809 214.766,313.309 213.5,313C 207.319,312.828 201.319,312.328 195.5,311.5C 206.014,311.828 216.347,311.494 226.5,310.5C 228.975,309.313 229.975,307.313 229.5,304.5C 233.337,303.433 236.67,301.433 239.5,298.5 Z"/></g>
<g><path style="opacity:1" fill="#05212e" d="M 258.5,265.5 C 259.391,266.261 260.058,267.261 260.5,268.5C 261.325,269.386 262.325,269.719 263.5,269.5C 263.268,275.616 263.934,281.616 265.5,287.5C 265.484,289.484 266.484,290.484 268.5,290.5C 270.423,289.908 272.089,288.908 273.5,287.5C 274.222,287.082 274.722,286.416 275,285.5C 275.84,288.318 275.006,290.484 272.5,292C 272.833,292.333 273.167,292.667 273.5,293C 268.154,293.836 265.82,297.003 266.5,302.5C 264.314,309.526 260.647,315.693 255.5,321C 259.219,323.612 261.552,327.112 262.5,331.5C 260.883,330.962 259.216,330.629 257.5,330.5C 257.662,328.473 257.495,326.473 257,324.5C 254.619,326.766 252.785,326.099 251.5,322.5C 252.5,322.5 253.5,322.5 254.5,322.5C 253.564,321.026 252.23,320.026 250.5,319.5C 250.26,320.837 249.76,322.503 249,324.5C 247.716,323.428 247.383,322.095 248,320.5C 246.667,319.167 245.333,319.167 244,320.5C 243.195,318.099 242.362,318.266 241.5,321C 243.229,322.789 243.896,324.956 243.5,327.5C 241.876,327.64 240.71,326.973 240,325.5C 239.79,327.058 239.29,328.391 238.5,329.5C 238.5,326.833 238.5,324.167 238.5,321.5C 225.677,320.505 212.677,320.171 199.5,320.5C 194.684,319.674 189.684,319.174 184.5,319C 183.949,317.602 183.616,316.268 183.5,315C 184.5,314.667 185.5,314.333 186.5,314C 186.116,313.049 185.783,312.216 185.5,311.5C 185.338,309.473 185.505,307.473 186,305.5C 186.748,307.751 188.248,309.084 190.5,309.5C 191.82,310.942 193.486,311.608 195.5,311.5C 201.319,312.328 207.319,312.828 213.5,313C 214.766,313.309 215.933,313.809 217,314.5C 221.771,314.748 226.605,314.082 231.5,312.5C 231.5,309.833 231.5,307.167 231.5,304.5C 233.806,304.993 236.139,305.326 238.5,305.5C 238.448,303.097 238.781,300.764 239.5,298.5C 240.5,298.5 241.5,298.5 242.5,298.5C 242.351,297.448 242.517,296.448 243,295.5C 244.954,297.785 244.787,299.952 242.5,302C 242.833,302.333 243.167,302.667 243.5,303C 240.833,303.667 240.833,304.333 243.5,305C 240.574,305.687 239.241,307.52 239.5,310.5C 241.791,311.706 244.791,312.539 248.5,313C 252.491,310.011 255.324,306.178 257,301.5C 258.438,289.576 258.938,277.576 258.5,265.5 Z"/></g>
<g><path style="opacity:1" fill="#311f01" d="M 190.5,307.5 C 191.167,307.833 191.833,308.167 192.5,308.5C 192.611,309.117 192.944,309.617 193.5,310C 204.495,310.5 215.495,310.667 226.5,310.5C 216.347,311.494 206.014,311.828 195.5,311.5C 193.486,311.608 191.82,310.942 190.5,309.5C 190.5,308.833 190.5,308.167 190.5,307.5 Z"/></g>
<g><path style="opacity:1" fill="#6a8289" d="M 199.5,320.5 C 212.677,320.171 225.677,320.505 238.5,321.5C 219.833,321.5 201.167,321.5 182.5,321.5C 182.5,324.167 182.5,326.833 182.5,329.5C 182.5,336.167 182.5,342.833 182.5,349.5C 181.506,340.014 181.173,330.348 181.5,320.5C 187.5,320.5 193.5,320.5 199.5,320.5 Z"/></g>
<g><path style="opacity:1" fill="#a0b2be" d="M 238.5,321.5 C 238.5,324.167 238.5,326.833 238.5,329.5C 219.833,329.5 201.167,329.5 182.5,329.5C 182.5,326.833 182.5,324.167 182.5,321.5C 201.167,321.5 219.833,321.5 238.5,321.5 Z"/></g>
<g><path style="opacity:1" fill="#03252f" d="M 349.5,315.5 C 349.662,317.527 349.495,319.527 349,321.5C 348.586,321.043 348.086,320.709 347.5,320.5C 345.358,323.073 342.692,324.906 339.5,326C 339.833,326.333 340.167,326.667 340.5,327C 339.643,327.689 338.977,328.522 338.5,329.5C 339.59,331.003 340.757,331.336 342,330.5C 346.398,332.275 350.898,333.942 355.5,335.5C 353.721,336.67 352.721,338.336 352.5,340.5C 350.396,340.201 348.396,340.534 346.5,341.5C 347.243,342.182 347.909,342.849 348.5,343.5C 346.178,345.664 343.511,347.331 340.5,348.5C 339.514,345.191 337.847,341.858 335.5,338.5C 338.374,338.623 340.874,339.623 343,341.5C 344.401,339.808 346.234,339.141 348.5,339.5C 348.688,337.897 348.188,336.563 347,335.5C 346.667,336.167 346.333,336.833 346,337.5C 340.963,331.323 335.629,330.989 330,336.5C 329.167,336.333 328.333,336.167 327.5,336C 328.654,335.086 328.487,334.253 327,333.5C 324.056,335.372 322.889,338.039 323.5,341.5C 324.978,341.238 326.311,341.571 327.5,342.5C 328.263,343.719 329.263,344.719 330.5,345.5C 328.282,346.057 325.949,346.057 323.5,345.5C 323.509,343.692 323.009,342.025 322,340.5C 320.214,342.099 318.047,342.933 315.5,343C 314.663,344.011 314.33,345.178 314.5,346.5C 312.403,346.997 310.57,347.33 309,347.5C 306.096,345.773 302.93,345.107 299.5,345.5C 297.5,345.5 295.5,345.5 293.5,345.5C 293.5,345.167 293.5,344.833 293.5,344.5C 300.296,343.678 306.629,341.678 312.5,338.5C 319.221,336.306 325.554,333.306 331.5,329.5C 337.862,325.317 343.862,320.65 349.5,315.5 Z"/></g>
<g><path style="opacity:1" fill="#0e2831" d="M 163.5,322.5 C 164.629,323.47 165.629,324.636 166.5,326C 165.7,327.788 165.366,329.455 165.5,331C 167.113,331.089 168.28,330.255 169,328.5C 169.278,329.416 169.778,330.082 170.5,330.5C 169.89,331.391 169.557,332.391 169.5,333.5C 166.179,337.809 164.512,342.476 164.5,347.5C 166.196,349.525 167.863,351.525 169.5,353.5C 169.265,354.097 168.765,354.43 168,354.5C 165.403,353.571 163.403,351.904 162,349.5C 161.586,349.957 161.086,350.291 160.5,350.5C 158.95,347.871 159.616,346.037 162.5,345C 161.663,343.989 161.33,342.822 161.5,341.5C 157.447,342.744 153.78,344.744 150.5,347.5C 149.754,348.736 149.421,350.07 149.5,351.5C 152.917,351.023 155.584,352.023 157.5,354.5C 156.292,353.766 154.959,353.433 153.5,353.5C 152.833,353.5 152.167,353.5 151.5,353.5C 149.071,353.884 146.737,354.551 144.5,355.5C 145.878,351.862 145.211,351.195 142.5,353.5C 141.378,352.37 140.044,351.703 138.5,351.5C 138.859,349.629 139.859,348.129 141.5,347C 145.385,344.874 149.385,343.04 153.5,341.5C 155.03,334.102 158.363,327.769 163.5,322.5 Z"/></g>
<g><path style="opacity:1" fill="#d6dfe5" d="M 182.5,329.5 C 201.167,329.5 219.833,329.5 238.5,329.5C 238.5,336.167 238.5,342.833 238.5,349.5C 228.105,350.559 221.772,356.225 219.5,366.5C 213.167,366.5 206.833,366.5 200.5,366.5C 200.167,366.5 199.833,366.5 199.5,366.5C 199.086,360.653 196.419,356.319 191.5,353.5C 188.947,351.416 185.947,350.083 182.5,349.5C 182.5,342.833 182.5,336.167 182.5,329.5 Z"/></g>
<g><path style="opacity:1" fill="#06222f" d="M 262.5,331.5 C 261.132,332.306 259.799,333.306 258.5,334.5C 257.201,333.91 256.368,332.91 256,331.5C 254.612,331.214 253.112,331.548 251.5,332.5C 250.542,332.047 249.708,331.381 249,330.5C 248.169,337.856 248.335,345.189 249.5,352.5C 250.086,352.709 250.586,353.043 251,353.5C 252.331,351.004 254.164,349.004 256.5,347.5C 255.014,350.371 256.014,351.705 259.5,351.5C 259.649,352.552 259.483,353.552 259,354.5C 256.96,356.041 254.793,357.374 252.5,358.5C 253.941,362.133 255.941,362.466 258.5,359.5C 258.5,360.167 258.5,360.833 258.5,361.5C 256.907,363.658 255.074,365.658 253,367.5C 253.187,370.889 253.021,374.222 252.5,377.5C 251.069,373.506 250.069,369.506 249.5,365.5C 249.167,365.5 248.833,365.5 248.5,365.5C 247.5,363.833 246.167,362.5 244.5,361.5C 238.845,358.936 234.178,360.27 230.5,365.5C 229.527,367.948 229.194,370.615 229.5,373.5C 229.167,373.5 228.833,373.5 228.5,373.5C 227.85,371.565 227.517,369.565 227.5,367.5C 224.661,367.031 221.995,367.031 219.5,367.5C 219.5,367.167 219.5,366.833 219.5,366.5C 221.772,356.225 228.105,350.559 238.5,349.5C 238.5,342.833 238.5,336.167 238.5,329.5C 239.29,328.391 239.79,327.058 240,325.5C 240.71,326.973 241.876,327.64 243.5,327.5C 243.896,324.956 243.229,322.789 241.5,321C 242.362,318.266 243.195,318.099 244,320.5C 245.333,319.167 246.667,319.167 248,320.5C 247.383,322.095 247.716,323.428 249,324.5C 249.76,322.503 250.26,320.837 250.5,319.5C 252.23,320.026 253.564,321.026 254.5,322.5C 253.5,322.5 252.5,322.5 251.5,322.5C 252.785,326.099 254.619,326.766 257,324.5C 257.495,326.473 257.662,328.473 257.5,330.5C 259.216,330.629 260.883,330.962 262.5,331.5 Z M 244.5,361.5 C 242.342,363.22 239.675,364.053 236.5,364C 234.536,365.451 233.203,367.284 232.5,369.5C 230.824,368.817 230.157,367.483 230.5,365.5C 234.178,360.27 238.845,358.936 244.5,361.5 Z"/></g>
<g><path style="opacity:1" fill="#2ee5df" d="M 309.5,307.5 C 309.389,308.117 309.056,308.617 308.5,309C 318.427,314.218 317.76,316.218 306.5,315C 303.882,310.188 303.216,310.355 304.5,315.5C 306.002,316.083 307.335,316.916 308.5,318C 307.667,318.167 306.833,318.333 306,318.5C 303.842,317.348 301.675,316.181 299.5,315C 297.098,314.186 294.765,314.353 292.5,315.5C 292.709,316.086 293.043,316.586 293.5,317C 295.5,317.333 297.5,317.667 299.5,318C 298.549,318.718 298.383,319.551 299,320.5C 300.113,319.289 301.28,319.289 302.5,320.5C 303.598,322.632 304.598,324.798 305.5,327C 305.167,327.333 304.833,327.667 304.5,328C 305.549,328.492 306.549,328.326 307.5,327.5C 308.681,328.515 309.681,329.681 310.5,331C 309.852,332.44 309.519,333.94 309.5,335.5C 305.045,335.611 300.712,335.277 296.5,334.5C 295.281,335.263 294.281,336.263 293.5,337.5C 291.786,336.391 291.119,337.058 291.5,339.5C 294.826,339.646 297.993,338.979 301,337.5C 304.792,338.31 308.625,338.644 312.5,338.5C 306.629,341.678 300.296,343.678 293.5,344.5C 288.092,336.026 282.425,327.692 276.5,319.5C 277.09,318.201 278.09,317.368 279.5,317C 282.457,316.721 285.123,315.887 287.5,314.5C 295.101,312.966 302.434,310.633 309.5,307.5 Z"/></g>
<g><path style="opacity:1" fill="#2cc4ce" d="M 287.5,314.5 C 285.123,315.887 282.457,316.721 279.5,317C 278.09,317.368 277.09,318.201 276.5,319.5C 282.425,327.692 288.092,336.026 293.5,344.5C 293.5,344.833 293.5,345.167 293.5,345.5C 291.901,345.232 290.568,345.566 289.5,346.5C 284.472,341.898 278.972,337.898 273,334.5C 271.503,329.501 269.336,324.835 266.5,320.5C 267.612,318.581 268.946,316.914 270.5,315.5C 271.274,316.147 272.274,316.48 273.5,316.5C 278.163,315.739 282.83,315.072 287.5,314.5 Z"/></g>
<g><path style="opacity:1" fill="#07232e" d="M 206.5,337.5 C 213.62,336.126 217.953,338.959 219.5,346C 218.429,353.692 214.096,356.692 206.5,355C 198.556,349.131 198.556,343.297 206.5,337.5 Z"/></g>
<g><path style="opacity:1" fill="#90a1ad" d="M 170.5,330.5 C 171.492,330.328 172.158,330.662 172.5,331.5C 172.5,336.167 172.5,340.833 172.5,345.5C 173.171,348.986 172.171,351.653 169.5,353.5C 167.863,351.525 166.196,349.525 164.5,347.5C 166.807,343.563 169.14,339.563 171.5,335.5C 171.145,334.478 170.478,333.811 169.5,333.5C 169.557,332.391 169.89,331.391 170.5,330.5 Z"/></g>
<g><path style="opacity:1" fill="#011f2b" d="M 340.5,348.5 C 338.122,347.259 336.289,347.926 335,350.5C 333.249,349.191 331.749,349.525 330.5,351.5C 329.667,350.5 328.833,349.5 328,348.5C 325.867,355.469 322.034,356.469 316.5,351.5C 314.775,352.015 313.108,352.682 311.5,353.5C 312.59,354.609 312.59,355.609 311.5,356.5C 309.161,357.724 306.828,357.724 304.5,356.5C 305.381,355.029 306.714,354.196 308.5,354C 307.167,353 307.167,352 308.5,351C 304.847,350.17 301.847,348.337 299.5,345.5C 302.93,345.107 306.096,345.773 309,347.5C 310.57,347.33 312.403,346.997 314.5,346.5C 314.33,345.178 314.663,344.011 315.5,343C 318.047,342.933 320.214,342.099 322,340.5C 323.009,342.025 323.509,343.692 323.5,345.5C 325.949,346.057 328.282,346.057 330.5,345.5C 329.263,344.719 328.263,343.719 327.5,342.5C 326.311,341.571 324.978,341.238 323.5,341.5C 322.889,338.039 324.056,335.372 327,333.5C 328.487,334.253 328.654,335.086 327.5,336C 328.333,336.167 329.167,336.333 330,336.5C 335.629,330.989 340.963,331.323 346,337.5C 346.333,336.833 346.667,336.167 347,335.5C 348.188,336.563 348.688,337.897 348.5,339.5C 346.234,339.141 344.401,339.808 343,341.5C 340.874,339.623 338.374,338.623 335.5,338.5C 337.847,341.858 339.514,345.191 340.5,348.5 Z"/></g>
<g><path style="opacity:1" fill="#9eb1be" d="M 251.5,332.5 C 254.565,337.027 256.231,342.027 256.5,347.5C 254.164,349.004 252.331,351.004 251,353.5C 250.586,353.043 250.086,352.709 249.5,352.5C 248.335,345.189 248.169,337.856 249,330.5C 249.708,331.381 250.542,332.047 251.5,332.5 Z"/></g>
<g><path style="opacity:1" fill="#08242e" d="M 262.5,331.5 C 265,334.66 266.333,338.327 266.5,342.5C 278.809,344.312 285.475,351.478 286.5,364C 286.218,366.96 285.551,369.793 284.5,372.5C 283.833,372.5 283.5,372.833 283.5,373.5C 282.869,371.552 281.869,369.719 280.5,368C 281.022,367.439 281.355,366.772 281.5,366C 280.639,362.863 279.973,359.697 279.5,356.5C 277.517,356.157 276.183,356.824 275.5,358.5C 274.441,356.445 272.775,355.111 270.5,354.5C 266.326,352.734 262.992,353.734 260.5,357.5C 259.833,358.167 259.167,358.833 258.5,359.5C 255.941,362.466 253.941,362.133 252.5,358.5C 254.793,357.374 256.96,356.041 259,354.5C 259.483,353.552 259.649,352.552 259.5,351.5C 256.014,351.705 255.014,350.371 256.5,347.5C 256.231,342.027 254.565,337.027 251.5,332.5C 253.112,331.548 254.612,331.214 256,331.5C 256.368,332.91 257.201,333.91 258.5,334.5C 259.799,333.306 261.132,332.306 262.5,331.5 Z M 270.5,354.5 C 267.645,357.567 264.311,358.567 260.5,357.5C 262.992,353.734 266.326,352.734 270.5,354.5 Z"/></g>
<g><path style="opacity:1" fill="#0a252f" d="M 293.5,345.5 C 295.5,345.5 297.5,345.5 299.5,345.5C 301.847,348.337 304.847,350.17 308.5,351C 307.167,352 307.167,353 308.5,354C 306.714,354.196 305.381,355.029 304.5,356.5C 306.828,357.724 309.161,357.724 311.5,356.5C 312.59,355.609 312.59,354.609 311.5,353.5C 313.108,352.682 314.775,352.015 316.5,351.5C 322.034,356.469 325.867,355.469 328,348.5C 328.833,349.5 329.667,350.5 330.5,351.5C 331.749,349.525 333.249,349.191 335,350.5C 336.289,347.926 338.122,347.259 340.5,348.5C 326.288,357.906 310.622,363.573 293.5,365.5C 293.822,358.803 292.488,352.47 289.5,346.5C 290.568,345.566 291.901,345.232 293.5,345.5 Z"/></g>
<g><path style="opacity:1" fill="#04202b" d="M 178.5,311.5 C 178.5,312.833 178.5,314.167 178.5,315.5C 174.551,315.693 174.551,316.193 178.5,317C 174.578,319.323 174.912,319.823 179.5,318.5C 181.138,317.295 181.471,315.962 180.5,314.5C 181.548,313.452 182.548,312.452 183.5,311.5C 184.167,311.5 184.833,311.5 185.5,311.5C 185.783,312.216 186.116,313.049 186.5,314C 185.5,314.333 184.5,314.667 183.5,315C 183.616,316.268 183.949,317.602 184.5,319C 189.684,319.174 194.684,319.674 199.5,320.5C 193.5,320.5 187.5,320.5 181.5,320.5C 181.173,330.348 181.506,340.014 182.5,349.5C 185.947,350.083 188.947,351.416 191.5,353.5C 191.631,354.376 191.298,355.043 190.5,355.5C 189.281,354.737 188.281,353.737 187.5,352.5C 185.146,353.06 182.813,353.727 180.5,354.5C 183.167,355.167 185.833,355.833 188.5,356.5C 189.167,357.167 189.833,357.833 190.5,358.5C 187.458,358.941 184.458,359.275 181.5,359.5C 180.833,359.5 180.167,359.5 179.5,359.5C 177.883,358.962 176.216,358.629 174.5,358.5C 174.5,357.5 174.5,356.5 174.5,355.5C 175.833,355.5 177.167,355.5 178.5,355.5C 178.196,352.421 177.196,349.587 175.5,347C 175.833,346.667 176.167,346.333 176.5,346C 175.041,346.355 173.707,346.189 172.5,345.5C 172.5,340.833 172.5,336.167 172.5,331.5C 173.117,331.611 173.617,331.944 174,332.5C 174.324,330.431 175.158,330.098 176.5,331.5C 177.59,330.273 178.924,329.44 180.5,329C 179.5,328.667 178.5,328.333 177.5,328C 175.461,323.274 174.294,323.441 174,328.5C 173.749,326.567 173.249,324.734 172.5,323C 173.809,321.249 173.475,319.749 171.5,318.5C 172.428,317.232 172.595,315.899 172,314.5C 171.577,315.956 170.744,316.456 169.5,316C 170.337,314.989 170.67,313.822 170.5,312.5C 171.15,312.804 171.817,313.137 172.5,313.5C 174.323,312.253 176.323,311.586 178.5,311.5 Z"/></g>
<g><path style="opacity:1" fill="#44585d" d="M 151.5,353.5 C 149.525,355.137 147.525,356.804 145.5,358.5C 145.082,357.778 144.416,357.278 143.5,357C 144.056,356.617 144.389,356.117 144.5,355.5C 146.737,354.551 149.071,353.884 151.5,353.5 Z"/></g>
<g><path style="opacity:1" fill="#4c6068" d="M 174.5,358.5 C 176.216,358.629 177.883,358.962 179.5,359.5C 176.933,360.717 174.6,362.384 172.5,364.5C 172.443,363.391 172.11,362.391 171.5,361.5C 172.5,361.5 173.5,361.5 174.5,361.5C 174.5,360.5 174.5,359.5 174.5,358.5 Z"/></g>
<g><path style="opacity:1" fill="#022030" d="M 169.5,353.5 C 172.171,351.653 173.171,348.986 172.5,345.5C 173.707,346.189 175.041,346.355 176.5,346C 176.167,346.333 175.833,346.667 175.5,347C 177.196,349.587 178.196,352.421 178.5,355.5C 177.167,355.5 175.833,355.5 174.5,355.5C 174.5,356.5 174.5,357.5 174.5,358.5C 174.5,359.5 174.5,360.5 174.5,361.5C 173.5,361.5 172.5,361.5 171.5,361.5C 168.455,363.816 165.955,366.15 164,368.5C 164.981,373.027 165.481,377.693 165.5,382.5C 163.547,383.999 161.88,383.665 160.5,381.5C 156.939,385.165 152.606,386.332 147.5,385C 148.938,384.781 150.271,384.281 151.5,383.5C 151.154,382.304 150.654,382.304 150,383.5C 150.148,382.175 149.982,381.008 149.5,380C 153.287,379.84 156.954,379.174 160.5,378C 159.944,377.617 159.611,377.117 159.5,376.5C 161.414,373.316 162.08,369.649 161.5,365.5C 162.343,360.906 161.009,357.239 157.5,354.5C 155.584,352.023 152.917,351.023 149.5,351.5C 149.421,350.07 149.754,348.736 150.5,347.5C 153.78,344.744 157.447,342.744 161.5,341.5C 161.33,342.822 161.663,343.989 162.5,345C 159.616,346.037 158.95,347.871 160.5,350.5C 161.086,350.291 161.586,349.957 162,349.5C 163.403,351.904 165.403,353.571 168,354.5C 168.765,354.43 169.265,354.097 169.5,353.5 Z"/></g>
<g><path style="opacity:1" fill="#05222d" d="M 191.5,353.5 C 196.419,356.319 199.086,360.653 199.5,366.5C 199.5,369.833 199.5,373.167 199.5,376.5C 206.167,376.5 212.833,376.5 219.5,376.5C 219.938,376.435 220.272,376.601 220.5,377C 219.874,377.75 219.374,378.584 219,379.5C 217.334,378.66 217.167,379.16 218.5,381C 217.256,381.456 216.423,380.956 216,379.5C 215.517,380.448 215.351,381.448 215.5,382.5C 213.473,382.338 211.473,382.505 209.5,383C 212.007,383.093 214.174,383.926 216,385.5C 217,384.5 218,383.5 219,382.5C 220.734,383.249 222.567,383.749 224.5,384C 223.663,385.011 223.33,386.178 223.5,387.5C 214.475,387.168 205.475,387.502 196.5,388.5C 191.704,394.659 185.371,397.325 177.5,396.5C 179.917,394.504 179.25,393.504 175.5,393.5C 175.649,392.448 175.483,391.448 175,390.5C 172.037,387.552 168.87,384.885 165.5,382.5C 165.481,377.693 164.981,373.027 164,368.5C 165.955,366.15 168.455,363.816 171.5,361.5C 172.11,362.391 172.443,363.391 172.5,364.5C 171.596,365.209 171.263,366.209 171.5,367.5C 169.194,373.081 169.194,378.748 171.5,384.5C 176.711,389.265 182.377,389.765 188.5,386C 189.701,385.097 190.535,383.931 191,382.5C 191.831,376.141 191.664,369.807 190.5,363.5C 189.583,362.873 188.583,362.539 187.5,362.5C 187.158,361.662 186.492,361.328 185.5,361.5C 184.005,361.011 182.671,360.345 181.5,359.5C 184.458,359.275 187.458,358.941 190.5,358.5C 189.833,357.833 189.167,357.167 188.5,356.5C 185.833,355.833 183.167,355.167 180.5,354.5C 182.813,353.727 185.146,353.06 187.5,352.5C 188.281,353.737 189.281,354.737 190.5,355.5C 191.298,355.043 191.631,354.376 191.5,353.5 Z"/></g>
<g><path style="opacity:0.698" fill="#dec68a" d="M 185.5,361.5 C 186.492,361.328 187.158,361.662 187.5,362.5C 188.122,363.627 188.955,364.627 190,365.5C 190.816,370.684 190.65,375.684 189.5,380.5C 189.817,376.298 189.483,372.298 188.5,368.5C 188.67,367.178 188.337,366.011 187.5,365C 184.183,364.502 180.85,364.335 177.5,364.5C 180.02,363.082 182.687,362.082 185.5,361.5 Z"/></g>
<g><path style="opacity:1" fill="#efd798" d="M 244.5,361.5 C 246.167,362.5 247.5,363.833 248.5,365.5C 248.737,366.791 248.404,367.791 247.5,368.5C 247.5,367.5 247.5,366.5 247.5,365.5C 245.5,365.5 243.5,365.5 241.5,365.5C 240.399,364.402 239.066,364.235 237.5,365C 234.156,366.894 232.822,369.727 233.5,373.5C 232.5,373.5 231.5,373.5 230.5,373.5C 231.806,372.533 232.473,371.199 232.5,369.5C 233.203,367.284 234.536,365.451 236.5,364C 239.675,364.053 242.342,363.22 244.5,361.5 Z"/></g>
<g><path style="opacity:1" fill="#9eb2bc" d="M 200.5,366.5 C 206.833,366.5 213.167,366.5 219.5,366.5C 219.5,366.833 219.5,367.167 219.5,367.5C 219.5,370.167 219.5,372.833 219.5,375.5C 213.167,375.5 206.833,375.5 200.5,375.5C 200.5,372.5 200.5,369.5 200.5,366.5 Z"/></g>
<g><path style="opacity:1" fill="#f9bd3f" d="M 241.5,365.5 C 243.5,365.5 245.5,365.5 247.5,365.5C 247.5,366.5 247.5,367.5 247.5,368.5C 246.5,368.5 245.5,368.5 244.5,368.5C 244.837,372.308 244.337,375.974 243,379.5C 239.402,382.477 236.902,381.81 235.5,377.5C 236.376,377.631 237.043,377.298 237.5,376.5C 237.525,373.962 237.359,371.295 237,368.5C 237.589,366.137 239.089,365.137 241.5,365.5 Z"/></g>
<g><path style="opacity:1" fill="#a2b4be" d="M 153.5,353.5 C 154.959,353.433 156.292,353.766 157.5,354.5C 161.009,357.239 162.343,360.906 161.5,365.5C 160.521,368.625 160.187,371.958 160.5,375.5C 157.167,375.5 153.833,375.5 150.5,375.5C 146.796,373.789 144.796,370.789 144.5,366.5C 145.675,366.719 146.675,366.386 147.5,365.5C 148.523,360.786 150.523,356.786 153.5,353.5 Z"/></g>
<g><path style="opacity:1" fill="#faf1cb" d="M 172.5,364.5 C 172.987,365.473 173.487,366.473 174,367.5C 174.422,365.574 175.589,364.574 177.5,364.5C 175.732,367.162 175.065,370.162 175.5,373.5C 174.5,373.5 173.5,373.5 172.5,373.5C 172.167,373.5 171.833,373.5 171.5,373.5C 171.5,371.5 171.5,369.5 171.5,367.5C 171.263,366.209 171.596,365.209 172.5,364.5 Z"/></g>
<g><path style="opacity:0.18" fill="#f0f0e1" d="M 230.5,365.5 C 230.157,367.483 230.824,368.817 232.5,369.5C 232.473,371.199 231.806,372.533 230.5,373.5C 230.167,373.5 229.833,373.5 229.5,373.5C 229.194,370.615 229.527,367.948 230.5,365.5 Z"/></g>
<g><path style="opacity:0.433" fill="#76898b" d="M 135.5,372.5 C 136.043,372.56 136.376,372.893 136.5,373.5C 130.202,374.496 123.868,374.83 117.5,374.5C 123.5,373.833 129.5,373.167 135.5,372.5 Z"/></g>
<g><path style="opacity:1" fill="#ecb752" d="M 241.5,365.5 C 239.089,365.137 237.589,366.137 237,368.5C 237.359,371.295 237.525,373.962 237.5,376.5C 237.043,377.298 236.376,377.631 235.5,377.5C 234.533,376.194 233.199,375.527 231.5,375.5C 231.5,377.833 231.5,380.167 231.5,382.5C 229.735,379.877 229.068,376.877 229.5,373.5C 229.833,373.5 230.167,373.5 230.5,373.5C 231.5,373.5 232.5,373.5 233.5,373.5C 232.822,369.727 234.156,366.894 237.5,365C 239.066,364.235 240.399,364.402 241.5,365.5 Z"/></g>
<g><path style="opacity:1" fill="#a1b1bc" d="M 270.5,354.5 C 272.775,355.111 274.441,356.445 275.5,358.5C 276.836,362.51 276.67,366.51 275,370.5C 273.924,373.079 272.091,374.746 269.5,375.5C 266.167,375.5 262.833,375.5 259.5,375.5C 259.815,371.629 259.482,367.962 258.5,364.5C 258.5,363.5 258.5,362.5 258.5,361.5C 258.5,360.833 258.5,360.167 258.5,359.5C 259.167,358.833 259.833,358.167 260.5,357.5C 264.311,358.567 267.645,357.567 270.5,354.5 Z"/></g>
<g><path style="opacity:0.388" fill="#7d8d90" d="M 284.5,372.5 C 320.5,373.167 356.5,373.833 392.5,374.5C 355.996,374.832 319.663,374.498 283.5,373.5C 283.5,372.833 283.833,372.5 284.5,372.5 Z"/></g>
<g><path style="opacity:1" fill="#57717b" d="M 161.5,365.5 C 162.08,369.649 161.414,373.316 159.5,376.5C 156.287,376.81 153.287,376.477 150.5,375.5C 153.833,375.5 157.167,375.5 160.5,375.5C 160.187,371.958 160.521,368.625 161.5,365.5 Z"/></g>
<g><path style="opacity:1" fill="#506b75" d="M 199.5,366.5 C 199.833,366.5 200.167,366.5 200.5,366.5C 200.5,369.5 200.5,372.5 200.5,375.5C 206.833,375.5 213.167,375.5 219.5,375.5C 219.5,375.833 219.5,376.167 219.5,376.5C 212.833,376.5 206.167,376.5 199.5,376.5C 199.5,373.167 199.5,369.833 199.5,366.5 Z"/></g>
<g><path style="opacity:1" fill="#b17e37" d="M 248.5,365.5 C 248.833,365.5 249.167,365.5 249.5,365.5C 249.5,369.833 249.5,374.167 249.5,378.5C 248.833,379.833 248.167,381.167 247.5,382.5C 247.5,377.833 247.5,373.167 247.5,368.5C 248.404,367.791 248.737,366.791 248.5,365.5 Z"/></g>
<g><path style="opacity:1" fill="#f8bb44" d="M 177.5,364.5 C 180.85,364.335 184.183,364.502 187.5,365C 188.337,366.011 188.67,367.178 188.5,368.5C 187.542,368.953 186.708,369.619 186,370.5C 185.699,373.974 184.866,377.308 183.5,380.5C 181.5,381.833 179.5,381.833 177.5,380.5C 176.974,378.77 175.974,377.436 174.5,376.5C 173.769,378.401 173.769,380.401 174.5,382.5C 172.735,379.877 172.068,376.877 172.5,373.5C 173.5,373.5 174.5,373.5 175.5,373.5C 175.065,370.162 175.732,367.162 177.5,364.5 Z"/></g>
<g><path style="opacity:1" fill="#192117" d="M 228.5,373.5 C 228.833,373.5 229.167,373.5 229.5,373.5C 229.068,376.877 229.735,379.877 231.5,382.5C 232.116,384.417 233.45,385.584 235.5,386C 238.039,386.796 240.372,386.629 242.5,385.5C 244.933,385.727 246.599,384.727 247.5,382.5C 248.167,381.167 248.833,379.833 249.5,378.5C 249.623,383.886 246.956,387.053 241.5,388C 237.202,388.524 233.202,387.691 229.5,385.5C 228.817,383.824 227.483,383.157 225.5,383.5C 225.521,379.779 226.521,376.446 228.5,373.5 Z"/></g>
<g><path style="opacity:1" fill="#04202a" d="M 283.5,373.5 C 319.663,374.498 355.996,374.832 392.5,374.5C 397.183,376.21 398.683,379.543 397,384.5C 396.097,385.701 394.931,386.535 393.5,387C 357.502,387.5 321.502,387.667 285.5,387.5C 275.494,387.334 265.494,387.5 255.5,388C 254.627,389.045 253.627,389.878 252.5,390.5C 251.699,388.958 251.366,387.292 251.5,385.5C 253.792,385.244 255.959,385.577 258,386.5C 259.214,384.951 260.714,383.785 262.5,383C 260.93,380.073 258.596,379.073 255.5,380C 252.909,382.966 249.909,385.466 246.5,387.5C 245.571,388.689 245.238,390.022 245.5,391.5C 243.08,391.708 240.747,391.374 238.5,390.5C 236.706,392.67 234.706,392.67 232.5,390.5C 232.833,389.833 233.167,389.167 233.5,388.5C 231.5,387.833 229.5,387.167 227.5,386.5C 227.957,385.702 228.624,385.369 229.5,385.5C 233.202,387.691 237.202,388.524 241.5,388C 246.956,387.053 249.623,383.886 249.5,378.5C 249.5,374.167 249.5,369.833 249.5,365.5C 250.069,369.506 251.069,373.506 252.5,377.5C 253.021,374.222 253.187,370.889 253,367.5C 255.074,365.658 256.907,363.658 258.5,361.5C 258.5,362.5 258.5,363.5 258.5,364.5C 258.5,368.5 258.5,372.5 258.5,376.5C 262.371,376.815 266.038,376.482 269.5,375.5C 272.091,374.746 273.924,373.079 275,370.5C 276.67,366.51 276.836,362.51 275.5,358.5C 276.183,356.824 277.517,356.157 279.5,356.5C 279.973,359.697 280.639,362.863 281.5,366C 281.355,366.772 281.022,367.439 280.5,368C 281.869,369.719 282.869,371.552 283.5,373.5 Z"/></g>
<g><path style="opacity:1" fill="#02202c" d="M 383.5,375.5 C 385.677,375.586 387.677,376.253 389.5,377.5C 395.438,376.622 396.772,378.788 393.5,384C 391.419,384.869 389.253,385.369 387,385.5C 368.173,384.877 349.339,384.211 330.5,383.5C 334.377,382.803 338.21,382.136 342,381.5C 342.333,381.833 342.667,382.167 343,382.5C 343.667,381.5 343.667,380.5 343,379.5C 340.667,380.167 338.333,380.833 336,381.5C 330.331,379.67 324.497,379.503 318.5,381C 321.36,382.076 324.36,382.909 327.5,383.5C 315.469,384.168 303.469,385.168 291.5,386.5C 286.247,386.249 280.913,386.082 275.5,386C 276.759,385.077 278.092,384.243 279.5,383.5C 278.046,381.737 278.38,380.403 280.5,379.5C 282.002,380.083 283.335,380.916 284.5,382C 286.167,382.667 287.833,382.667 289.5,382C 288.572,381.612 287.905,380.945 287.5,380C 288.477,377.857 290.144,376.69 292.5,376.5C 296.199,377.652 299.866,377.652 303.5,376.5C 305.183,377.592 307.016,378.259 309,378.5C 315.709,378.483 321.709,378.483 327,378.5C 327.388,377.572 328.055,376.905 329,376.5C 332.415,375.934 336.082,376.6 340,378.5C 344.553,378.131 348.887,378.131 353,378.5C 353.333,377.833 353.667,377.167 354,376.5C 358.598,377.568 363.431,377.568 368.5,376.5C 371.063,376.737 371.063,377.237 368.5,378C 370.5,378.667 372.5,378.667 374.5,378C 373.5,377.667 372.5,377.333 371.5,377C 373,376.833 374.5,376.667 376,376.5C 377.981,376.629 379.647,377.296 381,378.5C 382.045,377.627 382.878,376.627 383.5,375.5 Z"/></g>
<g><path style="opacity:1" fill="#48626c" d="M 258.5,364.5 C 259.482,367.962 259.815,371.629 259.5,375.5C 262.833,375.5 266.167,375.5 269.5,375.5C 266.038,376.482 262.371,376.815 258.5,376.5C 258.5,372.5 258.5,368.5 258.5,364.5 Z"/></g>
<g><path style="opacity:1" fill="#05222e" d="M 138.5,351.5 C 140.044,351.703 141.378,352.37 142.5,353.5C 145.211,351.195 145.878,351.862 144.5,355.5C 144.389,356.117 144.056,356.617 143.5,357C 144.416,357.278 145.082,357.778 145.5,358.5C 144.908,361.127 144.575,363.794 144.5,366.5C 144.796,370.789 146.796,373.789 150.5,375.5C 153.287,376.477 156.287,376.81 159.5,376.5C 159.611,377.117 159.944,377.617 160.5,378C 156.954,379.174 153.287,379.84 149.5,380C 149.982,381.008 150.148,382.175 150,383.5C 150.654,382.304 151.154,382.304 151.5,383.5C 150.271,384.281 148.938,384.781 147.5,385C 152.606,386.332 156.939,385.165 160.5,381.5C 161.88,383.665 163.547,383.999 165.5,382.5C 168.87,384.885 172.037,387.552 175,390.5C 175.483,391.448 175.649,392.448 175.5,393.5C 179.25,393.504 179.917,394.504 177.5,396.5C 175.784,396.371 174.117,396.038 172.5,395.5C 169.729,393.233 167.062,390.733 164.5,388C 154.839,387.5 145.172,387.334 135.5,387.5C 128.385,387.925 121.385,387.425 114.5,386C 112.149,382.948 111.982,379.781 114,376.5C 114.816,375.177 115.983,374.511 117.5,374.5C 123.868,374.83 130.202,374.496 136.5,373.5C 136.376,372.893 136.043,372.56 135.5,372.5C 134.385,367.25 134.219,361.917 135,356.5C 135.697,354.416 136.864,352.749 138.5,351.5 Z"/></g>
<g><path style="opacity:1" fill="#ea9b2a" d="M 247.5,368.5 C 247.5,373.167 247.5,377.833 247.5,382.5C 246.599,384.727 244.933,385.727 242.5,385.5C 240.473,385.662 238.473,385.495 236.5,385C 234.922,383.906 233.255,383.072 231.5,382.5C 231.5,380.167 231.5,377.833 231.5,375.5C 233.199,375.527 234.533,376.194 235.5,377.5C 236.902,381.81 239.402,382.477 243,379.5C 244.337,375.974 244.837,372.308 244.5,368.5C 245.5,368.5 246.5,368.5 247.5,368.5 Z"/></g>
<g><path style="opacity:1" fill="#222113" d="M 187.5,362.5 C 188.583,362.539 189.583,362.873 190.5,363.5C 191.664,369.807 191.831,376.141 191,382.5C 190.535,383.931 189.701,385.097 188.5,386C 182.377,389.765 176.711,389.265 171.5,384.5C 169.194,378.748 169.194,373.081 171.5,367.5C 171.5,369.5 171.5,371.5 171.5,373.5C 171.336,376.187 171.503,378.854 172,381.5C 172.422,383.426 173.589,384.426 175.5,384.5C 180.005,387.218 184.505,386.885 189,383.5C 189.483,382.552 189.649,381.552 189.5,380.5C 190.65,375.684 190.816,370.684 190,365.5C 188.955,364.627 188.122,363.627 187.5,362.5 Z"/></g>
<g><path style="opacity:1" fill="#e5992b" d="M 188.5,368.5 C 189.483,372.298 189.817,376.298 189.5,380.5C 189.649,381.552 189.483,382.552 189,383.5C 184.505,386.885 180.005,387.218 175.5,384.5C 175.167,383.833 174.833,383.167 174.5,382.5C 173.769,380.401 173.769,378.401 174.5,376.5C 175.974,377.436 176.974,378.77 177.5,380.5C 179.5,381.833 181.5,381.833 183.5,380.5C 184.866,377.308 185.699,373.974 186,370.5C 186.708,369.619 187.542,368.953 188.5,368.5 Z"/></g>
<g><path style="opacity:1" fill="#cfa55f" d="M 171.5,373.5 C 171.833,373.5 172.167,373.5 172.5,373.5C 172.068,376.877 172.735,379.877 174.5,382.5C 174.833,383.167 175.167,383.833 175.5,384.5C 173.589,384.426 172.422,383.426 172,381.5C 171.503,378.854 171.336,376.187 171.5,373.5 Z"/></g>
<g><path style="opacity:1" fill="#adbcc6" d="M 285.5,387.5 C 283.762,391.388 280.762,393.888 276.5,395C 270.916,396.647 265.249,397.813 259.5,398.5C 256.639,398.658 253.972,397.992 251.5,396.5C 250.09,396.868 249.09,397.701 248.5,399C 242.34,399.282 236.34,399.449 230.5,399.5C 229.665,398.057 228.332,397.057 226.5,396.5C 228.045,395.548 229.712,395.215 231.5,395.5C 237.678,397.135 243.678,396.635 249.5,394C 250.71,392.961 251.71,391.794 252.5,390.5C 253.627,389.878 254.627,389.045 255.5,388C 265.494,387.5 275.494,387.334 285.5,387.5 Z"/></g>
<g><path style="opacity:1" fill="#05212f" d="M 228.5,373.5 C 226.521,376.446 225.521,379.779 225.5,383.5C 227.483,383.157 228.817,383.824 229.5,385.5C 228.624,385.369 227.957,385.702 227.5,386.5C 229.5,387.167 231.5,387.833 233.5,388.5C 233.167,389.167 232.833,389.833 232.5,390.5C 234.706,392.67 236.706,392.67 238.5,390.5C 240.747,391.374 243.08,391.708 245.5,391.5C 245.238,390.022 245.571,388.689 246.5,387.5C 249.909,385.466 252.909,382.966 255.5,380C 258.596,379.073 260.93,380.073 262.5,383C 260.714,383.785 259.214,384.951 258,386.5C 255.959,385.577 253.792,385.244 251.5,385.5C 251.366,387.292 251.699,388.958 252.5,390.5C 251.71,391.794 250.71,392.961 249.5,394C 243.678,396.635 237.678,397.135 231.5,395.5C 227.84,393.84 225.173,391.173 223.5,387.5C 223.33,386.178 223.663,385.011 224.5,384C 222.567,383.749 220.734,383.249 219,382.5C 218,383.5 217,384.5 216,385.5C 214.174,383.926 212.007,383.093 209.5,383C 211.473,382.505 213.473,382.338 215.5,382.5C 215.351,381.448 215.517,380.448 216,379.5C 216.423,380.956 217.256,381.456 218.5,381C 217.167,379.16 217.334,378.66 219,379.5C 219.374,378.584 219.874,377.75 220.5,377C 220.272,376.601 219.938,376.435 219.5,376.5C 219.5,376.167 219.5,375.833 219.5,375.5C 219.5,372.833 219.5,370.167 219.5,367.5C 221.995,367.031 224.661,367.031 227.5,367.5C 227.517,369.565 227.85,371.565 228.5,373.5 Z"/></g>
<g><path style="opacity:1" fill="#c2974c" d="M 231.5,382.5 C 233.255,383.072 234.922,383.906 236.5,385C 238.473,385.495 240.473,385.662 242.5,385.5C 240.372,386.629 238.039,386.796 235.5,386C 233.45,385.584 232.116,384.417 231.5,382.5 Z"/></g>
<g><path style="opacity:1" fill="#a8bac7" d="M 223.5,387.5 C 225.173,391.173 227.84,393.84 231.5,395.5C 229.712,395.215 228.045,395.548 226.5,396.5C 228.332,397.057 229.665,398.057 230.5,399.5C 214.373,399.47 198.54,399.47 183,399.5C 179.793,399.259 176.626,398.759 173.5,398C 172.748,397.329 172.414,396.496 172.5,395.5C 174.117,396.038 175.784,396.371 177.5,396.5C 185.371,397.325 191.704,394.659 196.5,388.5C 205.475,387.502 214.475,387.168 223.5,387.5 Z"/></g>
<g><path style="opacity:0.956" fill="#b4c1ca" d="M 135.5,387.5 C 145.172,387.334 154.839,387.5 164.5,388C 167.062,390.733 169.729,393.233 172.5,395.5C 172.414,396.496 172.748,397.329 173.5,398C 176.626,398.759 179.793,399.259 183,399.5C 198.54,399.47 214.373,399.47 230.5,399.5C 236.34,399.449 242.34,399.282 248.5,399C 249.09,397.701 250.09,396.868 251.5,396.5C 253.972,397.992 256.639,398.658 259.5,398.5C 226.681,403.654 193.681,403.821 160.5,399C 152.985,397.621 145.651,395.621 138.5,393C 136.393,391.736 135.393,389.903 135.5,387.5 Z"/></g>
</svg>
