<svg xmlns="http://www.w3.org/2000/svg" width="1024" height="1024" style="shape-rendering:geometricPrecision;text-rendering:geometricPrecision;image-rendering:optimizeQuality;fill-rule:evenodd;clip-rule:evenodd"><path style="opacity:1" fill="#fbfdfc" d="M-.5-.5h1024v1024H-.5V-.5Z"/><path style="opacity:1" fill="#02202b" d="M794.5 335.5c-5.1-.72-7.27 1.28-6.5 6-3.67-1.5-5.17-.18-4.5 4a8.43 8.43 0 0 0-4 .5 13.24 13.24 0 0 1-3 5c-4.63 1.79-7.63 4.96-9 9.5a4.4 4.4 0 0 0-4 1.5l2 1a39.88 39.88 0 0 1-9 6l2 1c-1.56 2.66-3.9 3.83-7 3.5a4.85 4.85 0 0 1-1 4 3.65 3.65 0 0 1-1.5-1 11.28 11.28 0 0 0-4.5 6.5c-1.63.5-3.3.66-5 .5.33 3-1 4.33-4 4v6a4.93 4.93 0 0 0-3 .5c.88.7 1.55 1.54 2 2.5a226.07 226.07 0 0 1-29 27.5c-7.46 2.17-13.3 0-17.5-6.5a225.06 225.06 0 0 0-66.5-61.5c-45.36-23.22-90.7-23.22-136 0-36.83 23.13-58.5 56.3-65 99.5a486.6 486.6 0 0 0-43 1c6.74-62.53 37.07-109.7 91-141.5a166.4 166.4 0 0 1 64-19.5 3.3 3.3 0 0 0 2 1.5 10 10 0 0 1-7 1.5v3h16v-3c6.16-.48 12.16.19 18 2a36.47 36.47 0 0 1 20 1.5l-3 1c6.33.67 12.67.67 19 0a252.56 252.56 0 0 0-38-7.5c.46-.8 1.12-1.13 2-1 10.11-.04 20.11.96 30 3a213.06 213.06 0 0 1 64 27c9.66 7.18 19 14.85 28 23 4.66 4.83 9.16 9.83 13.5 15a2550.42 2550.42 0 0 1 41.5-43l-12-13a12.6 12.6 0 0 0-5.5-8 4.93 4.93 0 0 1-.5-3c2.42-.2 4.75.13 7 1a30.17 30.17 0 0 0 3 9 10.53 10.53 0 0 0 4.5-6c.83-5.36.66-10.7-.5-16a20.86 20.86 0 0 1-6.5 3c-.68-3.68.82-6.18 4.5-7.5l-2-2c.5-2.57 1.5-4.9 3-7a18.24 18.24 0 0 0 10 1l2-3a15.42 15.42 0 0 1-7-6 4.93 4.93 0 0 0-3-.5v5a24.96 24.96 0 0 1-7.5-2 10.95 10.95 0 0 1-8.5 2v5a34.45 34.45 0 0 0-11.5-3c-4.37-.13-8.37.87-12 3a5.27 5.27 0 0 0-3.5-3 7.11 7.11 0 0 1-1-5 38.47 38.47 0 0 0 12 2v-4c-5.82 1.2-10.49-.47-14-5 2.25-.82 2.41-1.82.5-3-6.1.85-12.26.85-18.5 0v-4c6.71.3 13.38.97 20 2 .33-3-1-4.33-4-4v-3c-4.02 0-8.02.34-12 1a9.87 9.87 0 0 1-5-2c-5.38 4.28-6.72 3.28-4-3l3-2a15.27 15.27 0 0 1-5.5-3 279.84 279.84 0 0 1-29.5 3c-4.78.1-7.11-2.22-7-7h4v3h8v-3c1.37.16 2.7-.01 4-.5-.83-1.69-1.83-1.85-3-.5a9.87 9.87 0 0 0-5-2c-3.98.66-7.98 1-12 1v-4a4.9 4.9 0 0 0-5 2.5c-6 .67-12 .67-18 0l-2-2c11.65-.77 11.82-1.94.5-3.5a123.34 123.34 0 0 1-39.5 4v3a64.62 64.62 0 0 0-16 1 231.86 231.86 0 0 0-82 19 243.37 243.37 0 0 0-88 67 6.02 6.02 0 0 1-4.5-4c-2 2.24-1.83 4.4.5 6.5-1.3 3.85-2.96 4.18-5 1-2.14-.88-3.8-.38-5 1.5a9.02 9.02 0 0 1 4 3c-1.14.93-1.14 1.76 0 2.5a10.76 10.76 0 0 1-3 2.5 84.38 84.38 0 0 1-4-6.5c-.95-.62-1.78-.45-2.5.5-1.2 4.41-.03 7.91 3.5 10.5l-5.5 9.5c-3.73 1.34-5.56 4.01-5.5 8h-4c.66-3.97 1-7.97 1-12a4.6 4.6 0 0 0-4.5 2 86.75 86.75 0 0 0-2.5 9.5 34 34 0 0 0 8 3.5 28.04 28.04 0 0 0-1.5 5 6.48 6.48 0 0 1-4.5 1c.5 2.3.83 4.64 1 7a75.81 75.81 0 0 1-4 11c-15.92 36.54-22.26 74.88-19 115a100 100 0 0 0-18 38 44.24 44.24 0 0 0-16.5 8c-23.46-110.88 6.37-204.71 89.5-281.5 67.22-57.06 144.55-78.4 232-64 62.54 13.01 115.7 42.51 159.5 88.5a1140.9 1140.9 0 0 0 31 33 21.55 21.55 0 0 1 3 17 4.25 4.25 0 0 1-2.5 3Z"/><path style="opacity:1" fill="#03232e" d="M726.5 306.5a266.52 266.52 0 0 0-29-26l-2-1a211.77 211.77 0 0 0-24-17.5c-39.58-22.69-82.25-33.19-128-31.5a64.62 64.62 0 0 1 16-1v-3c13.44.8 26.6-.54 39.5-4 11.32 1.56 11.15 2.73-.5 3.5l2 2c6 .67 12 .67 18 0a4.9 4.9 0 0 1 5-2.5v4c4.02 0 8.02-.34 12-1 1.88.22 3.55.88 5 2 1.17-1.35 2.17-1.19 3 .5-1.3.49-2.63.66-4 .5v3h-8v-3h-4c-.11 4.78 2.22 7.1 7 7 9.94-.48 19.77-1.48 29.5-3a15.27 15.27 0 0 0 5.5 3l-3 2c-2.72 6.28-1.38 7.28 4 3a9.87 9.87 0 0 0 5 2c3.98-.66 7.98-1 12-1v3c3-.33 4.33 1 4 4a183.03 183.03 0 0 0-20-2v4c6.24.85 12.4.85 18.5 0 1.91 1.18 1.75 2.18-.5 3 3.51 4.53 8.18 6.2 14 5v4c-4.13-.03-8.13-.7-12-2a7.11 7.11 0 0 0 1 5 5.27 5.27 0 0 1 3.5 3 21.94 21.94 0 0 1 12-3c4.1.36 7.93 1.36 11.5 3v-5c3.21.49 6.04-.18 8.5-2a24.96 24.96 0 0 0 7.5 2v-5a4.93 4.93 0 0 1 3 .5 15.42 15.42 0 0 0 7 6l-2 3c-3.57.59-6.9.26-10-1-1.5 2.1-2.5 4.43-3 7l2 2c-3.68 1.32-5.18 3.82-4.5 7.5a20.86 20.86 0 0 0 6.5-3 43.23 43.23 0 0 1 .5 16 10.53 10.53 0 0 1-4.5 6 30.17 30.17 0 0 1-3-9 15.42 15.42 0 0 0-7-1 4.93 4.93 0 0 0 .5 3 12.6 12.6 0 0 1 5.5 8Z"/><path style="opacity:1" fill="#2ee3df" d="M543.5 230.5c45.75-1.69 88.42 8.81 128 31.5a211.77 211.77 0 0 1 24 17.5 16.66 16.66 0 0 1-7.5-4 17.73 17.73 0 0 1-5.5 3 6.8 6.8 0 0 1-1.5-3c-1.36.76-2.53.26-3.5-1.5l1-1a12.15 12.15 0 0 0-7-1.5c-.1-3.03-1.44-4.03-4-3-2.83-2.21-5.17-2.04-7 .5a9.87 9.87 0 0 0-5 2 46.37 46.37 0 0 1 7.5 4.5c1.99-1.96 4.15-1.8 6.5.5a18.92 18.92 0 0 1-5 3 9.96 9.96 0 0 1-.5 9.5 285.73 285.73 0 0 0-12-3c-2.05.2-3.88.86-5.5 2a45.57 45.57 0 0 1-3-7 3.1 3.1 0 0 0-3-1 127.94 127.94 0 0 1-3 16 24.63 24.63 0 0 1 0-13 9.2 9.2 0 0 0-5-5l-1 1c1.48.98 2.82 2.15 4 3.5-2.67 1.67-2.67 3.33 0 5-2.53-.8-5.2-1.13-8-1 1.4 1.02 2.9 1.85 4.5 2.5a12.5 12.5 0 0 1 0 7l-1-1a5.5 5.5 0 0 1-5.5 1.5c.2-1.43.2-2.93 0-4.5-1.61.82-2.28 2.15-2 4a19.05 19.05 0 0 1-6-1 4.33 4.33 0 0 0-3 2.5 11.41 11.41 0 0 1 6 6.5c9.31.6 18.31 1.93 27 4-.3 3.53.7 6.53 3 9a37.14 37.14 0 0 0 4.5-2 7.8 7.8 0 0 0 2.5 5.5 4.6 4.6 0 0 0-2 4.5 213.06 213.06 0 0 0-64-27 42.44 42.44 0 0 1 16-4v-6a32.02 32.02 0 0 0 16-.5c-.46-1.94.54-3.28 3-4-.46-.41-.8-.91-1-1.5a6.47 6.47 0 0 0 3-5 4.93 4.93 0 0 0 3-.5c-5 0-9.34-1.67-13-5l1.5-1.5c1.24 1.92 2.74 2.25 4.5 1-3.22-.95-3.55-2.28-1-4a25.6 25.6 0 0 1-4-4.5 8.28 8.28 0 0 0 0-6.5 4.85 4.85 0 0 0 4-1l-1.5-1a38.9 38.9 0 0 1-9.5 2v8a8.43 8.43 0 0 1-4-.5 22.95 22.95 0 0 0 1-8c-3.54-1.25-3.88-3.09-1-5.5l5 3 2-1-3-3c-1.3.98-2.47.65-3.5-1-4.01 2.38-7.35 2.05-10-1a33.35 33.35 0 0 1-17.5.5c1.9-.97 3.9-1.64 6-2a32.06 32.06 0 0 0-4-2.5 17.18 17.18 0 0 1 8-3.5c-5.32.26-10.65.26-16 0l7-1c.46-.41.8-.91 1-1.5l-4-1a246.8 246.8 0 0 1-52 1v6h-9a4.39 4.39 0 0 0 1 3.5l-7 3.5c-1.66-1.52-2.82-1.19-3.5 1-.85-1.63-1.85-1.96-3-1a6.8 6.8 0 0 0-1.5-3 23.91 23.91 0 0 0-.5 4c-1.92-2.53-3.92-2.53-6 0a14.97 14.97 0 0 1-3.5-3 63.66 63.66 0 0 1-20 3.5c-3.27 2.9-6.94 3.23-11 1l1-1a32.3 32.3 0 0 0 10-2.5c1.09-1.1 1.09-2.1 0-3a33.95 33.95 0 0 1-13 4 231.86 231.86 0 0 1 82-19Z"/><path style="opacity:1" fill="#022b2e" d="M561.5 294.5c-.88-.13-1.54.2-2 1a252.56 252.56 0 0 1 38 7.5c-6.33.67-12.67.67-19 0l3-1a36.47 36.47 0 0 0-20-1.5 47.68 47.68 0 0 0-18-2v3h-16v-3a10 10 0 0 0 7-1.5 3.3 3.3 0 0 1-2-1.5 75.82 75.82 0 0 1 18.5-2c3.68 0 7.18.33 10.5 1Z"/><path style="opacity:1" fill="#28e7e0" d="m695.5 279.5 2 1a3.92 3.92 0 0 0 2 3.5c-2.44 1.96-4.11 1.3-5-2a18.6 18.6 0 0 1-6.5-3.5c-.32 4.05 1.5 6.88 5.5 8.5-1.89 3.84-2.55 8-2 12.5h4a4.71 4.71 0 0 0-2-4c1.68-1 3.02-.5 4 1.5a64.97 64.97 0 0 1-2 7 6.3 6.3 0 0 1 4 .5 11.62 11.62 0 0 0-3 5l1 2 2-4c1.25 1.5 1.25 3 0 4.5-2.4.29-4.72.79-7 1.5-1.11 1.22-1.28 2.56-.5 4a3.27 3.27 0 0 1 3.5-2v4c-2.62-.27-5.12.06-7.5 1 .01 6.47-.15 12.8-.5 19h-3v-4c-3.31.36-6.64.7-10 1a57.9 57.9 0 0 1 8.5 6l2.5 3.5c-.34 1.03-1 1.53-2 1.5-9-8.15-18.34-15.82-28-23a4.6 4.6 0 0 1 2-4.5 7.8 7.8 0 0 1-2.5-5.5 37.14 37.14 0 0 1-4.5 2 11.18 11.18 0 0 1-3-9 160.91 160.91 0 0 0-27-4 11.41 11.41 0 0 0-6-6.5 4.33 4.33 0 0 1 3-2.5c1.95.66 3.95.99 6 1-.28-1.85.39-3.18 2-4 .2 1.57.2 3.07 0 4.5a5.5 5.5 0 0 0 5.5-1.5l1 1a12.5 12.5 0 0 0 0-7c-1.6-.65-3.1-1.48-4.5-2.5 2.8-.13 5.47.2 8 1-2.67-1.67-2.67-3.33 0-5a19.89 19.89 0 0 0-4-3.5l1-1c2.33 1 4 2.67 5 5a24.63 24.63 0 0 0 0 13 127.94 127.94 0 0 0 3-16 3.1 3.1 0 0 1 3 1c.8 2.43 1.8 4.76 3 7a11.15 11.15 0 0 1 5.5-2c4.06.92 8.06 1.92 12 3a9.96 9.96 0 0 0 .5-9.5c1.83-.75 3.5-1.75 5-3-2.35-2.3-4.51-2.46-6.5-.5a46.37 46.37 0 0 0-7.5-4.5 9.87 9.87 0 0 1 5-2c1.83-2.54 4.17-2.71 7-.5 2.56-1.03 3.9-.03 4 3 2.49-.2 4.82.3 7 1.5l-1 1c.97 1.76 2.14 2.26 3.5 1.5a6.8 6.8 0 0 0 1.5 3c2-.67 3.84-1.67 5.5-3a16.66 16.66 0 0 0 7.5 4Z"/><path style="opacity:1" fill="#2ce4df" d="M697.5 280.5a266.52 266.52 0 0 1 29 26l12 13a2550.42 2550.42 0 0 0-41.5 43 289.89 289.89 0 0 0-13.5-15c1 .03 1.66-.47 2-1.5l-2.5-3.5a57.9 57.9 0 0 0-8.5-6c3.36-.3 6.69-.64 10-1v4h3c.35-6.2.51-12.53.5-19a15.82 15.82 0 0 1 7.5-1v-4a3.27 3.27 0 0 0-3.5 2c-.78-1.44-.61-2.78.5-4 2.28-.71 4.6-1.21 7-1.5 1.25-1.5 1.25-3 0-4.5l-2 4-1-2c.57-1.9 1.57-3.57 3-5a6.3 6.3 0 0 0-4-.5c.79-2.27 1.46-4.6 2-7-.98-2-2.32-2.5-4-1.5a4.71 4.71 0 0 1 2 4h-4c-.55-4.5.11-8.66 2-12.5-4-1.62-5.82-4.45-5.5-8.5a18.6 18.6 0 0 0 6.5 3.5c.89 3.3 2.56 3.96 5 2a3.92 3.92 0 0 1-2-3.5Z"/><path style="opacity:1" fill="#022c33" d="M373.5 316.5a418.15 418.15 0 0 0-34 51c-.17-2.36-.5-4.7-1-7a6.48 6.48 0 0 0 4.5-1c.35-1.72.85-3.38 1.5-5a34 34 0 0 1-8-3.5c.65-3.2 1.48-6.36 2.5-9.5a4.6 4.6 0 0 1 4.5-2c0 4.03-.34 8.03-1 12h4c-.06-3.99 1.77-6.66 5.5-8l5.5-9.5c-3.53-2.59-4.7-6.09-3.5-10.5.72-.95 1.55-1.12 2.5-.5a84.38 84.38 0 0 0 4 6.5 10.76 10.76 0 0 0 3-2.5c-1.14-.74-1.14-1.57 0-2.5a9.02 9.02 0 0 0-4-3c1.2-1.88 2.86-2.38 5-1.5 2.04 3.18 3.7 2.85 5-1-2.33-2.1-2.5-4.26-.5-6.5a6.02 6.02 0 0 0 4.5 4Z"/><path style="opacity:1" fill="#0f2b2b" d="M794.5 335.5a1292.64 1292.64 0 0 1-60 61 7.06 7.06 0 0 0-2-2.5 4.93 4.93 0 0 1 3-.5v-6c3 .33 4.33-1 4-4 1.7.16 3.37 0 5-.5a11.28 11.28 0 0 1 4.5-6.5c.41.46.91.8 1.5 1a4.85 4.85 0 0 0 1-4c3.1.33 5.44-.84 7-3.5l-2-1a39.88 39.88 0 0 0 9-6l-2-1a4.4 4.4 0 0 1 4-1.5c1.37-4.54 4.37-7.71 9-9.5a13.24 13.24 0 0 0 3-5 8.43 8.43 0 0 1 4-.5c-.67-4.18.83-5.5 4.5-4-.77-4.72 1.4-6.72 6.5-6Z"/><path style="opacity:1" fill="#2be6e0" d="M591.5 297.5a144.68 144.68 0 0 0-30-3 53.4 53.4 0 0 0-10.5-1c-6.4-.08-12.56.59-18.5 2a166.4 166.4 0 0 0-64 19.5c-53.93 31.8-84.26 78.97-91 141.5a471.96 471.96 0 0 0-28 9.5 26.49 26.49 0 0 1-10 6 214.87 214.87 0 0 0-18 16.5c-1.84-.7-2.34-2.04-1.5-4a59.86 59.86 0 0 1 7-6l1-7a9.09 9.09 0 0 1 5.5-1 3.1 3.1 0 0 0 1 3 16.87 16.87 0 0 0 1-8c-3.8-.09-7.47.58-11 2a4.85 4.85 0 0 1-1-4 7.77 7.77 0 0 0 6-1.5 5 5 0 0 1 0-6c-.97-2.1-2.3-3.93-4-5.5 2.53-1.32 2.53-2.48 0-3.5 0-4.2 1-8.37 3-12.5 5.18-1.28 5.18-1.94 0-2-.32-3.73.01-7.4 1-11 .59.2 1.09.54 1.5 1l1 8a4.39 4.39 0 0 0 3.5 1 1326.4 1326.4 0 0 1-3-20.5c.52-2.34.52-4.5 0-6.5a3.1 3.1 0 0 1 3-1 11.16 11.16 0 0 0-2-6 52.53 52.53 0 0 0 2-19 75.81 75.81 0 0 0 4-11 418.15 418.15 0 0 1 34-51 243.37 243.37 0 0 1 88-67c4.57-.45 8.9-1.78 13-4 1.09.9 1.09 1.9 0 3a32.3 32.3 0 0 1-10 2.5l-1 1c4.06 2.23 7.73 1.9 11-1a63.66 63.66 0 0 0 20-3.5 14.97 14.97 0 0 0 3.5 3c2.08-2.53 4.08-2.53 6 0 .08-1.59.25-2.92.5-4a6.8 6.8 0 0 1 1.5 3c1.15-.96 2.15-.63 3 1 .68-2.19 1.84-2.52 3.5-1l7-3.5a4.39 4.39 0 0 1-1-3.5h9v-6a246.8 246.8 0 0 0 52-1l4 1c-.2.59-.54 1.09-1 1.5l-7 1c5.35.26 10.68.26 16 0a17.18 17.18 0 0 0-8 3.5c1.4.74 2.74 1.58 4 2.5-2.1.36-4.1 1.03-6 2a33.35 33.35 0 0 0 17.5-.5c2.65 3.05 5.99 3.38 10 1 1.03 1.65 2.2 1.98 3.5 1l3 3-2 1-5-3c-2.88 2.41-2.54 4.25 1 5.5.16 2.56-.17 5.23-1 8 1.3.49 2.63.66 4 .5v-8a38.9 38.9 0 0 0 9.5-2l1.5 1a4.85 4.85 0 0 1-4 1 8.28 8.28 0 0 1 0 6.5 25.6 25.6 0 0 0 4 4.5c-2.55 1.72-2.22 3.05 1 4-1.76 1.25-3.26.92-4.5-1l-1.5 1.5c3.66 3.33 8 5 13 5-.95.48-1.95.65-3 .5a6.47 6.47 0 0 1-3 5c.2.59.54 1.09 1 1.5-2.46.72-3.46 2.06-3 4a32.02 32.02 0 0 1-16 .5v6a42.44 42.44 0 0 0-16 4Z"/><path style="opacity:1" fill="#37e1e1" d="M335.5 378.5c.5 6.49-.18 12.82-2 19a11.16 11.16 0 0 1 2 6 3.1 3.1 0 0 0-3 1c.52 2 .52 4.16 0 6.5.95 6.86 1.95 13.7 3 20.5a4.39 4.39 0 0 1-3.5-1l-1-8c-.41-.46-.91-.8-1.5-1a31.12 31.12 0 0 0-1 11c5.18.06 5.18.72 0 2-2 4.13-3 8.3-3 12.5 2.53 1.02 2.53 2.18 0 3.5 1.7 1.57 3.03 3.4 4 5.5a5 5 0 0 0 0 6 7.77 7.77 0 0 1-6 1.5 4.85 4.85 0 0 0 1 4 27.44 27.44 0 0 1 11-2c.31 2.75-.02 5.41-1 8a3.1 3.1 0 0 1-1-3c-1.97-.24-3.8.1-5.5 1l-1 7a59.86 59.86 0 0 0-7 6c-.84 1.96-.34 3.3 1.5 4a28.07 28.07 0 0 1-5 5c-3.26-40.12 3.08-78.46 19-115Z"/><path style="opacity:1" fill="#04212b" d="M583.5 794.5c-20-.17-40 0-60 .5a39.7 39.7 0 0 1-17 14.5c-.6-.65-1.26-1.32-2-2 1.64-2.43 3.98-3.43 7-3 .92-4.53 1.92-9.03 3-13.5a38.4 38.4 0 0 1-3.5-11.5c-1.84 3.07-1.67 5.9.5 8.5l-1 1.5a6.04 6.04 0 0 0-5-2c1.6 3 3.6 5.84 6 8.5l-1 1.5a5.34 5.34 0 0 0-6-1.5 4.39 4.39 0 0 0-1 3.5 30.74 30.74 0 0 0-6.5 3 61.7 61.7 0 0 1-17.5-5v-3c1.6.27 2.93-.07 4-1 4.68.17 9.35 0 14-.5a7.65 7.65 0 0 0 5-3.5 32.28 32.28 0 0 0 8-11c1.32-9.9 1.32-19.9 0-30 .6-.24.93-.74 1-1.5a6.44 6.44 0 0 1-1-7.5l2 4a16.87 16.87 0 0 0 1-8c5.71.3 6.05-1.53 1-5.5a4.93 4.93 0 0 0-3-.5v5a109.26 109.26 0 0 1-15-12.5 5.9 5.9 0 0 1 6-2.5c.17-5.68 0-11.34-.5-17-1-1.33-2-1.33-3 0a20.5 20.5 0 0 1-2.5-3.5 14.97 14.97 0 0 0 3-3.5c-1.95-1.78-2.28-3.78-1-6a4.85 4.85 0 0 1 1 4h3a5.85 5.85 0 0 0-2.5-6 128.5 128.5 0 0 1-.5-16h-4v-8h-3c-.68 3.6-1.51 3.27-2.5-1-.38.56-.88.89-1.5 1v-6h-115v60c3.07-.13 6.07.2 9 1a83.03 83.03 0 0 1-13 1.5l-1.5 1.5a7.1 7.1 0 0 0-6.5-2v-16h-4c.2 4.63-.48 9.13-2 13.5-.21 1.9-1.21 3.07-3 3.5.17-14.67 0-29.34-.5-44a4.3 4.3 0 0 0-1.5 2 56.58 56.58 0 0 0-14.5 33 38.47 38.47 0 0 0 5.5 5l1 2c-1.73.5-2.07 1.34-1 2.5-1.04 4.67-3.37 5.5-7 2.5a37.14 37.14 0 0 0-4.5 2 5 5 0 0 0-3.5-2.5c1.25-3 2.59-5.84 4-8.5-4-.33-4-.67 0-1-.51-3.76.82-7.1 4-10l2-10c.59.2 1.09.54 1.5 1 1.2-2.05 1.54-4.05 1-6a66.39 66.39 0 0 0 5.5-10c2.51-.7 3.18-2.03 2-4l3-2.5c-2.56-.92-4.73-.42-6.5 1.5a4.6 4.6 0 0 0-2.5-2.5c1.33-1.33 1.33-2.67 0-4 2.26-.24 4.43-.74 6.5-1.5.67-3.33.67-6.67 0-10l-1.5-1.5a79.78 79.78 0 0 0-7-3 14.5 14.5 0 0 0 5 4 6.87 6.87 0 0 0-3 4.5c.55 1.5.55 3.17 0 5-5.66.83-9.33 4-11 9.5l1 1a71.76 71.76 0 0 0-11 13.5 78.78 78.78 0 0 1 20-30.5c-3.2-3.04-6.2-6.2-9-9.5.57-4.3 1.23-4.64 2-1a4.93 4.93 0 0 0 3-.5 56.92 56.92 0 0 1-4-16l1-1a8.8 8.8 0 0 1-4.5-4.5l-1 4c-.58-4.42-3.08-6.42-7.5-6a99.14 99.14 0 0 1 0-16h3c-.27-14.69.07-29.35 1-44a402.52 402.52 0 0 1-1.5-20c-.67 10.67-1.33 10.67-2 0a6.98 6.98 0 0 1-3.5 2.5 8.56 8.56 0 0 1 3 6.5c-2.75-.31-5.41.02-8 1 7.92 1.15 7.92 1.98 0 2.5l-1 1c.8.3 1.48.8 2 1.5-1.13.76-2.3 1.43-3.5 2a9.09 9.09 0 0 0-5.5-1 8.43 8.43 0 0 0-.5-4c-2.37.23-4.87.4-7.5.5-.75 1.49-1.59 1.65-2.5.5-.17 2.35.16 4.68 1 7 .49-1.3.66-2.63.5-4h4c-.36 2.41.64 3.91 3 4.5a9 9 0 0 0 6.5-1.5 29 29 0 0 1 4.5 3c-5.03 1.7-8.37 5.03-10 10h-3a43.5 43.5 0 0 0 2 15 6.3 6.3 0 0 0 4 .5c1.69 3.96 4.69 5.46 9 4.5a5.54 5.54 0 0 1-3 1.5c2.2 2.35 4.7 2.85 7.5 1.5.5 1.97.66 3.97.5 6a20.6 20.6 0 0 0-8 3c-2.04-2.48-4.7-3.48-8-3-.47-4-2.47-7.17-6-9.5h-4l2-2a8.8 8.8 0 0 0-5-1.5c-.59-6.9-.59-13.57 0-20l-2-1a34.74 34.74 0 0 1-3 10 10.26 10.26 0 0 1-1.5-4c-.5 3.32-.67 6.65-.5 10-2.67-19.14 5-32.64 23-40.5 1.97-.5 3.97-.66 6-.5 4.67-30.17 20.67-52 48-65.5a81.45 81.45 0 0 1 31-7c24-.17 48-.67 72-1.5a1370.4 1370.4 0 0 0 18-30.5c-8.44-16.69-4.44-29.35 12-38 15.55-3.64 26.38 1.86 32.5 16.5 2.1 19.47-6.57 30.47-26 33-4.7 7.2-9.2 14.54-13.5 22 35.2 10.54 55.87 33.87 62 70 18.44 3.6 28.77 14.78 31 33.5-1.17 20.57-11.84 32.4-32 35.5-3.05 17.6-11.38 32.1-25 43.5a90.9 90.9 0 0 1 25 46.5c21.1 1.94 33.94 13.27 38.5 34a45.07 45.07 0 0 1-4.5 28.5l222 1c10.02 3.68 13.19 10.51 9.5 20.5a15.82 15.82 0 0 1-9.5 6.5c-73.33.5-146.67.67-220 .5Z"/><path style="opacity:1" fill="#011f31" d="M479.5 482.5c2.93.8 5.93 1.13 9 1-.17 4.82 2.16 6.82 7 6v6h-8v-3a11.16 11.16 0 0 1-6-2l-94 2c-4.1-.51-8.1-1.34-12-2.5 2.8-1.11 3.8-2.95 3-5.5l2-1c3.43 1.56 7.1 2.4 11 2.5l36 1.5c17.31-.42 34.64-.42 52 0v-5Z"/><path style="opacity:1" fill="#f2f5f5" d="M518.5 520.5a25.9 25.9 0 0 1-16 5 47.7 47.7 0 0 0-27-16.5c-30-.67-60-.67-90 0-12.45 2.55-22.12 9.05-29 19.5a36.94 36.94 0 0 0-9.5 20 702.15 702.15 0 0 0 0 53 49.52 49.52 0 0 0 6.5 19c.09 1-.25 1.83-1 2.5a97.98 97.98 0 0 0-12 5.5 52.9 52.9 0 0 1-7.5-21c-.67-21.67-.67-43.33 0-65 6.4-27.07 23.24-43.24 50.5-48.5 32-.67 64-.67 96 0 16.72 3.59 29.72 12.42 39 26.5Z"/><path style="opacity:1" fill="#001e30" d="M391.5 511.5c17.35.78 34.68.78 52 0 7.93 3.32 15.77 3.32 23.5 0l3.5 1-9 6.5 2 1a523.73 523.73 0 0 1-64 1.5v-7h-8v-3Z"/><path style="opacity:1" fill="#f8f9f3" d="M492.5 546.5c-1.15.3-1.82 1.12-2 2.5.58 2.14.91 4.3 1 6.5a6.48 6.48 0 0 1-5-3 21.82 21.82 0 0 0-6-9h-1a21.78 21.78 0 0 0-9-6 5.54 5.54 0 0 0-3-1.5c-22.84-.83-45.5-.66-68 .5-2.69-.16-5.35 0-8 .5a3.3 3.3 0 0 0-2 1.5 20.92 20.92 0 0 0-10 5 63.59 63.59 0 0 0-6 13.5c-1.74.65-3.4.49-5-.5a16.87 16.87 0 0 1-1-8c3.6-10.67 10.94-17.5 22-20.5 26.67-.67 53.33-.67 80 0 11.13 1.97 18.8 8.14 23 18.5Z"/><path style="opacity:1" fill="#f6d687" d="M399.5 536.5a772.83 772.83 0 0 1 68-.5c1.24.23 2.24.73 3 1.5-23.64-.96-47.3-1.3-71-1Z"/><path style="opacity:1" fill="#f2be4a" d="M399.5 536.5c23.7-.3 47.36.04 71 1a21.78 21.78 0 0 1 9 6 225.77 225.77 0 0 0-16-3c-24.72.46-49.38-.21-74-2a3.3 3.3 0 0 1 2-1.5c2.65-.5 5.31-.66 8-.5Z"/><path style="opacity:1" fill="#f8bc3f" d="M389.5 538.5a812.65 812.65 0 0 0 74 2 150.19 150.19 0 0 1-30 2.5c7.33.5 14.66.67 22 .5v3h-8v5c3.43.74 3.6 2.4.5 5a4.93 4.93 0 0 1-.5-3 8.77 8.77 0 0 0-7 2l-2-4c-1.32 2.53-2.48 2.53-3.5 0l-2 2a79.71 79.71 0 0 0-1.5 21c-6.95-1.54-11.28.96-13 7.5-.95.48-1.95.65-3 .5-1.44-3.9-1.27-.23.5 11 3.03-2.57 5.86-2.57 8.5 0-7.18-1.3-10.01 1.7-8.5 9 1.1 1.2 1.93 2.53 2.5 4a11.74 11.74 0 0 0 3 5c-3.27-.67-4.93-2.34-5-5-1.9.85-3.9 1.18-6 1 .15-2.44-.69-3.1-2.5-2-1.92-2.53-3.92-2.53-6 0 .23-2.75 1.73-4.75 4.5-6-.85-1.5-2.18-2.16-4-2a54.83 54.83 0 0 1-14 4l1 2a4.71 4.71 0 0 0-2 4h-4a5.9 5.9 0 0 0-2.5-6 25.24 25.24 0 0 0 0 10 44.84 44.84 0 0 1 18.5-1 90.35 90.35 0 0 1-20 5c-5.56-1.56-8.56-5.23-9-11h-3c-.4-1.68-.9-3.35-1.5-5-.5-15.66-.67-31.33-.5-47v-1l2-3c-.31 2.75.02 5.41 1 8a5.44 5.44 0 0 0 5 .5 63.59 63.59 0 0 1 6-13.5 20.92 20.92 0 0 1 10-5Z"/><path style="opacity:1" fill="#fdba3e" d="M463.5 540.5c5.45.82 10.78 1.82 16 3h1c.77 5.3 1.1 10.63 1 16a3.27 3.27 0 0 0 3.5-2 24.9 24.9 0 0 1 2 13 7.06 7.06 0 0 0-2.5-2 19.6 19.6 0 0 1-2-3.5 79.12 79.12 0 0 1-12-2.5c-3.33.55-6.66 1.05-10 1.5a2.86 2.86 0 0 0-1 2.5c-.47 1.4-1.47 2.07-3 2a37.4 37.4 0 0 0-5.5 5 44.43 44.43 0 0 0 1.5 18h-4c-.33-6.67-.67-6.67-1 0-4.45.22-8.79.22-13 0a4.85 4.85 0 0 0-1 4 14.6 14.6 0 0 1-9-2c-2.64-2.57-5.47-2.57-8.5 0-1.77-11.23-1.94-14.9-.5-11a4.93 4.93 0 0 0 3-.5c1.72-6.54 6.05-9.04 13-7.5a79.71 79.71 0 0 1 1.5-21l2-2c1.02 2.53 2.18 2.53 3.5 0l2 4a8.77 8.77 0 0 1 7-2 4.93 4.93 0 0 0 .5 3c3.1-2.6 2.93-4.26-.5-5v-5h8v-3c-7.34.17-14.67 0-22-.5 10.38.15 20.38-.69 30-2.5Z"/><path style="opacity:1" fill="#fef2b3" d="M492.5 546.5c.26 3.77-.08 7.44-1 11h-4a20.69 20.69 0 0 0-1-5 6.48 6.48 0 0 0 5 3 29.5 29.5 0 0 0-1-6.5c.18-1.38.85-2.2 2-2.5Z"/><path style="opacity:1" fill="#a0b0be" d="M518.5 520.5a50.38 50.38 0 0 1 9.5 21c.67 23 .67 46 0 69a49.19 49.19 0 0 1-17.5 30.5 16.2 16.2 0 0 1-3.5 1.5 58.05 58.05 0 0 0-18.5-4.5c13.87-7.89 22.37-19.72 25.5-35.5.67-17.67.67-35.33 0-53a57.38 57.38 0 0 0-11.5-24 25.9 25.9 0 0 0 16-5Z"/><path style="opacity:1" fill="#e8c16e" d="M492.5 546.5c.85 1.17 1.51 2.5 2 4 .33 17.17 0 34.17-1 51 .65-15.04-.02-29.7-2-44a34.32 34.32 0 0 0 1-11Z"/><path style="opacity:1" fill="#ecefe6" d="M312.5 565.5c.52 3.98.85 7.98 1 12-.67 0-1 .33-1 1-3.21-.31-6.21.02-9 1v2a9.6 9.6 0 0 1-1-6c1.63-4.97 4.97-8.3 10-10Z"/><path style="opacity:1" fill="#0d201d" d="M479.5 568.5v1a23.15 23.15 0 0 1-16 1 3.1 3.1 0 0 1-1 3c-1.33-1.85-1-3.35 1-4.5-2.56-.6-4.9-.1-7 1.5v-2c1.53.07 2.53-.6 3-2a27.2 27.2 0 0 1 15-1.5c2.08.7 3.75 1.86 5 3.5Z"/><path style="opacity:1" fill="#e1be5b" d="M484.5 568.5a35.07 35.07 0 0 1 3.5 17 22.37 22.37 0 0 1-4.5 6c.4-1.78 1.06-3.45 2-5v-2c1.49-5.43.32-10.43-3.5-15a2.86 2.86 0 0 0-2.5-1 10.18 10.18 0 0 0-5-3.5 27.2 27.2 0 0 0-15 1.5c-.09-1 .25-1.83 1-2.5 3.34-.45 6.67-.95 10-1.5a79.12 79.12 0 0 0 12 2.5 19.6 19.6 0 0 0 2 3.5Z"/><path style="opacity:1" fill="#27290f" d="M479.5 568.5c1-.09 1.83.25 2.5 1 3.82 4.57 4.99 9.57 3.5 15 .16-1.7 0-3.37-.5-5a38.09 38.09 0 0 0-5.5-10v-1Z"/><path style="opacity:1" fill="#f3f0e7" d="M558.5 577.5c-2.89.75-5.89 1.41-9 2 .17-1-.16-1.66-1-2v-12c5.82 1.83 9.15 5.83 10 12Z"/><path style="opacity:1" fill="#032429" d="M364.5 559.5v16a26.75 26.75 0 0 0-2 10.5c.36 7.17.7 14.34 1 21.5h-3l-1-16h-3l-1-32h3c-.33 5.38 0 10.7 1 16 1-7.98 1-15.98 0-24l1-8c1 5.3 1.33 10.63 1 16h3Z"/><path style="opacity:1" fill="#041f2b" d="M479.5 569.5a38.09 38.09 0 0 1 5.5 10c.5 1.63.66 3.3.5 5v2c-.9-1.1-1.73-1.1-2.5 0a29.14 29.14 0 0 1-2.5-5 30.28 30.28 0 0 0 0 10c-3.93.33-7.93.5-12 .5l5 3.5a16.99 16.99 0 0 1-13-1.5 6.13 6.13 0 0 1-3-5c.89-2.8 1.05-5.64.5-8.5a9.87 9.87 0 0 0-2 5c-.67 1.33-1.33 1.33-2 0-.5-3.32-.67-6.65-.5-10a6.6 6.6 0 0 1 3-5 7.96 7.96 0 0 1 7-1.5c-2 1.15-2.33 2.65-1 4.5a3.1 3.1 0 0 0 1-3 23.15 23.15 0 0 0 16-1Z"/><path style="opacity:1" fill="#0d1d1b" d="M383.5 566.5c3.81 3.05 3.15 4.22-2 3.5a4.39 4.39 0 0 0-1 3.5 7.77 7.77 0 0 1 6 1.5c-1.3.49-2.63.66-4 .5a7.2 7.2 0 0 1-2 6 20.06 20.06 0 0 0-4-6l1-4 6-5Z"/><path style="opacity:1" fill="#112319" d="M408.5 578.5c.7 7.95-2.3 13.95-9 18a25.46 25.46 0 0 1-12 1.5 26.35 26.35 0 0 1-10-6.5 27.3 27.3 0 0 1-2-10.5c0-2.03.34-3.87 1-5.5a22.6 22.6 0 0 0 7 18.5c7.01 3.88 13.35 3.04 19-2.5a8.72 8.72 0 0 0 .5-7 58.52 58.52 0 0 0-3.5-10l1-1c1.37 1.62 3.04 2.12 5 1.5a7.05 7.05 0 0 1-2.5-4.5 7.25 7.25 0 0 0-2.5-2c-3.51 3.22-7.51 4.22-12 3a13.57 13.57 0 0 0 7-3.5l-12-1.5c8.53-4.12 16.03-2.46 22.5 5a15.43 15.43 0 0 1 2.5 7Z"/><path style="opacity:1" fill="#e49f36" d="M558.5 577.5a6.86 6.86 0 0 1 1 5 13.48 13.48 0 0 1-8 9c-1.92-3.53-2.59-7.53-2-12 3.11-.59 6.11-1.25 9-2Z"/><path style="opacity:1" fill="#77501c" d="M494.5 550.5c1.16 17.16 1.33 34.5.5 52-.38.56-.88.89-1.5 1v-2a650.6 650.6 0 0 0 1-51Z"/><path style="opacity:1" fill="#031f2c" d="m383.5 566.5 12 1.5a13.57 13.57 0 0 1-7 3.5c4.49 1.22 8.49.22 12-3a7.25 7.25 0 0 1 2.5 2 7.05 7.05 0 0 0 2.5 4.5c-1.96.62-3.63.12-5-1.5l-1 1a58.52 58.52 0 0 1 3.5 10c.81 2.4.65 4.74-.5 7-5.65 5.54-11.99 6.38-19 2.5a22.6 22.6 0 0 1-7-18.5 20.06 20.06 0 0 1 4 6 7.2 7.2 0 0 0 2-6c1.37.16 2.7-.01 4-.5a7.77 7.77 0 0 0-6-1.5 4.39 4.39 0 0 1 1-3.5c5.15.72 5.81-.45 2-3.5Z"/><path style="opacity:1" fill="#dbac5a" d="M456.5 568.5v2a6.6 6.6 0 0 0-3 5 19.3 19.3 0 0 0 2 16h-3a44.43 44.43 0 0 1-1.5-18 37.4 37.4 0 0 1 5.5-5Z"/><path style="opacity:1" fill="#d1b25f" d="m377.5 571.5-1 4c-.66 1.63-1 3.47-1 5.5a27.3 27.3 0 0 0 2 10.5c-1.09-.12-1.75-.79-2-2a29.21 29.21 0 0 1-2-7c.75-3.63 1.08-7.3 1-11h3Z"/><path style="opacity:1" fill="#7f795a" d="M548.5 577.5c.84.34 1.17 1 1 2-.59 4.47.08 8.47 2 12-.32 1.55-1.32 2.22-3 2v-16Z"/><path style="opacity:1" fill="#edbf52" d="M452.5 591.5h3c9.14 9.17 18.47 9.17 28 0v3a7.06 7.06 0 0 1-2 2.5 57.27 57.27 0 0 1-23 2 4.39 4.39 0 0 1-1-3.5c-2.63-.6-5.3-.92-8-1a22.1 22.1 0 0 0 2 9.5c-1.3.49-2.63.66-4 .5v3c-2.81 1.6-5.81 3.1-9 4.5-5.85.82-11.51.65-17-.5 5.01.17 10.01 0 15-.5a5.7 5.7 0 0 0 5-3.5c4.27-4.04 4.93-8.54 2-13.5a16.2 16.2 0 0 0-3.5-1.5 76.88 76.88 0 0 1-9.5 5 12.8 12.8 0 0 1-6-3v-1a14.6 14.6 0 0 0 9 2 4.85 4.85 0 0 1 1-4c4.21.22 8.55.22 13 0 .33-6.67.67-6.67 1 0h4Z"/><path style="opacity:1" fill="#201c0e" d="M559.5 582.5a20.1 20.1 0 0 1-4.5 11c-2.38 2.45-4.55 2.45-6.5 0 1.68.22 2.68-.45 3-2a13.48 13.48 0 0 0 8-9Z"/><path style="opacity:1" fill="#1d2516" d="M453.5 575.5c-.17 3.35 0 6.68.5 10 .67 1.33 1.33 1.33 2 0a9.87 9.87 0 0 1 2-5c.55 2.86.39 5.7-.5 8.5a6.13 6.13 0 0 0 3 5 16.99 16.99 0 0 0 13 1.5l-5-3.5c4.07 0 8.07-.17 12-.5a30.28 30.28 0 0 1 0-10 29.14 29.14 0 0 0 2.5 5c.77-1.1 1.6-1.1 2.5 0a16.34 16.34 0 0 0-2 5c-9.53 9.17-18.86 9.17-28 0a19.3 19.3 0 0 1-2-16Z"/><path style="opacity:1" fill="#dabf65" d="M408.5 578.5c1.85 5.9.85 11.4-3 16.5a10.1 10.1 0 0 1-6 1.5c6.7-4.05 9.7-10.05 9-18Z"/><path style="opacity:1" fill="#051f2f" d="M330.5 648.5a66.6 66.6 0 0 1-17-35c-16.3-1.96-26.3-10.96-30-27-.17-3.35 0-6.68.5-10 .22 1.44.72 2.77 1.5 4a34.74 34.74 0 0 0 3-10l2 1c-.59 6.43-.59 13.1 0 20 1.8 0 3.48.5 5 1.5l-2 2h4c3.53 2.33 5.53 5.5 6 9.5 3.3-.48 5.96.52 8 3a20.6 20.6 0 0 1 8-3c.16-2.03 0-4.03-.5-6-2.8 1.35-5.3.85-7.5-1.5a5.54 5.54 0 0 0 3-1.5c.42-.76.76-1.6 1-2.5-.59-4.65-1.25-9.15-2-13.5v-2c-.15-4.02-.48-8.02-1-12a29 29 0 0 0-4.5-3 9 9 0 0 1-6.5 1.5c-2.36-.59-3.36-2.09-3-4.5h-4a8.43 8.43 0 0 1-.5 4 16.85 16.85 0 0 1-1-7c.91 1.15 1.75.99 2.5-.5 2.63-.1 5.13-.27 7.5-.5.49 1.3.66 2.63.5 4 1.97-.24 3.8.1 5.5 1 1.2-.57 2.37-1.24 3.5-2-.52-.7-1.2-1.2-2-1.5l1-1c7.92-.52 7.92-1.35 0-2.5a16.87 16.87 0 0 1 8-1 8.56 8.56 0 0 0-3-6.5 6.98 6.98 0 0 0 3.5-2.5c.67 10.67 1.33 10.67 2 0 .33 6.68.83 13.35 1.5 20a538.48 538.48 0 0 0-1 44h-3a99.14 99.14 0 0 0 0 16c4.42-.42 6.92 1.58 7.5 6l1-4a8.8 8.8 0 0 0 4.5 4.5l-1 1a56.92 56.92 0 0 0 4 16c-.95.48-1.95.65-3 .5-.77-3.64-1.43-3.3-2 1Z"/><path style="opacity:1" fill="#0f1e18" d="M302.5 575.5a9.6 9.6 0 0 0 1 6v1c.4 4.07 2.4 7.07 6 9a6.9 6.9 0 0 0 3 2c1-4.62 1.33-9.29 1-14 .75 4.35 1.41 8.85 2 13.5-.24.9-.58 1.74-1 2.5-4.31.96-7.31-.54-9-4.5a6.3 6.3 0 0 1-4-.5 43.5 43.5 0 0 1-2-15h3Z"/><path style="opacity:1" fill="#f1a622" d="M303.5 579.5h8c.32 3.4-.01 6.73-1 10-1.65-3-3.98-5.33-7-7v-3Z"/><path style="opacity:1" fill="#8a7b4d" d="M313.5 577.5v2c.33 4.71 0 9.38-1 14a6.9 6.9 0 0 1-3-2h3v-13c0-.67.33-1 1-1Z"/><path style="opacity:1" fill="#e3b147" d="M303.5 579.5a20.85 20.85 0 0 1 9-1v13h-3a10.85 10.85 0 0 1-6-9c3.02 1.67 5.35 4 7 7 .99-3.27 1.32-6.6 1-10h-8Z"/><path style="opacity:1" fill="#f5c03f" d="M480.5 543.5a21.82 21.82 0 0 1 6 9c.54 1.62.87 3.28 1 5h4a243.21 243.21 0 0 1 2 44v2a30.51 30.51 0 0 1-16 18h-1c-1.9.3-3.57.96-5 2l-2 3a3 3 0 0 0-2-2 4.61 4.61 0 0 0-4-1v-3a207.4 207.4 0 0 0 19-4c-.4-3.02.6-4.02 3-3 .75-1.83 1.75-3.5 3-5a4.85 4.85 0 0 0-4-1 58.12 58.12 0 0 1-1-13v-3a22.37 22.37 0 0 0 4.5-6 35.07 35.07 0 0 0-3.5-17c.96.45 1.8 1.12 2.5 2 .5-4.5-.17-8.83-2-13a3.27 3.27 0 0 1-3.5 2c.1-5.37-.23-10.7-1-16Z"/><path style="opacity:1" fill="#142119" d="M424.5 593.5v1a12.8 12.8 0 0 0 6 3 76.88 76.88 0 0 0 9.5-5c1.23.36 2.4.86 3.5 1.5 2.93 4.96 2.27 9.46-2 13.5-7.9 4.31-15.57 3.98-23-1-.57-1.47-1.4-2.8-2.5-4-1.51-7.3 1.32-10.3 8.5-9Z"/><path style="opacity:1" fill="#071e29" d="M424.5 594.5v3c3.82.93 7.49 1.26 11 1a4.39 4.39 0 0 1-1 3.5c-1.97.5-3.97.66-6 .5v3a5.58 5.58 0 0 1-3-1c-1 .44-1 1.1 0 2 2.95.82 5.95 1.32 9 1.5-3.33.67-6.67.67-10 0-6.96-3.8-6.63-6.8 1-9-2.4-.19-4.73-.69-7-1.5 1.21-2.42 3.21-3.42 6-3Z"/><path style="opacity:1" fill="#071d37" d="M428.5 605.5v-3c2.03.16 4.03 0 6-.5a4.39 4.39 0 0 0 1-3.5c1.88-4.41 4.71-5.08 8.5-2 .75 1.13.58 2.13-.5 3a5.71 5.71 0 0 0-5-2c.24 6.82-3.1 9.49-10 8Z"/><path style="opacity:1" fill="#fcba3f" d="M483.5 594.5c-.2 3.84.14 8.17 1 13a4.85 4.85 0 0 1 4 1 18.92 18.92 0 0 0-3 5c-2.4-1.02-3.4-.02-3 3a207.4 207.4 0 0 1-19 4v3c1.6-.27 2.93.07 4 1-25.17-.33-50.17 0-75 1-1.63-3.69-4.63-5.36-9-5-7.67-3-13-8.33-16-16h3c.44 5.77 3.44 9.44 9 11a90.35 90.35 0 0 0 20-5 44.84 44.84 0 0 0-18.5 1 25.24 25.24 0 0 1 0-10 5.9 5.9 0 0 1 2.5 6h4a4.71 4.71 0 0 1 2-4l-1-2a54.83 54.83 0 0 0 14-4c1.82-.16 3.15.5 4 2-2.77 1.25-4.27 3.25-4.5 6 2.08-2.53 4.08-2.53 6 0 1.81-1.1 2.65-.44 2.5 2 2.1.18 4.1-.15 6-1 .07 2.66 1.73 4.33 5 5a49.06 49.06 0 0 0 17 .5c3.19-1.4 6.19-2.9 9-4.5v-3c1.37.16 2.7-.01 4-.5a22.1 22.1 0 0 1-2-9.5c2.7.08 5.37.4 8 1a4.39 4.39 0 0 0 1 3.5c7.8.9 15.47.23 23-2a7.06 7.06 0 0 0 2-2.5Z"/><path style="opacity:1" fill="#d2bb6f" d="M418.5 606.5c7.43 4.98 15.1 5.31 23 1a5.7 5.7 0 0 1-5 3.5c-4.99.5-9.99.67-15 .5a11.74 11.74 0 0 1-3-5Z"/><path style="opacity:1" fill="#2ce5df" d="M605.5 705.5a12.2 12.2 0 0 1-6.5-1 108.7 108.7 0 0 0-11-21 259.01 259.01 0 0 0-19-24 44.98 44.98 0 0 0-6.5-11c53.73-3.78 98.23-25.78 133.5-66a417.2 417.2 0 0 1 41.5 42.5c-35.01 41.35-79.01 68.18-132 80.5Z"/><path style="opacity:1" fill="#15180c" d="M365.5 552.5c-.17 15.67 0 31.34.5 47 .6 1.65 1.1 3.32 1.5 5 3 7.67 8.33 13 16 16v1c-10.19-3.36-16.36-10.36-18.5-21a313 313 0 0 1-.5-25v-16c-.3-2.56.03-4.9 1-7Z"/><path style="opacity:1" fill="#03212f" d="M365.5 551.5v1c-.97 2.1-1.3 4.44-1 7h-3c.33-5.38 0-10.7-1-16l-1 8c1 8.02 1 16.02 0 24-1-5.3-1.33-10.63-1-16h-3l1 32h3l1 16h3c-.3-7.16-.64-14.33-1-21.5.01-3.9.68-7.4 2-10.5a313 313 0 0 0 .5 25c2.14 10.64 8.31 17.64 18.5 21 1.3-.24 2.3.1 3 1 1.55 2.33 2.38 5 2.5 8 2.04 1.7 3.71 3.7 5 6 1.7.9 3.53 1.24 5.5 1a772.83 772.83 0 0 0 68 .5c4.61-3.7 6.28-8.52 5-14.5 1.88.27 3.21-.4 4-2h1c2.59.1 4.92-.56 7-2l2 1a81.8 81.8 0 0 0 2 7l6-2a3.1 3.1 0 0 1 1 3 12.7 12.7 0 0 0-8 2 9.42 9.42 0 0 1 3 3 160.15 160.15 0 0 0-9 5.5c-.18 2.37.16 4.87 1 7.5-2.2 2.6-3.2 5.6-3 9h-16v-4l-16-1v5h-80c.31-3.52-1.02-4.86-4-4-2.67-1.67-2.67-3.33 0-5 .76 1.31 1.76 1.81 3 1.5-.46-.41-.8-.91-1-1.5a10.65 10.65 0 0 0 2-8c1.7.16 3.37 0 5-.5a53.28 53.28 0 0 1-19-17.5 49.52 49.52 0 0 1-6.5-19 702.15 702.15 0 0 1 0-53 36.94 36.94 0 0 1 9.5-20c-.13.74.04 1.4.5 2a19.39 19.39 0 0 0 7.5-8 6.44 6.44 0 0 1 3 5h-4c-.17 3.35 0 6.68.5 10a4.39 4.39 0 0 0 3.5 1v-4h3c.16 1.7 0 3.37-.5 5-3.62 3.13-5.12 7.13-4.5 12Z"/><path style="opacity:1" fill="#ba812a" d="M471.5 623.5c1.11 5.02-.56 8.7-5 11a12.49 12.49 0 0 0 3-8l2-3Z"/><path style="opacity:1" fill="#e98b1a" d="M467.5 624.5a3 3 0 0 1 2 2 12.49 12.49 0 0 1-3 8c0 .67-.33 1-1 1-22.67.17-45.34 0-68-.5-2.33-2.83-4-6-5-9.5 24.83-1 49.83-1.33 75-1Z"/><path style="opacity:1" fill="#9eb0be" d="M353.5 620.5a53.28 53.28 0 0 0 19 17.5c-1.63.5-3.3.66-5 .5-4.94.31-9.6 1.65-14 4a64.58 64.58 0 0 1-13-14 97.98 97.98 0 0 1 12-5.5 2.86 2.86 0 0 0 1-2.5Z"/><path style="opacity:1" fill="#02202b" d="M592.5 710.5c.12-1.09.79-1.75 2-2 3.9-.64 7.56-1.64 11-3 52.99-12.32 96.99-39.15 132-80.5a417.2 417.2 0 0 0-41.5-42.5c-35.27 40.22-79.77 62.22-133.5 66-3.21.31-6.21-.02-9-1a65.18 65.18 0 0 0 7-19c15.46-4.79 26.12-14.79 32-30a171.72 171.72 0 0 0 52-25.5 554.87 554.87 0 0 0 48-49c5.67-3.33 11.33-3.33 17 0l86.5 88.5a21.84 21.84 0 0 1-1 18 538.38 538.38 0 0 1-75.5 70.5 283.05 283.05 0 0 1-116 48.5 69.1 69.1 0 0 0-11-39Z"/><path style="opacity:1" fill="#c79141" d="M383.5 621.5v-1c4.38-.36 7.38 1.31 9 5 1 3.5 2.67 6.67 5 9.5 22.66.5 45.33.67 68 .5-.34.84-1 1.17-2 1-22.34.17-44.67 0-67-.5a14 14 0 0 1-6.5-12.5 4.39 4.39 0 0 0-3.5-1c-.7-.9-1.7-1.24-3-1Z"/><path style="opacity:1" fill="#362504" d="M386.5 622.5a4.39 4.39 0 0 1 3.5 1 14 14 0 0 0 6.5 12.5c22.33.5 44.66.67 67 .5-21.16 1-42.5 1.33-64 1-1.97.24-3.8-.1-5.5-1a21.53 21.53 0 0 0-5-6c-.12-3-.95-5.67-2.5-8Z"/><path style="opacity:1" fill="#131c12" d="M476.5 621.5c-.79 1.6-2.12 2.27-4 2 1.28 5.98-.39 10.8-5 14.5-22.84.83-45.5.66-68-.5 21.5.33 42.84 0 64-1 1 .17 1.66-.16 2-1 .67 0 1-.33 1-1 4.44-2.3 6.11-5.98 5-11 1.43-1.04 3.1-1.7 5-2Z"/><path style="opacity:1" fill="#a0b2bf" d="M488.5 663.5v54h-4c.7-.9 1.7-1.24 3-1v-41h-114v-18h115v6Z"/><path style="opacity:1" fill="#1ec4cd" d="M553.5 647.5c2.79.98 5.79 1.31 9 1a44.98 44.98 0 0 1 6.5 11 259.01 259.01 0 0 1 19 24 108.7 108.7 0 0 1 11 21 12.2 12.2 0 0 0 6.5 1 52.94 52.94 0 0 1-11 3c-1.21.25-1.88.91-2 2a65.2 65.2 0 0 0-31.5-24 130.68 130.68 0 0 0-13.5-30c1.76-3.2 3.76-6.2 6-9Z"/><path style="opacity:1" fill="#d7e0e5" d="M373.5 675.5h114v41c-1.3-.24-2.3.1-3 1-19.14 3.48-30.14 14.81-33 34h-41c-3.03-16.42-12.36-27.42-28-33a29.23 29.23 0 0 0-9-1v-42Z"/><path style="opacity:1" fill="#eef3f4" d="M350.5 678.5a20.9 20.9 0 0 1 .5 11 76.84 76.84 0 0 0-9.5 27 38.47 38.47 0 0 1-5.5-5 56.58 56.58 0 0 1 14.5-33Z"/><path style="opacity:1" fill="#02202e" d="M510.5 748.5c-.36-1.69-1.36-2.69-3-3a6.55 6.55 0 0 0-3-3c-4.27-4.54-9.6-6.54-16-6a6.59 6.59 0 0 0-6-.5 19.2 19.2 0 0 1-8.5 3.5 15.12 15.12 0 0 0-3.5 6l-3 2c-1.22-1.21-2.39-1.21-3.5 0-.82 2.73-.65 5.4.5 8a4.85 4.85 0 0 0 1-4 4.85 4.85 0 0 1 4 1 28.04 28.04 0 0 0-1.5 5c-5.62 3.1-4.79 4.77 2.5 5v3c-2.26.72-4.6 1.05-7 1 .3 2.84-.37 3.34-2 1.5-3.32-.5-6.65-.66-10-.5v-16c2.86-19.19 13.86-30.52 33-34h4v-54a2.26 2.26 0 0 0 1.5-1c.99 4.27 1.82 4.6 2.5 1h3v8h4c-.17 5.34 0 10.68.5 16a5.85 5.85 0 0 1 2.5 6h-3a4.85 4.85 0 0 0-1-4c-1.28 2.22-.95 4.22 1 6a14.97 14.97 0 0 1-3 3.5 20.5 20.5 0 0 0 2.5 3.5c1-1.33 2-1.33 3 0 .5 5.66.67 11.32.5 17a5.9 5.9 0 0 0-6 2.5c4.68 4.65 9.68 8.82 15 12.5v-5a4.93 4.93 0 0 1 3 .5c5.05 3.97 4.71 5.8-1 5.5.31 2.75-.02 5.41-1 8l-2-4a6.44 6.44 0 0 0 1 7.5c-.07.76-.4 1.26-1 1.5Z"/><path style="opacity:1" fill="#03212e" d="M427.5 728.5c-13.41-4.49-18.08-13.49-14-27a3.3 3.3 0 0 1 1.5 2c.27-1.6.77-3.1 1.5-4.5 1.6-.66 2.77-.16 3.5 1.5l1-2a11.52 11.52 0 0 1 3.5 5c2.81-6.62 5.15-6.62 7 0h8c.29 4.3.29 8.46 0 12.5a3.27 3.27 0 0 1 2 3.5c-3.14.3-5.3 1.97-6.5 5-1.68-.3-3.35-.64-5-1l-4.5 1.5a3.92 3.92 0 0 1 2 3.5Z"/><path style="opacity:1" fill="#052129" d="M427.5 728.5a3.92 3.92 0 0 0-2-3.5l4.5-1.5c1.65.36 3.32.7 5 1 1.2-3.03 3.36-4.7 6.5-5a3.27 3.27 0 0 0-2-3.5c.29-4.04.29-8.2 0-12.5h-8c-1.85-6.62-4.19-6.62-7 0a11.52 11.52 0 0 0-3.5-5l-1 2c-.73-1.66-1.9-2.16-3.5-1.5-.73 1.4-1.23 2.9-1.5 4.5a3.3 3.3 0 0 0-1.5-2c6.94-11.14 16.28-13.64 28-7.5 8.33 7.05 10.16 15.55 5.5 25.5-4.93 6.38-11.43 9.38-19.5 9Z"/><path style="opacity:1" fill="#9fafbd" d="M511.5 677.5a70.16 70.16 0 0 1 15 32.5 139.84 139.84 0 0 0-12.5 15.5 32.86 32.86 0 0 0-4.5-5c-.65-14.7.02-29.04 2-43Z"/><path style="opacity:1" fill="#39505e" d="M511.5 677.5a232.26 232.26 0 0 0-2 43 255.01 255.01 0 0 1 0-45 3 3 0 0 1 2 2Z"/><path style="opacity:1" fill="#97aaba" d="M352.5 720.5c-1.97 1.32-3.97 2.66-6 4-1-2.3-2.32-4.3-4-6l-1-2a76.84 76.84 0 0 1 9.5-27 20.9 20.9 0 0 0-.5-11 4.3 4.3 0 0 1 1.5-2c.5 14.66.67 29.33.5 44Z"/><path style="opacity:1" fill="#f0f5f7" d="M559.5 729.5a137.02 137.02 0 0 0-23 8.5c-1.93.25-3.77.75-5.5 1.5-.4-.23-.57-.56-.5-1 3.85-11.25 11.52-15.75 23-13.5 2.6.8 4.6 2.3 6 4.5Z"/><path style="opacity:1" fill="#03212d" d="M342.5 718.5c1.68 1.7 3 3.7 4 6 2.03-1.34 4.03-2.68 6-4 1.79-.43 2.79-1.6 3-3.5a36.08 36.08 0 0 0 2-13.5h4v16a7.1 7.1 0 0 1 6.5 2l1.5-1.5c4.52-.17 8.85-.67 13-1.5 15.64 5.58 24.97 16.58 28 33v19h40v-19h1v16c3.35-.16 6.68 0 10 .5 1.63 1.84 2.3 1.34 2-1.5 2.4.05 4.74-.28 7-1-.23 5.06.1 10.06 1 15-.05 5.93 2.62 9.93 8 12-1.84 1.78-2.51 4.11-2 7-2 .17-3.66-.5-5-2-.72-2.19-1.39-4.35-2-6.5.95-.62 1.78-.45 2.5.5.67-.67.67-1.33 0-2a20.86 20.86 0 0 1-6.5-3 32.3 32.3 0 0 1-2.5-12c-.5 2.98-.67 5.98-.5 9-4.8.72-8.8-.61-12-4 2.16-1.6 2.33-3.26.5-5-.83 1.5-2 2.67-3.5 3.5l1 1c-2.53 2.08-2.53 4.08 0 6a4.27 4.27 0 0 0-2 4.5c2.03-.16 4.03 0 6 .5 1.93.42 2.93 1.59 3 3.5-16.91.33-33.74 0-50.5-1a4.3 4.3 0 0 0-1.5 2c-16.28 19.9-35.62 23.4-58 10.5a63.73 63.73 0 0 1-9-10c-19.33-.5-38.66-.67-58-.5-12.67.17-25.34 0-38-.5-9.47-4.75-11.97-11.92-7.5-21.5a15.45 15.45 0 0 1 7.5-5.5c12.66-.5 25.33-.67 38-.5-9.06-24.26-3.06-43.76 18-58.5 5.52-2.3 11.19-4.13 17-5.5l5-14a71.76 71.76 0 0 1 11-13.5l-1-1c1.67-5.5 5.34-8.67 11-9.5.55-1.83.55-3.5 0-5a6.87 6.87 0 0 1 3-4.5 14.5 14.5 0 0 1-5-4c2.24.83 4.57 1.83 7 3l1.5 1.5c.67 3.33.67 6.67 0 10a26.67 26.67 0 0 1-6.5 1.5c1.33 1.33 1.33 2.67 0 4 1.17.5 2 1.33 2.5 2.5 1.77-1.92 3.94-2.42 6.5-1.5l-3 2.5c1.18 1.97.51 3.3-2 4a66.39 66.39 0 0 1-5.5 10c.54 1.95.2 3.95-1 6-.41-.46-.91-.8-1.5-1l-2 10c-3.18 2.9-4.51 6.24-4 10-4 .33-4 .67 0 1-1.41 2.66-2.75 5.5-4 8.5a5 5 0 0 1 3.5 2.5 37.14 37.14 0 0 1 4.5-2c3.63 3 5.96 2.17 7-2.5-1.07-1.16-.73-2 1-2.5Z"/><path style="opacity:1" fill="#f4f6ed" d="M488.5 736.5c6.4-.54 11.73 1.46 16 6-.8 2.6-2.3 4.6-4.5 6-9.87-5.55-16.7-3.22-20.5 7a14.53 14.53 0 0 0-2 9h-7v-2c-1.87-14.3 4.13-22.97 18-26Z"/><path style="opacity:1" fill="#a0b2be" d="M324.5 727.5a19.3 19.3 0 0 1 6.5 8c.96 1.7 1.46 3.53 1.5 5.5a132.14 132.14 0 0 0-2 29.5c-7.34.17-14.67 0-22-.5a18.76 18.76 0 0 1-11-12.5c2.4.1 4.24-.9 5.5-3a55.8 55.8 0 0 0 2-12 15.8 15.8 0 0 1 8.5-11.5c3.93-.75 7.6-1.91 11-3.5Z"/><path style="opacity:1" fill="#fcf7be" d="M367.5 745.5a64.62 64.62 0 0 1 16-1 10.9 10.9 0 0 1-5.5 2 40.93 40.93 0 0 0-10.5-1Z"/><path style="opacity:1" fill="#092226" d="M488.5 736.5c-13.87 3.03-19.87 11.7-18 26-7.29-.23-8.12-1.9-2.5-5 .35-1.72.85-3.38 1.5-5a4.85 4.85 0 0 0-4-1 4.85 4.85 0 0 1-1 4 11.22 11.22 0 0 1-.5-8c1.11-1.21 2.28-1.21 3.5 0l3-2a15.12 15.12 0 0 1 3.5-6 19.2 19.2 0 0 0 8.5-3.5 6.59 6.59 0 0 1 6 .5Z"/><path style="opacity:1" fill="#cbaa58" d="M383.5 742.5a19.3 19.3 0 0 1 6.5 8c.5 9 .67 18 .5 27h-1v-22a10.09 10.09 0 0 0-4-7.5 54.56 54.56 0 0 0-18 .5 18.18 18.18 0 0 1-7 3 47.13 47.13 0 0 1 7-6c3.54-.12 7.04.21 10.5 1a10.9 10.9 0 0 0 5.5-2v-2Z"/><path style="opacity:1" fill="#9eb2bd" d="M410.5 751.5h40v19h-40v-19Z"/><path style="opacity:1" fill="#f2f8f9" d="M324.5 727.5a46.47 46.47 0 0 1-11 3.5 15.8 15.8 0 0 0-8.5 11.5 55.8 55.8 0 0 1-2 12 5.72 5.72 0 0 1-5.5 3 69.28 69.28 0 0 1-.5-19c5.3-13.92 14.47-17.58 27.5-11Z"/><path style="opacity:1" fill="#0f1f1c" d="M350.5 751.5c-.33 8.52 0 16.85 1 25v2c1.2 5.2 4.2 8.86 9 11 2.54 2.5 5.7 3.5 9.5 3 4.32.4 8.15-.6 11.5-3 5.14-2.26 7.8-6.26 8-12h1c.17 3.02 0 6.02-.5 9a13.92 13.92 0 0 1-4 3 8.43 8.43 0 0 0-.5 4c4.46.53 4.8 1.53 1 3a23.71 23.71 0 0 0-10-.5 9.43 9.43 0 0 0 7 3 103.2 103.2 0 0 0-19 .5 84.21 84.21 0 0 0-6.5-2c-2.24.6-4.4 1.26-6.5 2 .13-1.7.8-3.2 2-4.5l-2-3 1-1.5c4.25 2.52 8.58 4.86 13 7a21.4 21.4 0 0 1 7-2.5l-9-1-15.5-11.5a33.82 33.82 0 0 1-1.5-8.5c.69-6.85 1.52-13.68 2.5-20.5a3.3 3.3 0 0 1 1.5-2Z"/><path style="opacity:1" fill="#a0b1bc" d="M559.5 729.5c4.9 4.34 6.9 9.84 6 16.5a30.36 30.36 0 0 1-5.5 19.5 26.03 26.03 0 0 1-7.5 4.5c-7.33.5-14.66.67-22 .5a717.12 717.12 0 0 1 0-32c-.07.44.1.77.5 1a20.43 20.43 0 0 1 5.5-1.5c7.5-3.55 15.16-6.38 23-8.5Z"/><path style="opacity:1" fill="#f0f3e9" d="M383.5 742.5v2a64.62 64.62 0 0 0-16 1 47.13 47.13 0 0 0-7 6 31.43 31.43 0 0 0-2 14c-2.89-.51-5.22.16-7 2v9c-1-8.15-1.33-16.48-1-25 4.9-12.45 13.9-16.95 27-13.5 2.6.8 4.6 2.3 6 4.5Z"/><path style="opacity:1" fill="#29180a" d="M507.5 745.5c1.64.31 2.64 1.31 3 3 1.32 10.1 1.32 20.1 0 30 .33-9.18 0-18.18-1-27-.1-2.2-.77-4.2-2-6Z"/><path style="opacity:1" fill="#dac480" d="M479.5 755.5v10c-2.63.6-5.3.92-8 1a25.6 25.6 0 0 0 1 10c.65 1.93.98 3.93 1 6l-2-2a67.25 67.25 0 0 1-1-15v-1h7c-.29-3.33.38-6.33 2-9Z"/><path style="opacity:1" fill="#f9be41" d="M389.5 755.5c-2.37.5-4.7 1.17-7 2a151 151 0 0 1-3 20c-2.1.91-4.1 2.08-6 3.5a12.5 12.5 0 0 1-7 0 36.53 36.53 0 0 1-8-13c-2.31-.5-4.64-.66-7-.5 1.78-1.84 4.11-2.51 7-2-.38-4.95.29-9.62 2-14 2.51-.5 4.84-1.5 7-3a54.56 54.56 0 0 1 18-.5 10.09 10.09 0 0 1 4 7.5Z"/><path style="opacity:1" fill="#f8bd3f" d="M504.5 742.5a6.55 6.55 0 0 1 3 3c1.23 1.8 1.9 3.8 2 6v4a8.77 8.77 0 0 0-7 2c-.76 6.01-1.6 12.01-2.5 18-3.08 6.3-7.91 8.3-14.5 6a4.93 4.93 0 0 0-.5-3c-4.27-2.8-6.27-6.8-6-12a12.2 12.2 0 0 1-6.5 1v9a25.6 25.6 0 0 1-1-10c2.7-.08 5.37-.4 8-1v-10c3.8-10.22 10.63-12.55 20.5-7 2.2-1.4 3.7-3.4 4.5-6Z"/><path style="opacity:1" fill="#eb9320" d="M389.5 755.5v22c-.2 5.74-2.86 9.74-8 12-3.82-.09-7.48.58-11 2a4.64 4.64 0 0 1-3-1 11.24 11.24 0 0 1 3-4l-3-2c3.27-.99 6.6-1.32 10-1a7.17 7.17 0 0 1 2-6 151 151 0 0 0 3-20c2.3-.83 4.63-1.5 7-2Z"/><path style="opacity:1" fill="#c6a35a" d="M351.5 778.5h3a18.04 18.04 0 0 0 6 11c-4.8-2.14-7.8-5.8-9-11Z"/><path style="opacity:1" fill="#f09f24" d="M351.5 767.5c2.36-.16 4.69 0 7 .5a36.53 36.53 0 0 0 8 13c2.33.67 4.67.67 7 0 1.9-1.42 3.9-2.59 6-3.5a7.17 7.17 0 0 0-2 6c-3.4-.32-6.73.01-10 1l3 2a11.24 11.24 0 0 0-3 4c-2.3-.5-4.64-.83-7-1a18.04 18.04 0 0 1-6-11h-3v-11Z"/><path style="opacity:1" fill="#ea9724" d="M509.5 751.5c1 8.82 1.33 17.82 1 27a32.28 32.28 0 0 1-8 11 29.42 29.42 0 0 1-7 2c-3.02.16-6.02 0-9-.5a32.75 32.75 0 0 1-13-7.5v-1a19.22 19.22 0 0 0-1-6v-9c2.3.26 4.46-.08 6.5-1-.27 5.2 1.73 9.2 6 12 .48.95.65 1.95.5 3 6.59 2.3 11.42.3 14.5-6 .9-5.99 1.74-11.99 2.5-18a8.77 8.77 0 0 1 7-2v-4Z"/><path style="opacity:1" fill="#d79941" d="M360.5 789.5c2.36.17 4.7.5 7 1 .77.65 1.77.98 3 1a27.44 27.44 0 0 1 11-2 16.57 16.57 0 0 1-11.5 3c-3.8.5-6.96-.5-9.5-3Z"/><path style="opacity:1" fill="#516c76" d="M456.5 793.5v1h-52a4.3 4.3 0 0 1 1.5-2 644.6 644.6 0 0 0 50.5 1Z"/><path style="opacity:1" fill="#abbac6" d="M279.5 794.5c19.34-.17 38.67 0 58 .5a63.73 63.73 0 0 0 9 10c22.38 12.9 41.72 9.4 58-10.5h52c12.9 17.8 29.56 22.8 50 15 7-3.16 12.67-8 17-14.5 20-.5 40-.67 60-.5-.12 3.65-1.79 6.48-5 8.5-8.6 4.31-17.6 7.65-27 10a531.85 531.85 0 0 1-120 9.5c-37.56.8-74.9-1.7-112-7.5a216 216 0 0 1-34-10 25.55 25.55 0 0 1-6.5-5.5 5.49 5.49 0 0 1 .5-5Z"/><path style="opacity:1" fill="#04202f" d="m479.5 792.5 4 1a4.61 4.61 0 0 1-4 1v3a61.7 61.7 0 0 0 17.5 5 30.74 30.74 0 0 1 6.5-3 4.39 4.39 0 0 1 1-3.5c2.3-.78 4.3-.28 6 1.5l1-1.5c-2.4-2.66-4.4-5.5-6-8.5a6.04 6.04 0 0 1 5 2l1-1.5c-2.17-2.6-2.34-5.43-.5-8.5a38.4 38.4 0 0 0 3.5 11.5 397.16 397.16 0 0 0-3 13.5c-3.02-.43-5.36.57-7 3 .74.68 1.4 1.35 2 2-20.44 7.8-37.1 2.8-50-15v-1c-.07-1.91-1.07-3.08-3-3.5-1.97-.5-3.97-.66-6-.5a4.27 4.27 0 0 1 2-4.5c-2.53-1.92-2.53-3.92 0-6l-1-1c1.5-.83 2.67-2 3.5-3.5 1.83 1.74 1.66 3.4-.5 5 3.2 3.39 7.2 4.72 12 4-.17-3.02 0-6.02.5-9 .07 4.2.9 8.2 2.5 12a20.86 20.86 0 0 0 6.5 3c.67.67.67 1.33 0 2-.72-.95-1.55-1.12-2.5-.5.61 2.15 1.28 4.31 2 6.5 1.34 1.5 3 2.17 5 2-.51-2.89.16-5.22 2-7Z"/><path style="opacity:1" fill="#4a3110" d="M502.5 789.5a7.65 7.65 0 0 1-5 3.5c-4.65.5-9.32.67-14 .5l-1-2a23.25 23.25 0 0 0 13 0 29.42 29.42 0 0 0 7-2Z"/><path style="opacity:1" fill="#d8a448" d="M473.5 783.5a32.75 32.75 0 0 0 13 7.5c2.98.5 5.98.66 9 .5a23.25 23.25 0 0 1-13 0c-3.6-1.93-6.6-4.6-9-8Z"/><path style="opacity:1" fill="#1a1d11" d="m471.5 780.5 2 2v1c2.4 3.4 5.4 6.07 9 8l1 2-4-1c-5.38-2.07-8.05-6.07-8-12Z"/></svg>